<svg width="384" height="384" viewBox="0 0 384 384" fill="none" xmlns="http://www.w3.org/2000/svg">
<path d="M262.656 222.242H256.937V340.992H262.656V222.242Z" fill="url(#paint0_linear)"/>
<path d="M68.9517 222.242H63.2325V340.992H68.9517V222.242Z" fill="url(#paint1_linear)"/>
<path d="M136.954 222.242H131.235V340.992H136.954V222.242Z" fill="url(#paint2_linear)"/>
<path d="M262.654 216.576H63.232V223.079H262.654V216.576Z" fill="url(#paint3_linear)"/>
<path d="M136.952 216.576H63.2787V223.079H136.952V216.576Z" fill="url(#paint4_linear)"/>
<path d="M189.094 172.188H150.295V215.395H189.094V172.188Z" fill="#D6D7D8"/>
<path d="M213.139 213.994H126.251V217.344H213.139V213.994Z" fill="#428DFC"/>
<path d="M253.44 89.6H82.944V200.081H253.44V89.6Z" fill="url(#paint5_linear)"/>
<path d="M250.434 92.3548H85.9496V183.342H250.434V92.3548Z" fill="white"/>
<path d="M240.895 196.405C243.579 196.405 245.755 194.227 245.755 191.541C245.755 188.854 243.579 186.677 240.895 186.677C238.211 186.677 236.036 188.854 236.036 191.541C236.036 194.227 238.211 196.405 240.895 196.405Z" fill="#EEEEEE"/>
<path d="M167.424 174.822C186.355 174.822 201.702 159.476 201.702 140.544C201.702 121.613 186.355 106.266 167.424 106.266C148.492 106.266 133.146 121.613 133.146 140.544C133.146 159.476 148.492 174.822 167.424 174.822Z" fill="#E94A47"/>
<path d="M167.424 176.128C147.803 176.128 131.84 160.165 131.84 140.544C131.84 120.923 147.803 104.96 167.424 104.96C187.045 104.96 203.008 120.923 203.008 140.544C203.008 160.165 187.045 176.128 167.424 176.128ZM167.424 107.572C149.243 107.572 134.452 122.363 134.452 140.544C134.452 158.725 149.243 173.516 167.424 173.516C185.605 173.516 200.396 158.725 200.396 140.544C200.396 122.363 185.605 107.572 167.424 107.572Z" fill="#A1C3FC"/>
<path d="M152.788 130.639H150.339C149.798 130.639 149.36 131.077 149.36 131.618V152.494C149.36 153.035 149.798 153.474 150.339 153.474H152.788C153.329 153.474 153.767 153.035 153.767 152.494V131.618C153.767 131.077 153.328 130.639 152.788 130.639Z" fill="#A1C3FC"/>
<path d="M170.805 125.564H159.511C158.97 125.564 158.532 126.002 158.532 126.543V152.494C158.532 153.035 158.97 153.474 159.511 153.474H170.805C171.346 153.474 171.785 153.035 171.785 152.494V126.543C171.784 126.002 171.346 125.564 170.805 125.564Z" fill="#A1C3FC"/>
<path d="M152.08 125.089L138.009 142.45C137.506 143.071 137.948 143.998 138.747 143.998H152.817C153.342 143.998 153.767 143.573 153.767 143.048V125.688C153.767 124.793 152.643 124.394 152.08 125.089Z" fill="#A1C3FC"/>
<path d="M188.39 130.639H185.941C185.401 130.639 184.962 131.077 184.962 131.618V152.494C184.962 153.035 185.401 153.474 185.941 153.474H188.39C188.931 153.474 189.369 153.035 189.369 152.494V131.618C189.369 131.077 188.931 130.639 188.39 130.639Z" fill="#A1C3FC"/>
<path d="M187.682 125.089L173.612 142.45C173.108 143.071 173.55 143.998 174.349 143.998H188.419C188.944 143.998 189.369 143.573 189.369 143.048V125.688C189.369 124.793 188.245 124.394 187.682 125.089Z" fill="#A1C3FC"/>
<path d="M166.599 129.479H163.716C163.175 129.479 162.737 129.917 162.737 130.458V148.579C162.737 149.12 163.175 149.558 163.716 149.558H166.599C167.14 149.558 167.579 149.12 167.579 148.579V130.458C167.579 129.917 167.14 129.479 166.599 129.479Z" fill="#E94A47"/>
<path d="M148.317 123.711H145.433C144.892 123.711 144.454 124.15 144.454 124.691V138.894C144.454 139.435 144.892 139.873 145.433 139.873H148.317C148.858 139.873 149.296 139.435 149.296 138.894V124.691C149.296 124.15 148.858 123.711 148.317 123.711Z" fill="#E94A47"/>
<path d="M183.903 123.711H181.019C180.478 123.711 180.04 124.15 180.04 124.691V138.894C180.04 139.435 180.478 139.873 181.019 139.873H183.903C184.444 139.873 184.882 139.435 184.882 138.894V124.691C184.882 124.15 184.444 123.711 183.903 123.711Z" fill="#E94A47"/>
<path d="M272.771 346.368C269.005 346.368 265.953 343.327 265.953 339.575C265.953 335.823 269.005 332.782 272.771 332.782C276.536 332.782 279.588 335.823 279.588 339.575C279.588 343.327 276.536 346.368 272.771 346.368Z" fill="url(#paint6_linear)"/>
<path d="M246.09 241.73H335.834V258.255H246.09V241.73Z" fill="url(#paint7_linear)"/>
<path d="M307.318 258.255H274.737C274.737 261.129 277.097 263.415 279.916 263.415H302.074C305.024 263.415 307.318 261.129 307.318 258.255Z" fill="url(#paint8_linear)"/>
<path d="M287.061 263.35H295.059V277.916H287.061V263.35Z" fill="url(#paint9_linear)"/>
<path d="M291.913 276.348H290.143C287.258 276.348 284.898 278.699 284.898 281.573V324.16H297.157V281.573C297.223 278.699 294.863 276.348 291.913 276.348Z" fill="url(#paint10_linear)"/>
<path d="M290.995 324.16H260.839C257.103 324.16 254.153 327.165 254.153 330.823V332.978H256.316V332.521V331.606C256.316 328.667 258.676 326.316 261.626 326.316H290.995V324.16Z" fill="url(#paint11_linear)"/>
<path d="M290.995 324.16H278.277C274.54 324.16 271.591 327.165 271.591 330.823V332.978H273.754V332.521V331.606C273.754 328.667 276.114 326.316 279.064 326.316H290.995V324.16Z" fill="#23286B"/>
<path d="M290.864 324.16H321.019C324.756 324.16 327.706 327.165 327.706 330.823V332.978H325.542V332.521V331.606C325.542 328.667 323.182 326.316 320.232 326.316H290.864V324.16Z" fill="url(#paint12_linear)"/>
<path d="M290.864 324.16H303.581C307.318 324.16 310.268 327.165 310.268 330.823V332.978H308.105V332.521V331.606C308.105 328.667 305.745 326.316 302.795 326.316H290.864V324.16Z" fill="#23286B"/>
<path d="M309.219 346.368C305.454 346.368 302.401 343.327 302.401 339.575C302.401 335.823 305.454 332.782 309.219 332.782C312.984 332.782 316.037 335.823 316.037 339.575C316.037 343.327 312.984 346.368 309.219 346.368Z" fill="url(#paint13_linear)"/>
<path d="M255.202 346.368C251.436 346.368 248.384 343.327 248.384 339.575C248.384 335.823 251.436 332.782 255.202 332.782C258.967 332.782 262.02 335.823 262.02 339.575C262.02 343.327 258.967 346.368 255.202 346.368Z" fill="url(#paint14_linear)"/>
<path d="M265.166 324.421L273.033 346.303H217.442C217.442 346.303 220.326 340.816 229.832 336.766C239.337 332.717 248.187 324.421 248.187 324.421H265.166Z" fill="url(#paint15_linear)"/>
<path d="M304.565 223.702C304.565 223.702 297.288 240.423 275.458 242.71C253.628 244.996 262.478 267.138 264.379 270.6C266.281 274.062 268.641 277.066 270.017 282.422C271.394 287.778 269.427 294.702 271.591 298.621C273.754 302.54 282.866 315.734 280.047 324.421H248.122C248.122 324.421 229.701 252.181 230.946 245.061C232.192 237.941 230.16 232.194 249.367 223.31C268.575 214.427 281.489 208.875 281.489 208.875L304.565 223.702Z" fill="url(#paint16_linear)"/>
<path d="M326.657 346.368C322.891 346.368 319.839 343.327 319.839 339.575C319.839 335.823 322.891 332.782 326.657 332.782C330.422 332.782 333.474 335.823 333.474 339.575C333.474 343.327 330.422 346.368 326.657 346.368Z" fill="url(#paint17_linear)"/>
<path d="M244.844 324.421L252.711 346.303H197.12C197.12 346.303 200.004 340.816 209.51 336.766C219.015 332.717 227.865 324.421 227.865 324.421H244.844Z" fill="#428DFC"/>
<path d="M298.206 219.849C298.206 219.849 300.238 238.595 275.065 242.644C249.892 246.694 248.777 249.764 248.581 256.165C248.384 262.566 250.285 266.354 252.645 272.951C255.005 279.549 255.071 288.628 253.825 293.918C252.58 299.209 258.086 305.806 260.643 312.011C262.216 315.996 262.806 320.306 262.347 324.552H227.865C227.865 324.552 218.622 262.566 217.966 253.422C217.311 244.277 214.361 234.937 226.292 228.797C238.223 222.657 263.789 211.423 263.789 211.423L298.206 219.849Z" fill="url(#paint18_linear)"/>
<path opacity="0.86" d="M278.933 223.31C278.998 223.376 278.998 223.441 278.933 223.506C278.867 223.572 278.802 223.572 278.736 223.506C278.67 223.441 278.67 223.376 278.736 223.31C278.802 223.245 278.867 223.245 278.933 223.31ZM280.965 225.466C281.03 225.531 281.03 225.596 280.965 225.662C280.899 225.727 280.834 225.727 280.768 225.662C280.703 225.596 280.703 225.531 280.768 225.466C280.834 225.401 280.899 225.466 280.965 225.466ZM269.558 230.365C269.624 230.365 269.689 230.43 269.689 230.495C269.689 230.561 269.624 230.626 269.558 230.626C269.493 230.626 269.427 230.561 269.427 230.495C269.427 230.365 269.493 230.365 269.558 230.365ZM272.574 230.43C272.639 230.43 272.705 230.495 272.705 230.561C272.705 230.626 272.639 230.691 272.574 230.691C272.508 230.691 272.443 230.626 272.443 230.561C272.443 230.495 272.508 230.43 272.574 230.43ZM275.524 230.561C275.589 230.561 275.655 230.626 275.655 230.691C275.655 230.757 275.589 230.822 275.524 230.822C275.458 230.822 275.393 230.757 275.393 230.691C275.393 230.561 275.458 230.561 275.524 230.561ZM278.539 230.626C278.605 230.626 278.67 230.691 278.67 230.757C278.67 230.822 278.605 230.887 278.539 230.887C278.474 230.887 278.408 230.822 278.408 230.757C278.408 230.691 278.474 230.626 278.539 230.626ZM274.082 242.056C274.147 242.122 274.147 242.187 274.082 242.252C274.016 242.318 273.951 242.318 273.951 242.252C273.885 242.187 273.885 242.122 273.951 242.056C274.016 241.991 274.016 242.056 274.082 242.056ZM272.574 224.682C272.639 224.682 272.639 224.813 272.639 224.813L272.508 224.878C272.443 224.878 272.443 224.747 272.443 224.747C272.443 224.682 272.508 224.682 272.574 224.682ZM275.327 225.923C275.393 225.923 275.393 226.054 275.393 226.054C275.393 226.054 275.393 226.119 275.327 226.119C275.262 226.119 275.262 226.119 275.196 226.119C275.13 226.119 275.13 226.054 275.13 225.988C275.196 225.923 275.262 225.858 275.327 225.923ZM278.015 227.164C278.08 227.164 278.08 227.229 278.08 227.295C278.08 227.36 278.015 227.36 277.949 227.36C277.884 227.36 277.884 227.295 277.884 227.229C277.884 227.164 277.949 227.099 278.015 227.164ZM280.768 228.34C280.834 228.34 280.834 228.47 280.834 228.47C280.834 228.536 280.768 228.536 280.703 228.536C280.637 228.536 280.637 228.47 280.637 228.405C280.637 228.34 280.703 228.34 280.768 228.34ZM272.181 236.113C272.181 236.178 272.181 236.243 272.115 236.243C272.049 236.243 271.984 236.243 271.984 236.178C271.984 236.113 271.984 236.047 272.049 236.047C272.115 236.047 272.181 236.047 272.181 236.113ZM274.999 235.067C274.999 235.133 274.999 235.198 274.934 235.198C274.868 235.198 274.803 235.198 274.803 235.133C274.803 235.067 274.803 235.002 274.868 235.002C274.868 235.002 274.934 235.002 274.999 235.067ZM278.277 223.506C278.408 223.572 278.408 223.702 278.408 223.833C278.343 223.898 278.277 223.964 278.212 223.964C278.146 223.964 278.146 223.964 278.08 223.964L278.015 223.898C277.949 223.833 277.949 223.637 278.015 223.572C278.08 223.441 278.146 223.441 278.277 223.506ZM256.054 236.57C256.12 236.7 256.054 236.831 255.923 236.831C255.792 236.896 255.661 236.831 255.661 236.7C255.595 236.57 255.661 236.439 255.792 236.439C255.857 236.374 255.988 236.439 256.054 236.57ZM261.495 234.937C261.561 235.067 261.429 235.198 261.364 235.198C261.233 235.263 261.102 235.198 261.102 235.067C261.036 234.937 261.102 234.806 261.233 234.806C261.298 234.741 261.429 234.806 261.495 234.937ZM266.871 233.304C266.871 233.435 266.805 233.565 266.739 233.63C266.608 233.696 266.477 233.63 266.477 233.5C266.412 233.369 266.477 233.239 266.608 233.239C266.739 233.108 266.871 233.173 266.871 233.304ZM272.312 231.671C272.377 231.802 272.246 231.932 272.181 231.932C272.049 231.998 271.918 231.932 271.918 231.802C271.853 231.671 271.918 231.54 272.049 231.54C272.115 231.475 272.246 231.54 272.312 231.671ZM277.687 230.038C277.753 230.169 277.622 230.299 277.49 230.299C277.359 230.365 277.228 230.234 277.228 230.169C277.163 230.038 277.228 229.907 277.359 229.907C277.556 229.842 277.687 229.907 277.687 230.038ZM257.365 224.225C257.496 224.225 257.627 224.355 257.562 224.486C257.496 224.617 257.431 224.747 257.3 224.682C257.168 224.617 257.037 224.551 257.103 224.421C257.168 224.29 257.234 224.225 257.365 224.225ZM263.003 224.747C263.134 224.747 263.265 224.878 263.199 225.009C263.199 225.139 263.068 225.27 262.937 225.205C262.806 225.205 262.675 225.074 262.741 224.943C262.741 224.878 262.872 224.747 263.003 224.747ZM268.641 225.335C268.772 225.335 268.837 225.466 268.837 225.596C268.837 225.727 268.706 225.792 268.575 225.792C268.444 225.792 268.378 225.662 268.378 225.531C268.378 225.401 268.509 225.335 268.641 225.335ZM274.278 225.923C274.409 225.923 274.475 226.054 274.475 226.184C274.475 226.315 274.344 226.38 274.213 226.38C274.082 226.38 274.016 226.25 274.016 226.119C274.016 225.988 274.147 225.923 274.278 225.923ZM279.916 226.446C280.047 226.446 280.113 226.576 280.113 226.707C280.113 226.838 279.982 226.903 279.85 226.903C279.719 226.903 279.654 226.772 279.654 226.642C279.654 226.576 279.785 226.446 279.916 226.446C279.85 226.446 279.916 226.446 279.916 226.446ZM267.985 241.403C268.051 241.469 268.051 241.665 267.985 241.73C267.854 241.795 267.723 241.795 267.657 241.73C267.592 241.599 267.592 241.469 267.723 241.403C267.723 241.338 267.919 241.338 267.985 241.403ZM272.377 237.876C272.443 238.007 272.443 238.137 272.377 238.203C272.312 238.268 272.115 238.268 272.049 238.203C271.984 238.137 271.984 237.941 272.049 237.876C272.115 237.745 272.246 237.745 272.377 237.876ZM276.769 234.284C276.835 234.414 276.835 234.545 276.704 234.61C276.638 234.676 276.442 234.676 276.376 234.61C276.31 234.48 276.31 234.349 276.376 234.284C276.507 234.218 276.638 234.218 276.769 234.284ZM258.086 218.804C258.217 218.804 258.283 218.934 258.283 219.065C258.283 219.195 258.152 219.261 258.021 219.261C257.889 219.261 257.824 219.13 257.889 218.999C257.824 218.804 257.955 218.738 258.086 218.804ZM263.003 219.783C263.134 219.783 263.199 219.914 263.134 220.045C263.134 220.175 263.003 220.24 262.872 220.175C262.741 220.175 262.675 220.045 262.741 219.914C262.806 219.783 262.872 219.718 263.003 219.783ZM267.985 220.763C268.051 220.763 268.051 220.763 268.116 220.828C268.182 220.894 268.182 220.959 268.182 221.024C268.182 221.155 268.051 221.22 267.919 221.22C267.788 221.22 267.723 221.09 267.788 220.959C267.788 220.894 267.854 220.894 267.854 220.828C267.854 220.763 267.919 220.698 267.985 220.763ZM272.902 221.743C273.033 221.743 273.098 221.873 273.033 222.004C273.033 222.135 272.902 222.2 272.771 222.2C272.639 222.2 272.574 222.069 272.574 221.939C272.705 221.743 272.836 221.677 272.902 221.743ZM262.347 239.64C262.413 239.705 262.413 239.836 262.282 239.901C262.216 239.966 262.085 239.966 262.019 239.836C261.954 239.705 261.954 239.64 262.085 239.509C262.151 239.509 262.282 239.509 262.347 239.64ZM266.543 236.831C266.608 236.896 266.608 237.027 266.477 237.092C266.412 237.158 266.281 237.158 266.215 237.027C266.149 236.962 266.149 236.831 266.281 236.766C266.346 236.7 266.477 236.766 266.543 236.831ZM270.738 234.022C270.804 234.088 270.804 234.218 270.673 234.284C270.607 234.349 270.476 234.349 270.411 234.218C270.345 234.153 270.345 234.022 270.476 233.957C270.542 233.892 270.673 233.957 270.738 234.022ZM274.934 231.214C274.999 231.279 274.934 231.41 274.868 231.475C274.803 231.54 274.672 231.54 274.606 231.41C274.541 231.344 274.541 231.214 274.672 231.148C274.737 231.148 274.868 231.148 274.934 231.214ZM279.129 228.47C279.195 228.601 279.195 228.666 279.064 228.797C278.998 228.862 278.867 228.862 278.802 228.732C278.736 228.666 278.736 228.536 278.867 228.47C278.933 228.34 279.064 228.34 279.129 228.47ZM260.643 228.862C260.643 228.993 260.577 229.058 260.446 229.124C260.315 229.124 260.249 229.058 260.184 228.993C260.184 228.862 260.249 228.797 260.315 228.732C260.512 228.666 260.643 228.732 260.643 228.862ZM265.559 227.883C265.559 228.013 265.494 228.079 265.363 228.144C265.232 228.144 265.166 228.079 265.101 228.013C265.101 227.883 265.166 227.817 265.232 227.752C265.428 227.687 265.559 227.752 265.559 227.883ZM270.542 226.838C270.542 226.968 270.476 227.033 270.411 227.099C270.279 227.099 270.214 227.033 270.148 226.903C270.148 226.772 270.214 226.707 270.279 226.642C270.411 226.707 270.476 226.772 270.542 226.838ZM275.458 225.858C275.458 225.988 275.393 226.054 275.327 226.119C275.262 226.119 275.262 226.119 275.196 226.119C275.13 226.119 275.065 226.054 275.065 225.988C275.065 225.858 275.13 225.792 275.262 225.727C275.327 225.727 275.458 225.792 275.458 225.858ZM280.44 224.878C280.44 224.943 280.44 224.943 280.44 225.009C280.375 225.009 280.375 225.074 280.375 225.139H280.309C280.178 225.139 280.113 225.074 280.047 225.009C280.047 224.878 280.113 224.813 280.244 224.747C280.309 224.682 280.44 224.813 280.44 224.878ZM273.951 240.619C274.016 240.685 274.082 240.815 274.016 240.946C273.951 241.011 273.819 241.077 273.754 241.011C273.688 240.946 273.623 240.815 273.688 240.75C273.754 240.554 273.885 240.554 273.951 240.619ZM269.886 227.295C269.886 227.36 269.886 227.425 269.821 227.425C269.755 227.425 269.689 227.425 269.689 227.36C269.689 227.295 269.689 227.229 269.755 227.229C269.821 227.229 269.886 227.229 269.886 227.295ZM272.639 226.184C272.639 226.25 272.639 226.315 272.574 226.315C272.508 226.315 272.443 226.315 272.443 226.25C272.443 226.184 272.443 226.119 272.508 226.054C272.574 226.054 272.639 226.119 272.639 226.184ZM275.393 225.009C275.393 225.074 275.393 225.139 275.327 225.139C275.262 225.139 275.196 225.139 275.196 225.074C275.196 225.009 275.196 224.943 275.262 224.943C275.327 224.943 275.393 224.943 275.393 225.009ZM278.146 223.898C278.146 223.964 278.146 224.029 278.08 224.029C278.015 224.029 277.949 224.029 277.949 223.964C277.949 223.898 277.949 223.833 278.015 223.833C278.08 223.768 278.146 223.833 278.146 223.898ZM270.148 220.894C270.214 220.894 270.279 220.959 270.279 221.024C270.279 221.09 270.214 221.155 270.148 221.155C270.083 221.155 270.017 221.09 270.017 221.024C270.017 220.959 270.083 220.894 270.148 220.894ZM274.541 231.41C274.606 231.475 274.606 231.54 274.541 231.54C274.475 231.606 274.409 231.606 274.344 231.54C274.278 231.475 274.278 231.41 274.344 231.344C274.409 231.344 274.475 231.344 274.541 231.41ZM276.638 229.32C276.704 229.385 276.704 229.45 276.638 229.45C276.573 229.516 276.507 229.516 276.442 229.45C276.376 229.385 276.376 229.32 276.442 229.254C276.507 229.254 276.573 229.254 276.638 229.32ZM278.736 227.229C278.802 227.295 278.802 227.36 278.736 227.425C278.67 227.491 278.605 227.491 278.539 227.425C278.474 227.36 278.474 227.295 278.539 227.229C278.605 227.164 278.67 227.164 278.736 227.229ZM280.768 225.074C280.834 225.074 280.834 225.074 280.834 225.074C280.899 225.139 280.899 225.205 280.834 225.27H280.768C280.703 225.27 280.703 225.27 280.637 225.27C280.572 225.205 280.572 225.139 280.637 225.074C280.703 225.074 280.703 225.074 280.768 225.074ZM269.034 227.817C269.099 227.883 269.034 227.948 268.968 228.013C268.903 228.079 268.837 228.013 268.772 227.948C268.706 227.883 268.706 227.817 268.772 227.752C268.903 227.752 268.968 227.752 269.034 227.817ZM271.853 225.988C271.918 226.054 271.853 226.119 271.787 226.184C271.722 226.25 271.656 226.184 271.591 226.119C271.525 226.054 271.591 225.988 271.656 225.923C271.722 225.923 271.853 225.923 271.853 225.988ZM274.737 224.16C274.803 224.225 274.737 224.29 274.672 224.355C274.606 224.421 274.541 224.355 274.475 224.29C274.409 224.225 274.475 224.16 274.475 224.094C274.606 224.094 274.672 224.094 274.737 224.16ZM267.919 220.698C267.985 220.698 268.051 220.698 268.116 220.828C268.116 220.894 268.051 220.959 267.985 220.959C267.919 220.959 267.854 220.959 267.788 220.828V220.763C267.788 220.698 267.854 220.698 267.919 220.698ZM275.065 231.606C275.13 231.671 275.13 231.736 275.13 231.802C275.065 231.867 274.999 231.867 274.934 231.867C274.868 231.802 274.868 231.736 274.868 231.671C274.868 231.606 274.999 231.54 275.065 231.606ZM276.966 228.797C277.032 228.862 277.032 228.928 277.032 228.993C276.966 229.058 276.9 229.058 276.835 229.058C276.769 228.993 276.769 228.928 276.769 228.862C276.835 228.797 276.9 228.732 276.966 228.797ZM278.867 225.988C278.933 226.054 278.933 226.119 278.933 226.184C278.867 226.25 278.802 226.25 278.736 226.184C278.67 226.119 278.67 226.054 278.67 225.988C278.736 225.988 278.802 225.988 278.867 225.988ZM253.038 220.959C253.038 221.09 252.973 221.22 252.842 221.22C252.711 221.22 252.58 221.155 252.58 221.024C252.58 220.894 252.645 220.763 252.776 220.763C252.907 220.698 253.038 220.828 253.038 220.959ZM258.742 219.718C258.742 219.849 258.676 219.979 258.545 219.979C258.414 219.979 258.283 219.914 258.283 219.783C258.283 219.653 258.348 219.522 258.479 219.522C258.611 219.522 258.742 219.587 258.742 219.718ZM264.445 218.542C264.445 218.673 264.379 218.804 264.248 218.804C264.117 218.804 263.986 218.738 263.986 218.608C263.986 218.477 264.052 218.346 264.183 218.346C264.314 218.346 264.445 218.412 264.445 218.542ZM266.805 240.946C266.936 241.011 266.936 241.142 266.871 241.273C266.805 241.403 266.674 241.403 266.543 241.338C266.412 241.273 266.412 241.142 266.477 241.011C266.543 240.946 266.674 240.881 266.805 240.946ZM270.017 236.113C270.148 236.178 270.148 236.309 270.083 236.439C270.017 236.57 269.886 236.57 269.755 236.504C269.624 236.439 269.624 236.309 269.689 236.178C269.755 236.047 269.886 236.047 270.017 236.113ZM273.164 231.214C273.295 231.279 273.295 231.41 273.229 231.54C273.164 231.671 273.033 231.671 272.902 231.606C272.771 231.54 272.771 231.41 272.836 231.279C272.902 231.214 273.033 231.148 273.164 231.214ZM276.376 226.38C276.507 226.446 276.507 226.576 276.442 226.707C276.376 226.838 276.245 226.838 276.114 226.772C275.983 226.707 275.983 226.576 276.048 226.446C276.114 226.315 276.245 226.315 276.376 226.38ZM259.987 230.43C260.053 230.561 260.053 230.691 259.922 230.757C259.791 230.822 259.659 230.822 259.594 230.691C259.528 230.561 259.528 230.43 259.659 230.365C259.725 230.299 259.922 230.299 259.987 230.43ZM264.773 227.164C264.838 227.295 264.838 227.425 264.707 227.491C264.576 227.556 264.445 227.556 264.379 227.425C264.314 227.295 264.314 227.164 264.445 227.099C264.576 227.033 264.707 227.033 264.773 227.164ZM269.624 223.898C269.689 224.029 269.689 224.16 269.558 224.225C269.427 224.29 269.296 224.29 269.231 224.16C269.165 224.029 269.165 223.898 269.296 223.833C269.362 223.768 269.493 223.768 269.624 223.898ZM256.972 227.817C257.037 227.948 257.037 228.079 256.906 228.144C256.775 228.209 256.644 228.209 256.578 228.079C256.513 227.948 256.513 227.817 256.644 227.752C256.71 227.687 256.906 227.687 256.972 227.817ZM261.888 224.747C261.954 224.878 261.888 225.009 261.823 225.074C261.692 225.139 261.561 225.074 261.495 225.009C261.429 224.878 261.429 224.747 261.561 224.682C261.692 224.617 261.823 224.617 261.888 224.747ZM266.805 221.677C266.871 221.808 266.871 221.939 266.739 222.004C266.608 222.069 266.477 222.069 266.412 221.939C266.346 221.808 266.346 221.677 266.477 221.612C266.608 221.547 266.739 221.612 266.805 221.677ZM279.326 230.626C279.457 230.626 279.523 230.757 279.523 230.887C279.523 231.018 279.392 231.083 279.26 231.083C279.129 231.083 279.064 230.952 279.064 230.822C279.064 230.626 279.195 230.561 279.326 230.626ZM280.637 224.943C280.703 224.943 280.768 225.009 280.768 225.074C280.834 225.139 280.834 225.205 280.834 225.27V225.335C280.768 225.466 280.637 225.531 280.506 225.466C280.375 225.401 280.309 225.27 280.375 225.205C280.375 225.139 280.44 225.139 280.44 225.074C280.506 224.943 280.572 224.943 280.637 224.943ZM267.133 234.284C267.264 234.349 267.264 234.48 267.198 234.61C267.133 234.741 267.002 234.741 266.871 234.676C266.739 234.61 266.739 234.48 266.805 234.349C266.871 234.218 267.067 234.153 267.133 234.284ZM270.542 229.581C270.673 229.646 270.673 229.777 270.607 229.907C270.542 230.038 270.411 230.038 270.279 229.973C270.148 229.907 270.148 229.777 270.214 229.646C270.279 229.516 270.411 229.45 270.542 229.581ZM273.885 224.878C274.016 224.943 274.016 225.074 273.951 225.205C273.885 225.335 273.754 225.335 273.623 225.27C273.492 225.205 273.492 225.074 273.557 224.943C273.623 224.813 273.819 224.747 273.885 224.878ZM266.281 224.29C266.346 224.355 266.346 224.486 266.281 224.551C266.215 224.617 266.084 224.617 266.018 224.551C265.953 224.486 265.953 224.355 266.018 224.29C266.084 224.225 266.215 224.225 266.281 224.29ZM269.427 221.286C269.493 221.351 269.493 221.482 269.427 221.547C269.362 221.612 269.231 221.612 269.165 221.547C269.099 221.482 269.099 221.351 269.165 221.286C269.231 221.22 269.362 221.22 269.427 221.286ZM274.803 227.621C274.868 227.687 274.934 227.752 274.934 227.817C274.868 227.883 274.803 227.948 274.672 227.948C274.606 227.883 274.541 227.817 274.606 227.687C274.606 227.621 274.737 227.556 274.803 227.621ZM276.573 223.637C276.638 223.702 276.704 223.768 276.638 223.898C276.573 223.964 276.507 224.029 276.376 223.964C276.31 223.898 276.245 223.833 276.31 223.702C276.376 223.637 276.507 223.572 276.573 223.637Z" fill="white"/>
<path d="M301.484 153.682C301.484 153.682 324.035 185.884 316.561 218.738C316.561 218.738 292.109 230.561 270.214 209.463C270.214 209.463 290.405 170.077 291.519 158.908L301.484 153.682Z" fill="url(#paint19_linear)"/>
<path d="M243.467 162.369H229.635V172.428C229.635 176.217 232.716 179.352 236.584 179.352C240.386 179.352 243.533 176.282 243.533 172.428L243.467 162.369Z" fill="url(#paint20_linear)"/>
<path d="M237.305 166.55H235.273C234.421 166.55 233.7 167.268 233.7 168.117V178.437H238.813V168.117C238.879 167.268 238.157 166.55 237.305 166.55Z" fill="url(#paint21_linear)"/>
<path d="M245.106 180.985C245.106 180.985 241.173 173.408 238.879 171.971C238.879 171.971 238.879 177.196 236.519 177.131C233.765 177.066 233.634 172.298 233.765 170.012C233.831 168.379 234.027 168.509 232.52 168.967C231.536 169.293 225.899 172.036 227.013 179.613C228.128 187.19 239.337 187.255 240.845 188.17C241.501 188.562 242.156 188.954 242.812 189.345L245.106 180.985Z" fill="url(#paint22_linear)"/>
<path d="M291.454 158.908L301.484 153.682L298.403 147.02C295.649 148.588 292.503 149.306 289.356 149.045C289.88 150.482 292.044 156.883 291.454 158.908Z" fill="url(#paint23_linear)"/>
<path d="M301.484 153.682C301.484 153.682 290.339 154.401 285.882 168.444C281.424 182.487 280.375 193.199 270.935 191.37C261.495 189.541 251.006 184.577 245.303 180.136L239.01 204.107C239.01 204.107 244.778 212.729 253.17 213.513C261.561 214.297 267.854 219.261 272.77 221.351C277.687 223.441 288.963 226.838 294.469 218.999C299.976 211.161 308.891 186.145 307.58 164.198C305.81 160.606 303.778 157.079 301.484 153.682Z" fill="url(#paint24_linear)"/>
<path d="M275.458 258.255H335.834L351.043 177.392C352.158 171.383 348.224 165.57 342.128 164.46C341.472 164.329 340.751 164.264 340.095 164.264H302.401C297.026 164.264 292.437 168.052 291.454 173.277L275.458 258.255Z" fill="url(#paint25_linear)"/>
<path d="M280.113 141.533C280.113 141.533 281.62 147.412 287.717 148.783C292.634 149.894 296.895 147.804 298.403 146.955C298.271 146.759 295.977 142.905 298.403 141.337C300.894 139.704 300.894 138.855 300.959 137.68C301.025 136.504 299.255 134.871 296.305 135.851C293.355 136.896 290.405 134.348 290.208 130.821C287.193 131.344 284.177 131.148 281.293 130.233C280.899 131.148 278.736 136.765 277.818 138.333C276.769 140.031 279.26 141.403 280.113 141.533Z" fill="#FFBEB6"/>
<path d="M275.655 130.168C275.983 129.972 276.376 129.841 276.769 129.841C277.818 129.841 278.933 130.691 279.457 132.128C279.523 132.324 279.588 132.585 279.654 132.846C279.85 132.781 280.047 132.715 280.309 132.715C281.03 132.715 281.686 132.911 282.276 133.303C282.276 133.173 282.276 133.042 282.342 132.911C282.473 132.128 282.8 131.409 283.325 130.821C283.456 130.625 283.653 130.495 283.849 130.364C285.029 129.646 286.406 129.972 287.389 131.148C287.783 131.605 288.045 132.062 288.307 132.65C288.7 133.695 288.832 134.871 288.635 136.047C288.504 136.83 288.11 137.614 287.586 138.202C287.455 138.333 287.324 138.463 287.127 138.594C286.406 139.051 285.423 139.117 284.636 138.659C283.718 138.137 283.063 137.288 282.735 136.308C282.473 135.524 282.276 134.74 282.342 133.956C281.752 133.499 280.965 133.238 280.244 133.303C280.178 133.303 280.047 133.369 279.982 133.369C279.982 133.434 279.982 133.434 279.982 133.499C279.982 133.565 279.982 133.63 279.982 133.63C279.982 133.76 279.982 133.891 279.916 134.022C279.457 135.132 278.998 136.243 278.605 137.092C277.294 137.941 275.589 137.092 274.803 135.132C273.885 133.303 274.344 131.017 275.655 130.168ZM283.063 135.981C283.39 136.83 283.98 137.614 284.767 138.071C285.423 138.463 286.209 138.398 286.799 138.006C287.455 137.484 287.914 136.765 288.045 135.916C288.242 134.936 288.11 133.891 287.783 132.911C287.52 132.258 287.127 131.605 286.537 131.148C285.882 130.495 284.833 130.364 283.98 130.887L283.915 130.952C283.784 131.017 283.718 131.082 283.587 131.213C283.128 131.736 282.8 132.324 282.669 132.977C282.604 133.956 282.669 135.002 283.063 135.981ZM275.065 134.936C275.72 136.569 277.097 137.353 278.212 136.634C279.326 135.916 279.654 134.022 278.998 132.389C278.343 130.756 276.966 129.972 275.852 130.691C274.803 131.344 274.409 133.303 275.065 134.936Z" fill="white"/>
<path d="M272.508 116.386C272.574 116.255 272.705 116.19 272.836 116.255C272.967 116.321 273.033 116.451 273.033 116.517C270.542 124.812 277.032 130.168 284.243 130.952C281.03 130.495 277.294 129.058 274.868 125.073C270.017 117.039 277.097 113.969 281.162 116.125C285.226 118.28 288.11 122.461 288.11 122.461C288.11 122.461 294.469 117.497 304.761 121.611C315.053 125.726 311.251 138.202 307.58 141.795C303.909 145.387 298.403 146.955 298.403 146.955C298.403 146.955 295.911 142.97 298.403 141.337C300.894 139.704 300.894 138.855 300.959 137.68C301.025 136.504 299.255 134.871 296.305 135.851C293.42 136.83 290.536 134.414 290.208 131.017C285.423 132.193 280.244 131.801 276.311 128.535C272.639 125.726 271.132 120.828 272.508 116.386Z" fill="#428DFC"/>
<path d="M67.5522 225.487C67.6539 225.365 67.7555 225.243 67.8572 225.121C67.7898 225.117 67.7216 225.116 67.6539 225.112C68.6253 221.136 66.7126 216.924 64.0154 213.825C62.8198 212.451 61.4057 211.181 59.6689 210.637C57.8563 210.069 55.8892 210.352 54.0484 210.82C48.6769 212.186 43.711 215.116 39.9145 219.159C38.6813 220.473 37.4991 222.162 37.8495 223.931C38.2411 225.907 40.465 227.703 39.554 229.498C38.6143 231.349 35.4108 230.676 34.2601 232.403C32.4866 235.063 37.9798 238.254 36.5697 241.123C35.8465 242.594 33.8546 242.717 32.3551 243.375C29.4787 244.635 28.3263 248.741 30.1264 251.318C31.7279 253.611 35.274 255.241 34.6047 257.957C34.3699 258.909 33.6243 259.634 32.9387 260.334C30.6846 262.634 28.7061 265.298 27.7359 268.37C26.7652 271.443 26.909 274.973 28.6449 277.686C29.5342 279.076 30.7867 280.191 32.0648 281.233C38.4343 286.431 40.9015 291.891 46.012 298.334C49.2058 302.359 56.3062 328.151 58.0429 335.407C59.3602 324.847 62.3935 293.441 63.6683 291.698C64.9428 289.955 65.606 287.506 64.5218 285.638C63.7312 284.277 62.2244 283.541 60.9406 282.631C59.6571 281.722 58.4447 280.29 58.7538 278.747C58.8963 278.034 59.3476 277.425 59.8066 276.862C61.2664 275.074 62.9623 273.44 64.0248 271.389C65.0874 269.339 65.3912 266.678 64.0305 264.812C62.754 263.062 60.3003 262.292 58.3855 261.218C60.0197 259.963 62.418 259.107 63.777 257.487C64.8138 256.252 65.1931 254.493 64.7578 252.94C64.2988 251.3 63.0579 250.033 62.0635 248.641C62.2685 247.832 62.2077 247.02 61.7279 246.286C61.473 245.896 61.1304 245.589 60.7384 245.33C60.6857 244.51 60.8695 243.719 61.413 243.091C62.2416 242.134 63.643 241.877 64.561 241.005C66.0164 239.623 65.5251 236.791 63.69 235.981C62.634 235.515 61.0769 235.394 60.9054 234.251C60.8854 234.118 60.8932 233.988 60.916 233.861C63.6361 231.334 66.5435 228.951 67.5522 225.487Z" fill="url(#paint26_linear)"/>
<path d="M81.7007 286C80.9469 284.11 79.1959 282.653 78.8451 280.648C78.3363 277.737 80.8938 275.332 82.5399 272.879C85.021 269.183 85.5927 264.272 84.0271 260.104C82.4615 255.937 78.7998 252.62 74.5019 251.478C71.7675 250.752 68.7556 250.83 66.325 249.379C63.015 247.405 60.3733 242.668 56.741 243.955C54.2015 244.855 53.6049 248.318 54.4445 250.882C55.284 253.445 57.0751 255.622 57.8591 258.203C59.3582 263.135 56.9485 268.293 55.0329 273.078C53.1173 277.863 51.8008 283.771 54.9966 287.812C56.5548 289.783 59.0482 291.065 59.9523 293.41C61.1827 296.599 58.9355 299.943 57.8301 303.177C55.7724 309.197 58.1221 316.444 63.3192 320.106C63.4952 312.445 67.0564 304.924 72.8685 299.939C75.1164 298.011 77.6915 296.435 79.6308 294.195C81.5704 291.954 82.7983 288.754 81.7007 286Z" fill="url(#paint27_linear)"/>
<path d="M55.1162 331.755C55.0999 331.755 55.0836 331.754 55.0676 331.752C54.8777 331.725 54.7454 331.549 54.7724 331.359C56.4262 319.599 58.9172 308.562 62.1762 298.557C62.2354 298.374 62.4322 298.275 62.614 298.334C62.7961 298.394 62.8957 298.59 62.8361 298.773C59.5889 308.739 57.1073 319.736 55.4592 331.457C55.4347 331.63 55.2861 331.755 55.1162 331.755Z" fill="#23286B"/>
<path d="M58.4394 293.861C59.4354 292.393 62.1566 292.504 64.5169 294.11C66.8776 295.716 67.9838 298.208 66.9878 299.677C65.9919 301.145 63.2706 301.034 60.9103 299.428C58.5497 297.822 57.4434 295.329 58.4394 293.861Z" fill="#C6DDFE"/>
<path d="M63.2485 296.787C63.2114 296.787 63.1734 296.782 63.1358 296.769C62.9545 296.707 62.8582 296.509 62.9198 296.327C64.5953 291.43 66.4974 286.672 68.5722 282.186C68.6526 282.011 68.8593 281.936 69.0328 282.016C69.2064 282.097 69.2827 282.303 69.2023 282.477C67.1369 286.941 65.2441 291.677 63.5764 296.551C63.5274 296.697 63.3927 296.787 63.2485 296.787Z" fill="#23286B"/>
<path d="M63.2984 276.137C64.2943 274.668 67.9899 275.443 71.5528 277.867C75.1156 280.29 77.1962 283.445 76.2002 284.914C75.2042 286.382 71.5087 285.608 67.9458 283.184C64.3834 280.76 62.3024 277.605 63.2984 276.137Z" fill="#C6DDFE"/>
<path d="M69.6168 281.13C69.5662 281.13 69.5155 281.118 69.4669 281.095C69.2942 281.013 69.2215 280.805 69.3036 280.632C69.932 279.318 70.585 278.007 71.2445 276.735C73.0572 273.241 75.0417 269.819 77.1443 266.565C77.2481 266.404 77.4633 266.357 77.6242 266.461C77.785 266.566 77.8312 266.78 77.7271 266.942C75.6371 270.178 73.6631 273.581 71.8603 277.055C71.2041 278.32 70.5544 279.624 69.9292 280.931C69.8704 281.057 69.7458 281.13 69.6168 281.13Z" fill="#23286B"/>
<path d="M71.5581 258.988C72.7362 257.813 76.4656 259.648 79.8884 263.087C83.3112 266.526 85.1309 270.268 83.9532 271.443C82.7751 272.619 79.0456 270.784 75.6228 267.344C72.2 263.905 70.3804 260.164 71.5581 258.988Z" fill="#C6DDFE"/>
<path d="M78.529 265.438C78.4625 265.438 78.3955 265.419 78.3359 265.379C78.1766 265.272 78.1342 265.057 78.2407 264.897C81.0551 260.694 84.1259 256.695 87.367 253.011C87.494 252.867 87.7125 252.854 87.857 252.98C88.0003 253.107 88.0146 253.327 87.8881 253.471C84.667 257.132 81.6154 261.107 78.8173 265.285C78.7504 265.385 78.6409 265.438 78.529 265.438Z" fill="#23286B"/>
<path d="M84.277 241.08C86.3571 240.171 90.1863 244.359 92.8299 250.432C95.4736 256.506 95.9301 262.165 93.8504 263.073C91.7702 263.981 87.9411 259.794 85.2975 253.72C82.6538 247.647 82.1973 241.988 84.277 241.08Z" fill="#C6DDFE"/>
<path d="M89.3324 251.697C89.2479 251.697 89.1633 251.666 89.0968 251.604C88.9563 251.474 88.9473 251.254 89.0776 251.113C92.4105 247.502 95.9701 244.151 99.6584 241.155C99.8074 241.034 100.025 241.057 100.147 241.205C100.268 241.354 100.245 241.573 100.096 241.694C96.4332 244.67 92.8981 247.997 89.5872 251.585C89.519 251.659 89.4259 251.697 89.3324 251.697Z" fill="#23286B"/>
<path d="M92.544 229.275C94.293 227.827 99.6849 231.469 104.588 237.408C109.49 243.348 112.047 249.337 110.298 250.785C108.549 252.233 103.157 248.591 98.254 242.651C93.3514 236.712 90.7951 230.722 92.544 229.275Z" fill="#C6DDFE"/>
<path d="M101.706 240.324C101.602 240.324 101.499 240.277 101.431 240.188C101.314 240.036 101.342 239.818 101.494 239.701C103.925 237.822 106.455 236.06 109.012 234.463C109.175 234.362 109.389 234.411 109.491 234.574C109.592 234.737 109.543 234.951 109.38 235.053C106.842 236.638 104.331 238.388 101.918 240.251C101.855 240.3 101.78 240.324 101.706 240.324Z" fill="#23286B"/>
<path d="M61.2799 338.405L60.0254 334.587C59.9658 334.404 60.0646 334.208 60.2467 334.147C60.2937 334.132 60.3423 334.127 60.3884 334.132C59.5628 315.627 59.1201 293.935 61.5767 271.878C61.6935 270.829 61.8177 269.774 61.9463 268.743C61.97 268.553 62.1452 268.421 62.3338 268.441C62.5237 268.465 62.6593 268.638 62.6356 268.829C62.5078 269.858 62.3836 270.91 62.2669 271.956C59.7363 294.669 60.2884 317.007 61.1619 335.864L61.2799 338.405Z" fill="#1D72D8"/>
<path d="M57.6529 268.877C57.3916 267.929 59.2283 266.594 61.7552 265.896C64.2821 265.198 66.5419 265.401 66.8032 266.349C67.0646 267.297 65.2278 268.632 62.7009 269.33C60.1741 270.028 57.9138 269.825 57.6529 268.877Z" fill="#23286B"/>
<path d="M62.4857 267.608C62.4706 267.608 62.4555 267.607 62.4404 267.605C62.2505 267.58 62.1166 267.405 62.1415 267.215C62.9843 260.757 64.0779 254.437 65.3912 248.428C65.432 248.241 65.6166 248.122 65.8044 248.163C65.9914 248.204 66.1103 248.389 66.069 248.577C64.7599 254.566 63.67 260.868 62.8296 267.306C62.8063 267.48 62.6573 267.608 62.4857 267.608Z" fill="#1D72D8"/>
<path d="M59.733 249.067C59.4717 248.119 61.845 246.636 65.0335 245.756C68.2219 244.875 71.0183 244.93 71.2796 245.878C71.541 246.826 69.1676 248.308 65.9792 249.189C62.7908 250.07 59.9944 250.015 59.733 249.067Z" fill="#23286B"/>
<path d="M66.0601 247.366C66.0343 247.366 66.0086 247.363 65.9825 247.357C65.7954 247.315 65.6782 247.129 65.7211 246.941C66.9592 241.472 68.4154 236.115 70.0488 231.019C70.1072 230.837 70.3028 230.736 70.4849 230.795C70.6679 230.853 70.7679 231.049 70.7095 231.232C69.0823 236.308 67.6314 241.646 66.3974 247.095C66.3622 247.256 66.2189 247.366 66.0601 247.366Z" fill="#1D72D8"/>
<path d="M70.5372 226.949C66.3777 226.59 62.8967 227.562 62.7622 229.12C62.6276 230.677 65.8905 232.231 70.05 232.59C74.2095 232.949 77.6905 231.977 77.825 230.419C77.9596 228.862 74.6967 227.308 70.5372 226.949Z" fill="#23286B"/>
<path d="M71.0288 229.488C70.9925 229.488 70.9553 229.482 70.919 229.47C70.7369 229.409 70.6393 229.212 70.6997 229.03C71.9133 225.394 73.2491 221.802 74.6701 218.354C74.7436 218.176 74.9458 218.092 75.1234 218.165C75.3006 218.239 75.3847 218.441 75.3116 218.619C73.8967 222.053 72.5667 225.629 71.358 229.25C71.3094 229.396 71.1742 229.488 71.0288 229.488Z" fill="#1D72D8"/>
<path d="M67.5101 215.725C67.7339 214.315 71.4009 213.725 75.7008 214.409C80.0007 215.093 83.3051 216.79 83.0813 218.201C82.8576 219.612 79.1906 220.201 74.8906 219.517C70.5911 218.834 67.2867 217.136 67.5101 215.725Z" fill="#23286B"/>
<path d="M75.6959 217.15C75.6506 217.15 75.6044 217.142 75.5599 217.122C75.3835 217.047 75.3014 216.843 75.3766 216.666C76.299 214.5 77.2758 212.344 78.2795 210.259C78.5837 209.627 78.8921 208.998 79.2049 208.37C79.2906 208.199 79.498 208.129 79.6704 208.215C79.8423 208.3 79.9117 208.509 79.826 208.681C79.5144 209.305 79.2073 209.932 78.9051 210.561C77.9059 212.636 76.934 214.782 76.0152 216.939C75.9589 217.071 75.8311 217.15 75.6959 217.15Z" fill="#1D72D8"/>
<path d="M70.7283 205.547C70.9986 203.841 75.1989 203.091 80.1094 203.872C85.0198 204.653 88.7815 206.668 88.5108 208.374C88.2404 210.08 84.0401 210.83 79.1297 210.05C74.2193 209.269 70.4576 207.253 70.7283 205.547Z" fill="#23286B"/>
<path d="M80.7174 206.518C80.6635 206.518 80.6079 206.505 80.5573 206.478C80.387 206.389 80.3217 206.179 80.4103 206.009C81.2303 204.439 82.0809 202.885 82.938 201.39C83.0336 201.223 83.2459 201.167 83.4121 201.262C83.5783 201.357 83.6359 201.57 83.5403 201.736C82.6877 203.224 81.8416 204.77 81.0257 206.332C80.9636 206.45 80.8423 206.518 80.7174 206.518Z" fill="#1D72D8"/>
<path d="M72.5222 309.639H45.2945V344.064H72.5222V309.639Z" fill="url(#paint28_linear)"/>
<defs>
<linearGradient id="paint0_linear" x1="259.807" y1="278.631" x2="260.125" y2="185.128" gradientUnits="userSpaceOnUse">
<stop stop-color="#EEEEEE"/>
<stop offset="1" stop-color="#DCE3EA"/>
</linearGradient>
<linearGradient id="paint1_linear" x1="65.9889" y1="311.999" x2="66.3075" y2="218.496" gradientUnits="userSpaceOnUse">
<stop stop-color="#EEEEEE"/>
<stop offset="1" stop-color="#DCE3EA"/>
</linearGradient>
<linearGradient id="paint2_linear" x1="133.945" y1="325.591" x2="134.264" y2="232.088" gradientUnits="userSpaceOnUse">
<stop stop-color="#EEEEEE"/>
<stop offset="1" stop-color="#DCE3EA"/>
</linearGradient>
<linearGradient id="paint3_linear" x1="147.369" y1="220.405" x2="114.228" y2="221.631" gradientUnits="userSpaceOnUse">
<stop stop-color="#EEEEEE"/>
<stop offset="1" stop-color="#DCE3EA"/>
</linearGradient>
<linearGradient id="paint4_linear" x1="40.3536" y1="220.426" x2="101.647" y2="219.815" gradientUnits="userSpaceOnUse">
<stop stop-color="#EEEEEE"/>
<stop offset="1" stop-color="#DCE3EA"/>
</linearGradient>
<linearGradient id="paint5_linear" x1="82.944" y1="144.841" x2="253.44" y2="144.841" gradientUnits="userSpaceOnUse">
<stop stop-color="#EEEEEE"/>
<stop offset="1" stop-color="#D6D7D8"/>
</linearGradient>
<linearGradient id="paint6_linear" x1="269.386" y1="334.795" x2="281.471" y2="351.99" gradientUnits="userSpaceOnUse">
<stop offset="0.0898" stop-color="#EEEEEE"/>
<stop offset="0.8178" stop-color="#D6D7D8"/>
</linearGradient>
<linearGradient id="paint7_linear" x1="240.374" y1="244.592" x2="289.173" y2="249.84" gradientUnits="userSpaceOnUse">
<stop offset="0.14" stop-color="#E94A47"/>
<stop offset="1" stop-color="#C63030"/>
</linearGradient>
<linearGradient id="paint8_linear" x1="291.902" y1="267.383" x2="290.244" y2="250.192" gradientUnits="userSpaceOnUse">
<stop stop-color="#23286B"/>
<stop offset="1" stop-color="#151A4F"/>
</linearGradient>
<linearGradient id="paint9_linear" x1="318.472" y1="255.241" x2="285.695" y2="273.78" gradientUnits="userSpaceOnUse">
<stop stop-color="#23286B"/>
<stop offset="1" stop-color="#151A4F"/>
</linearGradient>
<linearGradient id="paint10_linear" x1="290.793" y1="294.693" x2="292.152" y2="341.609" gradientUnits="userSpaceOnUse">
<stop stop-color="#23286B"/>
<stop offset="1" stop-color="#151A4F"/>
</linearGradient>
<linearGradient id="paint11_linear" x1="270.041" y1="326.813" x2="292.887" y2="320.086" gradientUnits="userSpaceOnUse">
<stop stop-color="#23286B"/>
<stop offset="1" stop-color="#151A4F"/>
</linearGradient>
<linearGradient id="paint12_linear" x1="330.314" y1="309.649" x2="312.031" y2="326.218" gradientUnits="userSpaceOnUse">
<stop stop-color="#23286B"/>
<stop offset="1" stop-color="#151A4F"/>
</linearGradient>
<linearGradient id="paint13_linear" x1="305.024" y1="336.213" x2="326.176" y2="353.289" gradientUnits="userSpaceOnUse">
<stop offset="0.0898" stop-color="#EEEEEE"/>
<stop offset="0.8178" stop-color="#D6D7D8"/>
</linearGradient>
<linearGradient id="paint14_linear" x1="249.684" y1="333.715" x2="265.915" y2="351.081" gradientUnits="userSpaceOnUse">
<stop offset="0.0898" stop-color="#EEEEEE"/>
<stop offset="0.8178" stop-color="#D6D7D8"/>
</linearGradient>
<linearGradient id="paint15_linear" x1="297.454" y1="321.183" x2="251.075" y2="339.162" gradientUnits="userSpaceOnUse">
<stop offset="0.1291" stop-color="#428DFC"/>
<stop offset="0.9987" stop-color="#1D72D8"/>
</linearGradient>
<linearGradient id="paint16_linear" x1="341.413" y1="275.53" x2="236.246" y2="263.249" gradientUnits="userSpaceOnUse">
<stop stop-color="#23286B"/>
<stop offset="1" stop-color="#151A4F"/>
</linearGradient>
<linearGradient id="paint17_linear" x1="322.222" y1="333.367" x2="335.072" y2="351.484" gradientUnits="userSpaceOnUse">
<stop offset="0.0898" stop-color="#EEEEEE"/>
<stop offset="0.8178" stop-color="#D6D7D8"/>
</linearGradient>
<linearGradient id="paint18_linear" x1="241.673" y1="278.409" x2="326.464" y2="217.151" gradientUnits="userSpaceOnUse">
<stop stop-color="#23286B"/>
<stop offset="1" stop-color="#151A4F"/>
</linearGradient>
<linearGradient id="paint19_linear" x1="318.079" y1="187.861" x2="270.214" y2="187.861" gradientUnits="userSpaceOnUse">
<stop stop-color="#A1C3FC"/>
<stop offset="0.6955" stop-color="#81AEF2"/>
<stop offset="1" stop-color="#78A9EF"/>
</linearGradient>
<linearGradient id="paint20_linear" x1="242.111" y1="151.946" x2="233.601" y2="176.816" gradientUnits="userSpaceOnUse">
<stop offset="0.14" stop-color="#E94A47"/>
<stop offset="1" stop-color="#C63030"/>
</linearGradient>
<linearGradient id="paint21_linear" x1="236.003" y1="167.314" x2="236.84" y2="186.741" gradientUnits="userSpaceOnUse">
<stop offset="0.14" stop-color="#E94A47"/>
<stop offset="1" stop-color="#C63030"/>
</linearGradient>
<linearGradient id="paint22_linear" x1="230.768" y1="187.591" x2="248.318" y2="162.931" gradientUnits="userSpaceOnUse">
<stop stop-color="#FFBEB6"/>
<stop offset="1" stop-color="#F2A19C"/>
</linearGradient>
<linearGradient id="paint23_linear" x1="299.471" y1="161.444" x2="290.798" y2="145.136" gradientUnits="userSpaceOnUse">
<stop stop-color="#FFBEB6"/>
<stop offset="1" stop-color="#F2A19C"/>
</linearGradient>
<linearGradient id="paint24_linear" x1="266.531" y1="202.587" x2="308.705" y2="167.862" gradientUnits="userSpaceOnUse">
<stop stop-color="#A1C3FC"/>
<stop offset="0.6955" stop-color="#81AEF2"/>
<stop offset="1" stop-color="#78A9EF"/>
</linearGradient>
<linearGradient id="paint25_linear" x1="298.127" y1="184.067" x2="347.97" y2="287.89" gradientUnits="userSpaceOnUse">
<stop offset="0.14" stop-color="#E94A47"/>
<stop offset="1" stop-color="#C63030"/>
</linearGradient>
<linearGradient id="paint26_linear" x1="27.136" y1="272.863" x2="67.9104" y2="272.863" gradientUnits="userSpaceOnUse">
<stop stop-color="#B9D3FD"/>
<stop offset="1" stop-color="#89B3F4"/>
</linearGradient>
<linearGradient id="paint27_linear" x1="53.0655" y1="281.921" x2="84.8986" y2="281.921" gradientUnits="userSpaceOnUse">
<stop stop-color="#DEEAFE"/>
<stop offset="1" stop-color="#E9F1FE"/>
</linearGradient>
<linearGradient id="paint28_linear" x1="45.2946" y1="326.851" x2="72.5224" y2="326.851" gradientUnits="userSpaceOnUse">
<stop stop-color="#EEEEEE"/>
<stop offset="1" stop-color="#D6D7D8"/>
</linearGradient>
</defs>
</svg>
