<svg width="689" height="459" viewBox="0 0 689 459" fill="none" xmlns="http://www.w3.org/2000/svg">
<g clip-path="url(#clip0)">
<path d="M400.313 300.507H289.252V424.11H400.313V300.507Z" fill="#D6D7D8"/>
<path d="M469.14 420.102H220.425V429.685H469.14V420.102Z" fill="#428DFC"/>
<path d="M584.501 64.2519H96.46V380.301H584.501V64.2519Z" fill="url(#paint0_linear)"/>
<path d="M575.898 72.1324H105.063V332.416H575.898V72.1324Z" fill="white"/>
<path d="M548.593 369.784C556.276 369.784 562.504 363.554 562.504 355.87C562.504 348.185 556.276 341.955 548.593 341.955C540.91 341.955 534.682 348.185 534.682 355.87C534.682 363.554 540.91 369.784 548.593 369.784Z" fill="#EEEEEE"/>
<path d="M133.419 113.588C149.157 113.588 161.915 100.8 161.915 85.0252C161.915 69.2504 149.157 56.4623 133.419 56.4623C117.681 56.4623 104.923 69.2504 104.923 85.0252C104.923 100.8 117.681 113.588 133.419 113.588Z" fill="#A1C3FC"/>
<path d="M141.786 67.558H155.958C155.182 66.5541 154.345 65.6013 153.445 64.7108H141.786C141.786 64.7108 141.786 67.558 141.786 67.558Z" fill="#428DFC"/>
<path d="M141.786 74.3929H159.866C159.475 73.4164 159.036 72.4648 158.543 71.5457H141.785V74.3929H141.786Z" fill="#428DFC"/>
<path d="M141.786 81.2271H161.656C161.528 80.2612 161.352 79.3115 161.13 78.3799H141.786V81.2271Z" fill="#428DFC"/>
<path d="M141.786 88.062H161.753C161.852 87.1254 161.904 86.1751 161.91 85.2148H141.786C141.786 85.2142 141.786 88.062 141.786 88.062Z" fill="#428DFC"/>
<path d="M141.786 94.8962H160.166C160.506 93.969 160.799 93.018 161.044 92.0484H141.786V94.8962Z" fill="#428DFC"/>
<path d="M141.786 101.731H156.526C157.183 100.82 157.788 99.8704 158.336 98.8833H141.786V101.731Z" fill="#428DFC"/>
<path d="M123.888 108.565H149.554C150.795 107.709 151.961 106.755 153.05 105.718H123.888V108.565Z" fill="#428DFC"/>
<path d="M133.419 113.588C136.052 113.588 138.599 113.223 141.019 112.552H125.818C128.239 113.223 130.785 113.588 133.419 113.588Z" fill="#428DFC"/>
<path d="M130.861 111.31C146.128 111.31 158.505 98.9047 158.505 83.6016C158.505 68.2986 146.128 55.893 130.861 55.893C115.594 55.893 103.218 68.2986 103.218 83.6016C103.218 98.9047 115.594 111.31 130.861 111.31Z" fill="#78A9EF"/>
<path d="M130.862 107.072C117.951 107.072 107.447 96.5431 107.447 83.6004C107.447 83.4246 107.589 83.2818 107.764 83.2818C107.939 83.2818 108.082 83.4246 108.082 83.6004C108.082 96.1914 118.301 106.435 130.862 106.435C143.422 106.435 153.642 96.1914 153.642 83.6004C153.642 71.0101 143.422 60.7668 130.862 60.7668C130.686 60.7668 130.544 60.624 130.544 60.4482C130.544 60.2723 130.687 60.1295 130.862 60.1295C143.773 60.1295 154.277 70.6577 154.277 83.6004C154.277 96.5431 143.773 107.072 130.862 107.072Z" fill="#AFCCFC"/>
<path d="M114.37 75.9754C115.289 78.012 113.966 80.6016 113.966 80.6016C113.966 80.6016 111.151 79.8895 110.231 77.853C109.312 75.8164 110.636 73.2267 110.636 73.2267C110.636 73.2267 113.45 73.9395 114.37 75.9754Z" fill="#A1C3FC"/>
<path d="M114.264 84.6224C116.073 85.9288 116.212 88.8358 116.212 88.8358C116.212 88.8358 113.418 89.624 111.609 88.317C109.799 87.0107 109.66 84.1036 109.66 84.1036C109.66 84.1036 112.455 83.3154 114.264 84.6224Z" fill="#A1C3FC"/>
<path d="M116.367 92.4887C118.583 92.7375 120.126 95.2024 120.126 95.2024C120.126 95.2024 118.077 97.2633 115.861 97.0138C113.644 96.765 112.101 94.3001 112.101 94.3001C112.101 94.3001 114.15 92.2392 116.367 92.4887Z" fill="#A1C3FC"/>
<path d="M145.285 76.6127C144.366 78.6493 145.69 81.239 145.69 81.239C145.69 81.239 148.504 80.5268 149.424 78.4903C150.344 76.4537 149.02 73.8641 149.02 73.8641C149.02 73.8641 146.205 74.5762 145.285 76.6127Z" fill="#97BDF3"/>
<path d="M114.781 79.7979C113.861 81.8345 115.185 84.4241 115.185 84.4241C115.185 84.4241 118 83.712 118.919 81.6755C119.839 79.6389 118.515 77.0493 118.515 77.0493C118.515 77.0493 115.7 77.7614 114.781 79.7979Z" fill="#A1C3FC"/>
<path d="M145.392 85.2596C143.583 86.566 143.444 89.4731 143.444 89.4731C143.444 89.4731 146.238 90.2612 148.047 88.9542C149.857 87.6479 149.996 84.7408 149.996 84.7408C149.996 84.7408 147.201 83.9526 145.392 85.2596Z" fill="#A1C3FC"/>
<path d="M117.514 87.0992C116.259 88.9475 117.12 91.726 117.12 91.726C117.12 91.726 120.015 91.5097 121.27 89.6614C122.525 87.8132 121.664 85.0346 121.664 85.0346C121.664 85.0346 118.769 85.2522 117.514 87.0992Z" fill="#97BDF3"/>
<path d="M143.289 93.1253C141.073 93.3741 139.529 95.8391 139.529 95.8391C139.529 95.8391 141.579 97.9 143.795 97.6505C146.011 97.4017 147.555 94.9368 147.555 94.9368C147.555 94.9368 145.505 92.8765 143.289 93.1253Z" fill="#A1C3FC"/>
<path d="M121.207 95.5797C120.147 97.5464 121.285 100.223 121.285 100.223C121.285 100.223 124.143 99.7108 125.202 97.7441C126.262 95.7773 125.124 93.101 125.124 93.101C125.124 93.101 122.267 93.613 121.207 95.5797Z" fill="#A1C3FC"/>
<path d="M145.03 80.4346C145.95 82.4711 144.626 85.0608 144.626 85.0608C144.626 85.0608 141.812 84.3487 140.892 82.3121C139.972 80.2756 141.296 77.6859 141.296 77.6859C141.296 77.6859 144.111 78.3986 145.03 80.4346Z" fill="#97BDF3"/>
<path d="M142.298 87.7365C143.553 89.5847 142.692 92.3633 142.692 92.3633C142.692 92.3633 139.798 92.147 138.543 90.2987C137.288 88.4505 138.148 85.6719 138.148 85.6719C138.148 85.6719 141.042 85.8889 142.298 87.7365Z" fill="#97BDF3"/>
<path d="M138.605 96.217C139.665 98.1837 138.527 100.86 138.527 100.86C138.527 100.86 135.669 100.348 134.609 98.3814C133.55 96.4147 134.688 93.7383 134.688 93.7383C134.688 93.7383 137.546 94.2497 138.605 96.217Z" fill="#A1C3FC"/>
<path d="M137.231 75.5352H124.125L122.248 67.2169L124.356 69.1973L126.463 67.2169L128.702 69.3295L130.941 67.2169L133.049 69.3295L134.762 67.2169L136.606 69.3295L139.108 67.2169L137.231 75.5352Z" fill="#97BDF3"/>
<path d="M99.1011 99.5736C114.839 99.5736 127.597 86.7855 127.597 71.0107C127.597 55.2358 114.839 42.4478 99.1011 42.4478C83.3631 42.4478 70.605 55.2358 70.605 71.0107C70.605 86.7855 83.3631 99.5736 99.1011 99.5736Z" fill="#A1C3FC"/>
<path d="M107.468 53.544H121.639C120.864 52.5401 120.026 51.5873 119.127 50.6968H107.468V53.544Z" fill="#428DFC"/>
<path d="M107.468 60.3783H125.548C125.157 59.4018 124.718 58.4503 124.225 57.5311H107.468V60.3783Z" fill="#428DFC"/>
<path d="M107.468 67.2132H127.338C127.21 66.2473 127.034 65.2976 126.812 64.366H107.468V67.2132Z" fill="#428DFC"/>
<path d="M107.468 74.0475H127.435C127.533 73.1109 127.585 72.1605 127.592 71.2003H107.468V74.0475Z" fill="#428DFC"/>
<path d="M107.468 80.8824H125.847C126.188 79.9551 126.481 79.0042 126.725 78.0345H107.468V80.8824Z" fill="#428DFC"/>
<path d="M107.468 87.7166H122.208C122.864 86.8056 123.47 85.8559 124.018 84.8688H107.468V87.7166Z" fill="#428DFC"/>
<path d="M89.5701 94.5508H115.236C116.477 93.6947 117.644 92.7406 118.732 91.7036H89.5701V94.5508Z" fill="#428DFC"/>
<path d="M99.1009 99.5736C101.734 99.5736 104.281 99.2082 106.701 98.5378H91.4998C93.9206 99.2082 96.4674 99.5736 99.1009 99.5736Z" fill="#428DFC"/>
<path d="M96.5433 97.2957C111.81 97.2957 124.187 84.8901 124.187 69.587C124.187 54.284 111.81 41.8784 96.5433 41.8784C81.2763 41.8784 68.8999 54.284 68.8999 69.587C68.8999 84.8901 81.2763 97.2957 96.5433 97.2957Z" fill="url(#paint1_linear)"/>
<path d="M96.5443 93.058C83.6332 93.058 73.1287 82.5298 73.1287 69.5871C73.1287 69.4113 73.2713 69.2685 73.4462 69.2685C73.621 69.2685 73.7636 69.4113 73.7636 69.5871C73.7636 82.1775 83.9829 92.4207 96.5436 92.4207C109.104 92.4207 119.324 82.1775 119.324 69.5871C119.324 56.9968 109.105 46.7535 96.5443 46.7535C96.3688 46.7535 96.2268 46.6107 96.2268 46.4349C96.2268 46.259 96.3694 46.1162 96.5443 46.1162C109.455 46.1162 119.96 56.6457 119.96 69.5871C119.959 82.5291 109.455 93.058 96.5443 93.058Z" fill="#AFCCFC"/>
<path d="M107.319 83.5798H88.4331V81.0319H104.777V76.8952H107.319V83.5798Z" fill="#AFCCFC"/>
<path d="M96.0371 76.4607H93.4947V56.4144L83.0826 65.1904L81.4468 63.2399L96.0371 50.9432V76.4607Z" fill="#AFCCFC"/>
<path d="M101.786 57.5305H99.2444V71.7689H101.786V57.5305Z" fill="#AFCCFC"/>
<path d="M554.587 314.868C553.736 315.716 552.558 316.236 551.317 316.168L146.278 315.418C143.663 315.413 141.641 313.384 141.646 310.771C141.652 308.158 143.682 306.137 146.296 306.142L551.335 306.892C553.95 306.897 555.972 308.927 555.966 311.54C555.964 312.846 555.439 314.021 554.587 314.868Z" fill="#A1C3FC"/>
<path d="M307.976 117.604L307.976 295.444H324.756L324.756 117.604H307.976Z" fill="#D6D7D8"/>
<path d="M176.714 159.291L176.714 295.635H189.605L189.605 159.291H176.714Z" fill="#A1C3FC"/>
<path d="M164.378 295.253V182.621H153.71V295.253H164.378Z" fill="#D6D7D8"/>
<path d="M356.335 295.444V99.8203H337.832V295.444H356.335Z" fill="#A1C3FC"/>
<path d="M244.188 295.826V147.627H230.074V295.826H244.188Z" fill="#D6D7D8"/>
<path d="M268.432 296.591V172.104H256.93V296.591H268.432Z" fill="#A1C3FC"/>
<path d="M414.141 294.105V92.5537H394.86V294.105H414.141Z" fill="#D6D7D8"/>
<path d="M444.201 295.252V111.485H426.809V295.252H444.201Z" fill="#A1C3FC"/>
<path d="M511.25 296.591V83.1836H491.246V296.591H511.25Z" fill="#D6D7D8"/>
<path d="M540.087 294.105V110.338H522.695V294.105H540.087Z" fill="#A1C3FC"/>
<path d="M52.579 427.594C54.6424 428.082 56.7057 428.57 58.7691 429.058C68.129 431.272 77.9201 433.489 87.2577 431.182C88.4009 430.9 89.6621 430.436 90.1267 429.354C90.7601 427.877 89.4121 426.189 87.8682 425.746C86.3243 425.303 84.6839 425.68 83.0844 425.825C77.6027 426.323 72.0856 423.954 68.1116 420.145C64.1376 416.335 61.6048 411.206 60.2067 405.881C57.1016 407.249 55.6779 410.783 54.5514 413.985C53.3721 417.335 52.1935 420.684 51.0143 424.034C50.6823 424.977 50.3878 426.139 51.0546 426.885C51.4338 427.311 52.0248 427.463 52.579 427.594Z" fill="#151A4F"/>
<path d="M114.595 278.439C119.799 292.295 101.439 340.525 96.8611 354.728C90.9079 373.197 79.3575 389.663 73.78 408.454C72.4715 412.862 72.5243 417.875 71.8965 422.272C71.5826 424.47 66.4495 424.187 61.3699 422.175C53.8588 419.201 57.0257 410.696 57.3459 403.032C58.0953 385.073 65.4174 367.003 61.4254 349.638C58.7599 338.04 54.4262 326.25 53.2692 314.498C52.1413 303.042 51.2544 280.295 59.1106 271.18C77.3914 249.967 106.657 238.219 114.595 278.439Z" fill="#1D72D8"/>
<path d="M126.712 171.989C128.381 169.41 131.231 163.46 129.247 161.052C126.777 160.98 123.27 160.81 120.775 161.191C117.748 161.458 122.776 169.161 120.469 172.015C118.436 174.53 116.15 176.869 114.949 179.956C119.564 177.846 122.279 173.903 126.712 171.989Z" fill="#F2A19C"/>
<path d="M115.147 172.787C114.628 172.787 114.123 172.519 113.843 172.039C113.422 171.318 113.665 170.395 114.384 169.974L144.424 152.422C145.145 152.003 146.068 152.245 146.488 152.964C146.908 153.685 146.666 154.609 145.946 155.029L115.907 172.581C115.667 172.72 115.405 172.787 115.147 172.787Z" fill="#23286B"/>
<path d="M118.179 188.954C117.604 185.629 117.56 181.939 120.103 179.829C123.049 177.384 125.062 176.747 127.469 173.633C128.46 172.554 127.36 165.642 126.055 162.202C125.408 161.225 124.467 160.855 123.139 161.83C122.286 162.456 119.705 164.752 119.081 165.633C117.145 168.363 119.123 169.167 119.727 171.286C121.421 171.51 122.564 170.876 122.116 168.052C121.969 167.127 122.533 166.197 123.678 166.2C123.776 167.054 124.362 168.552 123.602 169.487C120.874 172.841 113.717 176.564 111.706 178.986C107.485 184.065 111.895 188.151 112.35 193.95C114.145 192.877 116.428 192.565 118.145 191.236C117.866 190.398 118.431 190.007 118.179 188.954Z" fill="#FFBEB6"/>
<path d="M48.8121 435.445C50.8755 435.934 52.9389 436.421 55.0023 436.91C64.3621 439.124 74.1532 441.34 83.4909 439.033C84.634 438.751 85.8952 438.287 86.3599 437.205C86.9932 435.729 85.6452 434.04 84.1013 433.597C82.5574 433.155 80.917 433.531 79.3176 433.677C73.8358 434.175 68.3187 431.806 64.3447 427.996C60.3708 424.187 57.8379 419.058 56.4399 413.733C53.3348 415.101 51.911 418.635 50.7845 421.836C49.6053 425.186 48.4267 428.535 47.2474 431.885C46.9155 432.828 46.621 433.991 47.2877 434.737C47.6662 435.162 48.2572 435.314 48.8121 435.445Z" fill="#23286B"/>
<path d="M115.625 254.617C112.01 253.404 110.285 249.389 108.982 245.806C106.553 239.121 104.088 232.227 104.364 225.12C104.679 216.982 108.555 209.408 109.849 201.367C110.705 196.046 110.408 190.541 108.983 185.343C112.182 185.689 115.447 185.416 118.544 184.543C119.786 194.229 126.151 202.39 129.709 211.483C132 217.34 133.125 223.651 133 229.939C132.853 237.356 130.823 244.99 125.912 250.55C123.322 253.48 119.333 255.861 115.625 254.617Z" fill="#151A4F"/>
<path d="M61.2066 424.92C57.9605 408.304 61.6872 388.917 73.5161 376.154C76.6601 372.761 82.7051 364.55 85.7102 361.033C90.2904 355.674 93.0317 348.312 94.8151 344.075C100.884 329.658 108.316 315.811 115.697 279.253C115.902 278.238 120.945 258.833 119.911 258.761C110.666 258.12 101.007 256.19 99.5996 256.108C79.5798 254.932 75.9642 259.13 56.1104 261.956C53.4268 262.338 50.3543 262.98 49.0764 265.371C45.7699 277.688 43.5523 290.297 42.4578 303.004C41.6001 312.964 41.4487 323.137 43.9926 332.805C45.8379 339.816 49.0604 346.405 50.9057 353.416C52.751 360.427 50.1092 364.769 47.4548 375.012C46.1991 379.856 37.5935 394.361 45.5581 425.09C48.4375 427.288 58.5335 426.639 61.2066 424.92Z" fill="url(#paint2_linear)"/>
<path d="M63.6847 195.36C49.2237 214.455 39.4492 237.075 35.4517 260.694C34.4946 266.35 33.871 272.209 35.2572 277.774C66.2113 289.474 101.83 288.231 131.893 274.4C137.402 248.548 128.201 220.07 108.609 202.333C99.5635 194.143 87.3854 187.999 75.4218 190.394C67.8205 191.916 68.3657 189.178 63.6847 195.36Z" fill="url(#paint3_linear)"/>
<path d="M117.171 248.055L147.135 236.549L131.767 196.506L101.803 208.012L117.171 248.055Z" fill="#A1C3FC"/>
<path d="M60.2421 159.246C62.3298 158.282 62.6784 155.116 61.1977 153.357C59.7171 151.597 57.0522 151.205 54.8597 151.897C52.6671 152.589 50.8718 154.17 49.3057 155.853C47.8244 157.446 46.4527 159.225 45.8506 161.315C45.2491 163.405 45.5519 165.865 47.0757 167.416C49.246 169.625 53.1061 169.198 55.5723 167.326C58.0384 165.455 59.4476 162.542 60.7678 159.742C61.7353 161.953 59.276 157.034 60.2421 159.246Z" fill="#E94A47"/>
<path d="M79.3005 189.705C79.2846 190.115 79.2658 190.54 79.0887 190.91C78.6623 191.801 77.5268 192.053 76.542 192.132C71.4561 192.541 66.2445 191.166 62.0226 188.3C62.7519 184.024 62.6491 179.607 61.7219 175.369C63.5735 176.454 65.8806 176.228 68.0107 175.968C71.9693 175.485 75.9287 175.002 79.8874 174.519C79.6915 179.581 79.4957 184.643 79.3005 189.705Z" fill="#F2A19C"/>
<path d="M56.3457 169.312C56.4527 168.318 56.6742 167.342 56.8951 166.368C57.1264 165.348 57.3576 164.328 57.5889 163.307C57.8445 162.182 58.1126 161.026 58.7661 160.075C59.5912 158.875 60.9399 158.138 62.3129 157.653C66.9612 156.008 72.4312 156.934 76.2794 160.017C80.1277 163.101 82.2251 168.238 81.6348 173.135C81.5063 174.2 81.259 175.254 80.8527 176.247C80.1659 177.926 79.0297 179.405 77.649 180.582C73.7257 183.923 67.7315 184.582 63.1762 182.172C58.6209 179.762 55.7922 174.436 56.3457 169.312Z" fill="#FFBEB6"/>
<path d="M66.5046 175.409C63.089 175.409 60.3103 172.629 60.3103 169.213C60.3103 165.796 63.089 163.017 66.5046 163.017C69.9209 163.017 72.6996 165.796 72.6996 169.213C72.6996 172.629 69.9209 175.409 66.5046 175.409ZM66.5046 164.058C63.6634 164.058 61.3521 166.37 61.3521 169.212C61.3521 172.054 63.6634 174.366 66.5046 174.366C69.3465 174.366 71.6578 172.054 71.6578 169.212C71.6578 166.37 69.3465 164.058 66.5046 164.058Z" fill="#23286B"/>
<path d="M78.3249 169.734C74.9093 169.734 72.1306 166.954 72.1306 163.538C72.1306 160.122 74.9093 157.342 78.3249 157.342C81.7412 157.342 84.5199 160.122 84.5199 163.538C84.5199 166.954 81.7412 169.734 78.3249 169.734ZM78.3249 158.383C75.4837 158.383 73.1724 160.695 73.1724 163.537C73.1724 166.379 75.4837 168.691 78.3249 168.691C81.1668 168.691 83.4781 166.379 83.4781 163.537C83.4781 160.695 81.1661 158.383 78.3249 158.383Z" fill="#23286B"/>
<path d="M52.3873 182.126C51.2219 182.126 50.0795 181.938 49.012 181.556C48.8314 181.492 48.737 181.293 48.8016 181.112C48.8669 180.932 49.0648 180.837 49.2454 180.902C51.6636 181.765 54.5104 181.565 57.0544 180.355C59.599 179.144 61.5499 177.06 62.4055 174.639C63.0243 172.887 63.1619 170.973 63.2945 169.121C63.3674 168.099 63.4431 167.043 63.5987 166.012C63.8918 164.054 64.4717 162.154 65.3225 160.364C65.8732 159.205 66.7518 157.714 67.8025 157.188C67.9755 157.103 68.1817 157.172 68.2686 157.344C68.354 157.515 68.2845 157.724 68.113 157.81C67.431 158.151 66.6622 159.164 65.9489 160.663C65.1273 162.39 64.5682 164.224 64.2849 166.115C64.1342 167.119 64.0599 168.163 63.9869 169.171C63.8508 171.069 63.7105 173.031 63.0605 174.871C62.1437 177.466 60.063 179.694 57.3523 180.983C55.7591 181.741 54.0513 182.126 52.3873 182.126Z" fill="#E94A47"/>
<path d="M54.5673 159.323C56.6002 157.24 60.6734 155.908 63.5834 155.923C66.4934 155.938 70.0569 156.688 71.9946 157.617C66.7413 158.336 62.0485 160.558 60.2588 165.55C59.2643 168.324 59.3303 172.786 58.2461 175.527C57.162 178.267 53.7061 180.672 50.7788 180.333C52.4699 177.107 52.0893 173.244 51.9282 169.605C51.7678 165.965 52.0227 161.93 54.5673 159.323Z" fill="#E94A47"/>
<path d="M131.368 213.699C135.822 211.034 132.443 204.436 133.475 203.535C135.904 201.416 136.433 205.079 137.012 207.931C137.158 208.654 137.518 210.187 137.711 210.297C140.076 211.641 147.357 212.884 146.097 215.405C145.783 216.032 144.658 216.52 144.484 217.179C143.765 219.909 144.795 222.995 142.818 225.513C139.349 221.206 132.675 225.228 127.767 223.589C128.315 221.39 128.465 217.985 129.217 215.512C129.333 215.133 130.087 213.728 129.97 214.114L131.368 213.699Z" fill="#FFBEB6"/>
<path d="M83.0655 240.05C72.434 237.489 61.0511 234.478 54.0199 226.1C51.2593 222.811 49.3605 218.879 47.8715 214.85C45.8609 209.408 44.5656 203.31 46.5644 197.863C49.8744 188.842 61.4088 185.068 70.7006 187.509C79.9923 189.949 87.3354 196.968 93.6415 204.218C96.4625 207.462 99.3371 211.781 97.6578 215.739C108.621 210.054 121.583 210.835 131.582 213.631C133.195 217.772 132.655 223.24 131.864 224.337C131.66 224.619 129.657 226.09 128.367 226.698C120.388 230.462 114.671 238.279 106.331 241.155C98.8857 243.722 90.7231 241.895 83.0655 240.05Z" fill="url(#paint4_linear)"/>
<path d="M70.0416 165.089C69.9541 165.089 69.8659 165.066 69.7846 165.021C69.5346 164.878 69.4478 164.56 69.5902 164.31C69.6784 164.154 69.7603 163.985 69.843 163.815C70.275 162.925 70.9313 161.583 72.8127 162.07C73.0912 162.142 73.2593 162.427 73.187 162.705C73.1148 162.984 72.8273 163.149 72.5522 163.079C71.5355 162.817 71.2473 163.307 70.7799 164.27C70.6861 164.461 70.5937 164.651 70.4944 164.825C70.3993 164.994 70.2229 165.089 70.0416 165.089Z" fill="#23286B"/>
<path d="M143.226 153.139C143.563 153.768 143.967 154.574 144.406 155.153C144.804 155.678 144.894 155.656 144.894 155.656C144.894 155.656 146.249 154.889 146.469 154.729C147.875 153.71 148.473 152.993 149.635 151.871C150.18 151.345 150.764 150.144 149.614 150.304C149.002 150.388 148.334 150.499 147.764 150.711C146.325 151.245 145.024 152.074 143.662 152.797C143.427 152.922 143.226 153.045 143.226 153.139Z" fill="#E94A47"/>
<path d="M47.1053 306.632C47.1532 306.551 47.1247 306.446 47.0428 306.398C46.9615 306.35 46.8559 306.379 46.8087 306.461C46.7608 306.542 46.7893 306.648 46.8712 306.695C46.9525 306.742 47.0573 306.716 47.1053 306.632ZM49.2034 289.177C49.2971 289.153 49.3534 289.056 49.3284 288.962C49.3089 288.876 49.2221 288.822 49.1367 288.841C49.1297 288.842 49.1221 288.845 49.1152 288.848C49.0242 288.869 48.9686 288.959 48.9888 289.051C49.0145 289.144 49.1103 289.201 49.2034 289.177ZM47.5727 297.949C47.6685 297.954 47.7539 297.886 47.7713 297.793C47.7831 297.695 47.7136 297.606 47.615 297.594C47.5178 297.582 47.4282 297.651 47.4164 297.75C47.4122 297.847 47.4775 297.931 47.5727 297.949ZM68.0446 308.184C68.2231 308.216 68.3939 308.098 68.4293 307.92C68.4689 307.749 68.3634 307.579 68.1939 307.538C68.1877 307.538 68.1828 307.535 68.1766 307.535C67.9981 307.504 67.8272 307.621 67.7918 307.799C67.7557 307.975 67.8689 308.148 68.0446 308.184ZM60.2411 306.666C60.4217 306.697 60.5919 306.577 60.6217 306.396C60.6523 306.219 60.5363 306.051 60.3606 306.017C60.1849 305.981 60.0126 306.093 59.9765 306.269C59.9487 306.452 60.0647 306.624 60.2411 306.666ZM52.4259 305.138C52.6016 305.174 52.7717 305.061 52.8071 304.885C52.8078 304.882 52.8078 304.878 52.8092 304.874C52.8488 304.704 52.7433 304.534 52.5738 304.493C52.5675 304.492 52.5627 304.49 52.5564 304.489C52.3759 304.46 52.2029 304.577 52.1599 304.754C52.1307 304.933 52.2481 305.104 52.4259 305.138ZM58.4792 322.247C58.5743 322.093 58.5271 321.893 58.3729 321.798C58.2194 321.703 58.0187 321.75 57.9243 321.904C57.8319 322.055 57.8756 322.252 58.0236 322.349C58.1771 322.444 58.3792 322.399 58.4792 322.247ZM51.8446 317.852C51.939 317.698 51.8925 317.497 51.7383 317.403C51.5848 317.308 51.3841 317.355 51.2897 317.509C51.1973 317.66 51.241 317.856 51.389 317.954C51.5411 318.048 51.7446 318.003 51.8446 317.852ZM64.345 292.546C64.5228 292.506 64.6353 292.332 64.5978 292.153C64.5644 291.978 64.395 291.865 64.2213 291.899C64.2213 291.899 64.2186 291.899 64.2179 291.9C64.0449 291.924 63.9248 292.084 63.9491 292.256C63.9498 292.264 63.9519 292.273 63.9526 292.282C63.9949 292.459 64.1651 292.574 64.345 292.546ZM56.5415 294.127C56.7179 294.084 56.8339 293.914 56.8061 293.734C56.7658 293.556 56.5915 293.444 56.4137 293.481C56.2373 293.517 56.1227 293.69 56.1595 293.868C56.1595 293.87 56.1602 293.872 56.1602 293.872C56.1943 294.048 56.363 294.161 56.5359 294.128C56.5401 294.127 56.5408 294.127 56.5415 294.127ZM48.7512 295.706C48.9228 295.675 49.0381 295.513 49.0068 295.342C49.0061 295.337 49.0047 295.332 49.0033 295.327C48.9742 295.149 48.8054 295.03 48.6276 295.059C48.6221 295.06 48.6165 295.061 48.6109 295.062C48.4325 295.099 48.3179 295.274 48.3554 295.452C48.3929 295.631 48.5693 295.745 48.7457 295.708C48.7485 295.706 48.7498 295.706 48.7512 295.706ZM53.9989 328.638C54.0996 328.513 54.0816 328.329 53.9572 328.226C53.8329 328.124 53.6482 328.143 53.5454 328.268C53.4426 328.393 53.4621 328.577 53.5871 328.68C53.7121 328.779 53.8954 328.761 53.9989 328.638ZM62.283 300.078C62.4462 300.054 62.5622 299.909 62.5483 299.744C62.5337 299.588 62.3948 299.474 62.2392 299.489C62.2344 299.49 62.2309 299.49 62.2267 299.491C62.0656 299.504 61.9461 299.647 61.9614 299.807C61.9614 299.809 61.9621 299.811 61.9621 299.813C61.983 299.97 62.1225 300.087 62.283 300.078ZM55.2317 300.81C55.3914 300.791 55.5039 300.646 55.4866 300.489C55.472 300.334 55.3331 300.219 55.1775 300.234C55.1726 300.235 55.1692 300.235 55.165 300.236C55.0039 300.25 54.8844 300.392 54.8976 300.553C54.8976 300.555 54.8983 300.556 54.8983 300.558C54.9226 300.716 55.0705 300.83 55.2317 300.81ZM48.1574 301.555C48.3186 301.542 48.438 301.399 48.4248 301.239L48.4241 301.233C48.4144 301.081 48.2818 300.967 48.1297 300.976C48.1206 300.976 48.1102 300.978 48.1012 300.98C47.9401 300.993 47.8206 301.135 47.8338 301.296C47.8338 301.298 47.8345 301.299 47.8345 301.301C47.8581 301.457 47.9998 301.569 48.1574 301.555ZM57.211 314.803C57.368 314.844 57.5277 314.753 57.5721 314.596C57.6187 314.442 57.5312 314.281 57.3784 314.235C57.2228 314.191 57.0589 314.277 57.0054 314.429C56.961 314.588 57.0527 314.754 57.211 314.803ZM50.4007 312.775C50.5486 312.823 50.7084 312.745 50.7577 312.598C50.7597 312.593 50.7604 312.587 50.7632 312.582C50.8098 312.427 50.7222 312.266 50.5695 312.22C50.4139 312.177 50.25 312.262 50.1965 312.414C50.1541 312.569 50.2451 312.73 50.4007 312.775ZM54.8198 287.712C54.9566 287.642 55.0101 287.474 54.9407 287.338C54.9379 287.333 54.9351 287.327 54.9323 287.323C54.8594 287.179 54.683 287.122 54.5392 287.194C54.5365 287.196 54.533 287.198 54.5302 287.199C54.392 287.283 54.3427 287.458 54.4191 287.601C54.4941 287.742 54.6691 287.794 54.8094 287.72C54.8129 287.717 54.8157 287.714 54.8198 287.712ZM48.5741 291.105C48.7172 291.026 48.7721 290.848 48.6971 290.703C48.6151 290.561 48.4332 290.511 48.2915 290.593C48.156 290.671 48.104 290.841 48.1727 290.981C48.2429 291.124 48.4172 291.183 48.5596 291.112C48.5644 291.111 48.57 291.108 48.5741 291.105ZM61.4642 329.701C61.6468 329.745 61.8316 329.639 61.8843 329.458C61.9357 329.278 61.8336 329.091 61.6551 329.039C61.4725 328.993 61.2864 329.1 61.235 329.281C61.1836 329.46 61.2857 329.648 61.4642 329.701ZM53.5794 327.443C53.7593 327.496 53.9468 327.392 53.9989 327.214C54.051 327.035 53.9482 326.846 53.7697 326.794C53.5899 326.741 53.4023 326.845 53.3503 327.024C53.2975 327.203 53.401 327.39 53.5794 327.443ZM57.7736 295.367C57.9368 295.271 57.9965 295.062 57.9076 294.894C57.8111 294.732 57.5992 294.68 57.4374 294.778C57.2812 294.872 57.2263 295.072 57.3124 295.233C57.4062 295.394 57.6083 295.454 57.7736 295.367ZM50.607 299.351C50.7674 299.258 50.8271 299.055 50.741 298.89C50.6507 298.725 50.4444 298.666 50.2798 298.756C50.1152 298.846 50.0555 299.053 50.1458 299.217C50.2382 299.378 50.4431 299.437 50.607 299.351ZM59.2702 313.181C59.4536 313.151 59.5834 312.985 59.5709 312.8C59.5432 312.616 59.3737 312.488 59.1897 312.511C59.0063 312.527 58.8709 312.69 58.8889 312.874C58.8889 312.874 58.8896 312.879 58.8896 312.881C58.9112 313.069 59.0806 313.203 59.2702 313.181C59.2688 313.181 59.2702 313.181 59.2702 313.181ZM51.1167 314.118C51.3049 314.096 51.439 313.925 51.4174 313.738V313.737C51.3959 313.556 51.2299 313.426 51.0487 313.449C50.8639 313.47 50.7299 313.636 50.7514 313.82C50.7695 314.002 50.9334 314.135 51.1167 314.118ZM61.2808 318.436C61.4649 318.418 61.5996 318.253 61.5808 318.067C61.5621 317.881 61.3975 317.748 61.2114 317.767C61.0322 317.786 60.8981 317.943 60.9106 318.122C60.9273 318.312 61.0926 318.451 61.2808 318.436ZM53.1336 319.033C53.3211 319.016 53.4614 318.851 53.4454 318.663C53.428 318.481 53.2697 318.344 53.0877 318.35C52.8995 318.37 52.7585 318.532 52.7641 318.72C52.7835 318.906 52.9467 319.043 53.1336 319.033ZM52.9308 303.53C53.0968 303.441 53.1613 303.236 53.0766 303.069C52.9926 302.905 52.7912 302.839 52.6273 302.923C52.4613 302.998 52.387 303.193 52.462 303.358C52.4641 303.363 52.4655 303.367 52.4696 303.371C52.5495 303.541 52.7509 303.614 52.921 303.533C52.9245 303.533 52.928 303.532 52.9308 303.53Z" fill="white"/>
<path d="M149.614 150.304C149.003 150.388 148.334 150.499 147.764 150.711C147.652 150.753 147.545 150.807 147.434 150.851L148.547 152.946C148.88 152.618 149.221 152.271 149.635 151.871C150.18 151.345 150.764 150.144 149.614 150.304Z" fill="#23286B"/>
<path d="M504.995 107.649C504.904 111.378 504.813 115.108 504.722 118.838C504.712 119.279 504.708 119.748 504.941 120.123C505.482 120.995 506.955 120.698 507.511 119.835C508.067 118.973 507.983 117.863 507.879 116.843C508.648 118.442 508.407 121.613 510.186 121.638C511.505 121.657 511.42 119.313 512.076 118.172C513.391 119.796 515.291 121.107 517.385 121.117C519.478 121.127 521.62 119.453 521.58 117.366C521.526 114.587 518.266 113.212 515.619 112.333C511.939 111.108 508.378 109.539 504.995 107.649Z" fill="#F2A19C"/>
<path d="M507.204 112.099C506.89 111.885 506.56 111.664 506.183 111.611C505.115 111.46 504.332 112.793 504.589 113.838C504.845 114.883 505.734 115.635 506.573 116.312C509.147 118.387 511.721 120.463 514.295 122.538C515.282 123.334 516.319 124.155 517.559 124.423C518.306 124.585 519.105 124.54 519.805 124.844C521.049 125.383 521.593 126.812 522.012 128.097C523.581 132.906 525.149 137.716 526.718 142.526C529.214 140.863 532.373 140.218 535.324 140.771C530.929 131.034 524.07 112.729 523.09 112.571C514.737 111.162 507.084 107.405 500.521 102.064C500.056 101.684 499.479 101.271 498.907 101.457C498.022 101.743 498.133 103.039 498.544 103.87C500.25 107.319 503.809 109.444 507.346 110.975C510.884 112.505 514.658 113.677 517.694 116.048C517.854 117.015 517.651 118.038 517.133 118.871C513.823 116.615 510.513 114.357 507.204 112.099Z" fill="#FFBEB6"/>
<path d="M645.776 304.514C646.211 304.257 646.392 303.717 646.425 303.214C646.598 300.628 643.887 298.655 643.61 296.078C643.399 294.112 644.709 292.234 646.388 291.181C648.066 290.127 650.065 289.735 652.012 289.362C647.888 283.777 644.596 277.582 642.278 271.042C641.09 273.35 639.715 275.563 638.171 277.65C637.536 278.509 636.527 279.445 635.55 279.013C637.156 282.504 638.585 285.418 640.19 288.909C639.118 290.848 638.214 292.842 638.322 294.165C638.431 295.488 639.404 296.654 640.003 297.839C641.061 299.932 641.79 300.772 642.848 302.866C643.349 303.857 644.82 305.08 645.776 304.514Z" fill="#FFBEB6"/>
<path d="M573.555 419.291C577.501 418.096 581.467 416.896 585.55 416.317C592.354 415.352 599.272 416.136 606.094 416.967C604.549 421.324 603.504 425.856 602.985 430.449C587.491 430.415 571.843 430.415 556.494 430.415C556.037 427.625 567.124 421.24 573.555 419.291Z" fill="#D6D7D8"/>
<path d="M578.996 446C577.651 444.761 582.055 440.738 584.627 438.964C586.917 437.383 589.608 436.502 592.257 435.642C606.353 431.064 621.755 426.49 635.669 431.591C635.086 436.922 635.624 446 635.624 446C635.624 446 585.715 445.957 578.996 446Z" fill="url(#paint5_linear)"/>
<path d="M571.97 266.752C570.907 266.88 569.755 267.049 569.01 267.817C568.199 268.652 568.123 269.935 568.137 271.098C568.264 281.068 571.633 290.711 572.681 300.627C573.699 310.253 572.515 319.956 572.255 329.633C571.46 359.173 579.281 388.524 577.635 418.029C590.209 416.99 599.813 417.815 608.304 418.128C602.407 385.907 596.486 353.282 598.726 320.604C600.036 301.507 604.023 281.621 597.212 263.724C588.798 264.734 580.384 265.743 571.97 266.752Z" fill="#151A4F"/>
<path d="M545.946 158.569C544.568 155.225 544.328 151.538 543.466 148.025C541.989 142.004 536.125 132.553 531.45 128.466C530.766 127.868 529.254 126.276 529.254 126.276C529.254 126.276 527.265 127.302 526.389 127.625C523.158 128.815 522.206 129.049 522.206 129.049C521.694 135.675 520.783 143.416 521.694 150.135C523.961 166.875 525.642 169.614 535.102 182.263C543.283 193.203 552.384 197.217 561.375 207.506C563.139 209.523 565.093 211.792 567.766 212.042C570.871 212.332 573.605 209.549 574.29 206.515C574.974 203.481 581.945 204.706 580.91 201.773C576.94 190.523 565.033 179.716 556.539 171.319C552.578 167.403 548.067 163.713 545.946 158.569Z" fill="#1D72D8"/>
<path d="M588.619 188.757C594.774 190.286 598.293 193.148 600.885 198.919C603.477 204.691 600.251 218.426 601.003 224.704C602.885 240.398 600.049 250.437 602.01 265.1C596.263 269.169 571.325 268.149 566.677 266.73C559.639 256.756 558.826 249.047 554.729 237.559C549.58 223.124 549.419 207.312 547.143 189.92C546.727 186.739 558.529 181.854 561.395 180.393C565.744 178.177 568.513 182.036 573.23 183.302C578.031 184.593 583.324 184.887 588.619 188.757Z" fill="url(#paint6_linear)"/>
<path d="M569.648 170.67C569.984 178.271 569.811 182.614 570.067 190.228C575.175 192.358 580.973 187.674 586.104 190.112C585.208 184.139 584.958 179.123 584.952 173.084C579.76 173.258 574.534 172.433 569.648 170.67Z" fill="#F2A19C"/>
<path d="M588.46 176.53C590.942 175.184 597.341 171.743 598.438 170.301C600.17 168.025 600.178 164.801 599.183 162.122C598.189 159.442 596.336 157.182 594.515 154.975C593.266 153.463 591.915 151.878 590.045 151.274C588.141 150.658 586.074 151.181 584.142 151.707C580.633 152.66 577.124 153.614 573.615 154.568C572.899 154.762 572.111 155.011 571.744 155.653C571.42 156.221 571.526 156.921 571.506 157.574C571.408 160.872 568.027 163.195 567.301 166.413C566.27 170.979 568.924 171.838 573.008 174.148C575.283 175.433 578.437 176.056 580.973 176.688C583.522 177.324 587.058 177.289 588.46 176.53Z" fill="#FFBEB6"/>
<path d="M568.615 161.809C566.516 164.02 565.236 166.274 563.137 168.485C562.728 168.916 562.292 169.415 562.312 170.008C562.337 170.723 563.003 171.225 563.605 171.617C567.944 174.446 570.943 176.823 575.282 179.652C575.789 179.983 577.026 180.34 577.63 180.303C578.214 180.267 579.666 179.421 580.118 179.053C582.521 177.099 582.355 176.054 584.647 173.972C586.219 172.545 589.93 169.754 588.159 168.58C586.418 169.53 584.678 170.481 582.937 171.431C581.317 172.315 579.641 173.218 577.803 173.404C575.966 173.59 573.906 172.876 573.065 171.238C574.863 168.389 574.696 164.439 572.665 161.75C572.335 161.312 571.888 160.989 571.37 160.804C570.003 160.318 569.14 161.255 568.615 161.809Z" fill="#23286B"/>
<path d="M582.902 161.501C583.494 161.501 584.091 161.412 584.678 161.238C585.945 160.86 587.025 160.12 587.719 159.154C588.433 158.158 588.656 157.041 588.348 156.009C587.876 154.437 586.2 153.382 584.177 153.382C583.585 153.382 582.988 153.47 582.401 153.645C579.75 154.434 578.104 156.781 578.731 158.874C579.202 160.445 580.879 161.501 582.902 161.501ZM584.177 154.138C585.863 154.138 587.246 154.977 587.621 156.226C587.861 157.029 587.677 157.912 587.102 158.714C586.506 159.545 585.567 160.184 584.461 160.514C583.945 160.667 583.42 160.745 582.902 160.745C581.216 160.745 579.833 159.907 579.458 158.658C578.95 156.964 580.368 155.041 582.618 154.37C583.134 154.216 583.659 154.138 584.177 154.138Z" fill="#23286B"/>
<path d="M646.615 280.66C643.045 283.99 638.839 286.237 638.839 286.237C638.839 286.237 635.897 284.209 633.024 282.095C626.217 277.089 612.469 264.908 608.619 257.399C603.182 246.795 597.745 236.19 592.308 225.586C588.692 218.534 585.929 209.029 585.132 201.149C584.562 195.519 586.312 190.438 591.986 190.602C595.828 190.712 598.51 194.295 600.623 197.495C617.768 223.458 639.029 253.533 646.615 280.66Z" fill="url(#paint7_linear)"/>
<path d="M624.114 365.675C625.916 374.906 623.67 384.541 625.279 393.807C627.718 407.855 638.845 420.519 636.475 434.58C624.748 432.555 611.782 433.673 601.037 432.917C603.161 375.646 568.487 323.593 566.393 266.321C578.91 268.467 587.918 268.94 602.006 265.066C615.212 286.417 604.702 315.024 613.01 338.701C616.236 347.897 622.248 356.112 624.114 365.675Z" fill="url(#paint8_linear)"/>
<path d="M644.227 344.338L675.211 341.636C676.463 341.527 677.39 340.426 677.28 339.179L673.214 292.852C673.104 291.603 672 290.68 670.748 290.79L639.764 293.491C638.512 293.6 637.586 294.701 637.696 295.949L641.762 342.276C641.871 343.524 642.975 344.448 644.227 344.338Z" fill="#E94A47"/>
<path d="M572.878 201.85C575.523 200.405 576.633 199.554 579.62 197.172C581.252 195.871 583.407 193.751 584.918 192.311C586.191 191.099 587.453 189.878 588.707 188.647C587.168 187.137 586.156 184.913 585.327 182.926C582.853 185.563 581.871 186.367 578.938 187.985C577.779 188.624 572.087 191.328 571.041 190.518C571.59 194.33 572.662 198.008 572.878 201.85Z" fill="#5196FC"/>
<path d="M568.24 162.922C570.12 163.692 570.991 166.252 569.969 168.004C568.958 166.767 567.706 165.727 566.303 164.959C566.861 164.204 567.513 163.517 568.24 162.922Z" fill="#FFBEB6"/>
<path d="M575.75 154.646C576.651 154.646 577.762 154.388 578.881 153.92C579.929 153.481 580.854 152.909 581.485 152.308C582.204 151.623 582.475 150.948 582.248 150.41C582.096 150.05 581.671 149.622 580.508 149.622C579.608 149.622 578.497 149.88 577.378 150.348C576.329 150.787 575.405 151.359 574.774 151.96C574.055 152.645 573.783 153.32 574.011 153.858C574.163 154.217 574.588 154.646 575.75 154.646ZM580.508 150.378C581.174 150.378 581.482 150.545 581.549 150.703C581.618 150.867 581.506 151.242 580.961 151.761C580.396 152.3 579.554 152.818 578.589 153.223C577.576 153.647 576.542 153.89 575.751 153.89C575.085 153.89 574.777 153.722 574.71 153.565C574.641 153.401 574.754 153.026 575.298 152.506C575.863 151.968 576.705 151.449 577.67 151.044C578.685 150.621 579.719 150.378 580.508 150.378Z" fill="#23286B"/>
<path d="M586.703 154.757C586.809 154.757 586.915 154.713 586.99 154.626C587.127 154.468 587.109 154.229 586.95 154.093C586.286 153.523 585.474 152.876 584.614 152.191C583.734 151.489 582.794 150.74 581.891 149.978C581.732 149.842 581.491 149.863 581.356 150.021C581.22 150.181 581.241 150.419 581.4 150.554C582.309 151.322 583.255 152.076 584.14 152.781C584.994 153.462 585.801 154.105 586.455 154.665C586.527 154.728 586.615 154.757 586.703 154.757Z" fill="#23286B"/>
<path d="M571.04 190.646C571.006 190.826 570.769 191.07 570.66 191.217C568.853 193.65 567.046 196.082 565.239 198.515C565.287 192.998 566.358 186.21 569.914 181.981C569.89 184.238 570.055 187.482 570.724 189.795C570.778 189.983 571.076 190.453 571.04 190.646Z" fill="#5196FC"/>
<path d="M641.462 300.558L669.945 298.073L673.616 339.881L645.134 342.366L641.462 300.558Z" fill="white"/>
<path d="M650.774 340.735L666.266 339.383L666.729 344.656L651.237 346.008L650.774 340.735Z" fill="#23286B"/>
<path d="M657.591 296.55C657.619 297.823 658.204 299.112 657.914 300.353C657.623 301.594 657.685 302.289 656.62 302.996C656.426 303.125 655.309 303.356 655.076 303.338C654.598 303.301 654.349 302.762 654.226 302.3C653.772 300.606 653.393 298.672 653.647 296.937C654.04 299.149 654.087 301.614 653.275 303.709C653.002 304.412 652.398 305.218 651.677 304.992C651.249 304.857 651.016 304.405 650.86 303.986C649.137 299.333 649.446 294.169 647.246 289.72C646.644 288.501 647.547 286.898 647.798 285.562C651.687 286.853 655.55 288.223 659.382 289.671C659.941 289.882 660.551 290.143 660.796 290.686C660.931 290.985 660.929 291.326 660.926 291.654C660.899 294.235 660.871 296.815 660.844 299.395C660.837 299.956 660.826 300.54 660.567 301.037C660.307 301.535 659.719 301.91 659.184 301.737C658.581 301.541 658.21 301.043 658.109 300.419C657.893 299.085 657.575 297.9 657.591 296.55Z" fill="url(#paint9_linear)"/>
<path d="M642.56 288.344C642.286 288.372 641.537 289.147 641.35 289.348C640.785 289.952 643.324 291.826 644.077 292.168C646.429 293.237 646.376 293.416 647.224 295.849C648.051 298.224 648.947 301.246 649.774 303.621C650.761 306.456 651.379 312.424 653.226 311.946C656.177 311.183 654.296 305.413 653.884 302.401C653.408 298.919 652.534 293.539 652.343 292.691C652.005 291.181 648.013 289.384 646.513 288.987C645.013 288.59 644.104 288.182 642.56 288.344Z" fill="#FFBEB6"/>
<path d="M646.619 315.188L666.746 313.432L666.885 315.006L646.757 316.762L646.619 315.188Z" fill="#D6D7D8"/>
<path d="M646.93 318.728L667.058 316.972L667.196 318.546L647.068 320.302L646.93 318.728Z" fill="#D6D7D8"/>
<path d="M647.241 322.269L667.369 320.513L667.507 322.086L647.38 323.842L647.241 322.269Z" fill="#D6D7D8"/>
<path d="M647.552 325.81L667.679 324.054L667.818 325.627L647.69 327.384L647.552 325.81Z" fill="#D6D7D8"/>
<path d="M647.863 329.35L667.99 327.594L668.129 329.168L648.001 330.924L647.863 329.35Z" fill="#D6D7D8"/>
<path d="M648.173 332.891L668.301 331.135L668.439 332.708L648.312 334.464L648.173 332.891Z" fill="#D6D7D8"/>
<path d="M659.477 313.842L661.739 313.645L661.915 315.655L659.653 315.853L659.477 313.842Z" fill="white"/>
<path d="M652.25 321.688L659.77 321.032L659.946 323.042L652.427 323.699L652.25 321.688Z" fill="white"/>
<path d="M661.175 327.909L665.087 327.568L665.263 329.579L661.351 329.92L661.175 327.909Z" fill="white"/>
<path d="M658.836 331.797L662.748 331.456L662.925 333.466L659.012 333.807L658.836 331.797Z" fill="white"/>
<path d="M584.621 271.555C585.574 282.435 593.107 292.482 603.306 296.475" stroke="#428DFC" stroke-width="0.753181" stroke-miterlimit="10"/>
<path opacity="0.86" d="M589.541 206.62C589.654 206.687 589.7 206.867 589.634 206.98C589.567 207.094 589.386 207.14 589.273 207.073C589.16 207.007 589.114 206.827 589.181 206.713C589.248 206.599 589.371 206.52 589.541 206.62ZM609.982 221.711C610.162 221.664 610.276 221.731 610.323 221.911C610.402 222.035 610.303 222.204 610.179 222.284C610 222.33 609.886 222.264 609.839 222.084C609.792 221.905 609.858 221.791 609.982 221.711ZM603.765 223.692C603.945 223.646 604.058 223.713 604.105 223.892C604.152 224.072 604.085 224.185 603.905 224.232C603.781 224.311 603.611 224.212 603.564 224.032C603.575 223.884 603.675 223.715 603.765 223.692ZM600.879 211.241C600.959 211.365 600.949 211.51 600.825 211.59C600.701 211.67 600.555 211.66 600.475 211.537C600.395 211.413 600.405 211.268 600.529 211.187C600.595 211.074 600.799 211.117 600.879 211.241ZM595.898 215.398C595.978 215.522 595.968 215.667 595.844 215.747C595.72 215.826 595.574 215.817 595.494 215.693C595.414 215.569 595.424 215.424 595.548 215.344C595.671 215.264 595.819 215.274 595.898 215.398ZM608.458 234.767C608.605 234.777 608.685 234.901 608.674 235.047C608.664 235.193 608.54 235.273 608.394 235.262C608.246 235.252 608.168 235.129 608.143 235.038C608.188 234.836 608.312 234.756 608.458 234.767ZM596.608 206.437C596.721 206.504 596.711 206.65 596.645 206.763C596.578 206.877 596.431 206.866 596.318 206.799C596.205 206.733 596.215 206.586 596.282 206.474C596.405 206.393 596.494 206.37 596.608 206.437ZM592.541 210.598C592.654 210.665 592.645 210.812 592.578 210.924C592.511 211.038 592.364 211.027 592.252 210.961C592.139 210.894 592.148 210.747 592.215 210.635C592.315 210.465 592.461 210.475 592.541 210.598ZM606.097 228.801C606.244 228.811 606.323 228.934 606.347 229.025C606.337 229.171 606.27 229.284 606.123 229.274C605.976 229.264 605.864 229.197 605.873 229.05C605.85 228.96 605.918 228.847 606.097 228.801ZM582.523 207.367C582.636 207.433 582.716 207.556 582.65 207.67C582.583 207.783 582.46 207.863 582.347 207.796C582.233 207.729 582.153 207.606 582.22 207.493C582.287 207.38 582.411 207.3 582.523 207.367ZM600.544 217.371C600.668 217.292 600.837 217.392 600.861 217.482C600.94 217.606 600.874 217.718 600.751 217.799C600.626 217.878 600.514 217.811 600.434 217.688C600.353 217.564 600.453 217.394 600.544 217.371ZM595.22 219.649C595.344 219.569 595.457 219.636 595.537 219.759C595.617 219.883 595.55 219.996 595.427 220.076C595.303 220.156 595.19 220.089 595.11 219.966C595.03 219.842 595.096 219.728 595.22 219.649ZM585.468 207.043C585.525 207.076 585.515 207.223 585.481 207.28C585.448 207.336 585.301 207.326 585.244 207.292C585.188 207.259 585.197 207.112 585.232 207.056C585.298 206.942 585.354 206.976 585.468 207.043ZM591.986 222.014C592.076 221.991 592.099 222.081 592.123 222.171C592.146 222.261 592.023 222.341 591.966 222.307C591.875 222.329 591.796 222.206 591.829 222.15C591.807 222.061 591.897 222.038 591.986 222.014ZM577.386 204.416C577.443 204.449 577.523 204.573 577.489 204.629C577.456 204.686 577.332 204.765 577.276 204.732C577.219 204.699 577.139 204.576 577.172 204.519C577.24 204.405 577.33 204.383 577.386 204.416ZM602.59 204.853C602.715 204.774 602.884 204.873 602.964 204.997C603.044 205.121 602.945 205.289 602.821 205.369C602.697 205.449 602.527 205.349 602.447 205.226C602.367 205.102 602.467 204.932 602.59 204.853ZM596.39 207.452C596.514 207.373 596.683 207.472 596.764 207.596C596.843 207.72 596.744 207.888 596.62 207.968C596.496 208.048 596.327 207.948 596.246 207.825C596.199 207.645 596.266 207.531 596.39 207.452ZM590.222 209.995C590.347 209.916 590.516 210.015 590.596 210.139C590.676 210.263 590.577 210.431 590.453 210.511C590.329 210.591 590.159 210.491 590.079 210.368C589.998 210.244 590.099 210.074 590.222 209.995ZM583.021 204.457C583.101 204.581 583.148 204.76 583.024 204.839C582.9 204.919 582.721 204.966 582.641 204.842C582.561 204.718 582.514 204.539 582.638 204.46C582.76 204.38 582.941 204.334 583.021 204.457ZM602.414 218.474C602.562 218.484 602.698 218.641 602.688 218.788C602.678 218.934 602.521 219.07 602.373 219.06C602.226 219.05 602.056 218.949 602.067 218.803C602.111 218.599 602.235 218.52 602.414 218.474ZM595.685 218.475C595.832 218.484 596.002 218.585 595.958 218.788C595.948 218.935 595.824 219.014 595.701 219.095C595.554 219.085 595.384 218.984 595.394 218.838C595.382 218.599 595.505 218.521 595.685 218.475ZM578.282 203.419C578.362 203.543 578.409 203.722 578.285 203.801C578.161 203.881 577.982 203.928 577.902 203.804C577.789 203.738 577.743 203.558 577.899 203.422C577.965 203.308 578.146 203.262 578.282 203.419ZM603.52 214.017C603.668 214.027 603.838 214.127 603.827 214.274C603.816 214.421 603.717 214.591 603.57 214.58C603.423 214.57 603.31 214.503 603.263 214.323C603.273 214.176 603.373 214.006 603.52 214.017ZM596.827 214.343C596.975 214.353 597.145 214.453 597.134 214.6C597.124 214.747 597.057 214.86 596.877 214.906C596.73 214.896 596.56 214.796 596.57 214.649C596.613 214.446 596.681 214.333 596.827 214.343ZM590.169 214.614C590.316 214.624 590.486 214.725 590.475 214.871C590.465 215.018 590.365 215.188 590.218 215.178C590.071 215.168 589.901 215.067 589.911 214.921C589.864 214.74 590.021 214.604 590.169 214.614ZM590.561 204.247C590.686 204.168 590.855 204.268 590.935 204.391C591.015 204.515 590.916 204.684 590.792 204.764C590.668 204.843 590.498 204.743 590.418 204.62C590.371 204.441 590.438 204.328 590.561 204.247ZM584.463 207.06C584.588 206.981 584.757 207.081 584.837 207.204C584.917 207.328 584.817 207.497 584.694 207.577C584.569 207.656 584.4 207.556 584.32 207.433C584.273 207.253 584.34 207.14 584.463 207.06ZM592.343 216.886C592.49 216.896 592.513 216.986 592.502 217.132C592.492 217.279 592.402 217.303 592.255 217.292C592.107 217.282 592.085 217.191 592.095 217.045C592.161 216.932 592.195 216.875 592.343 216.886ZM589.304 206.633C589.395 206.61 589.509 206.677 589.531 206.766C589.554 206.856 589.487 206.97 589.397 206.991C589.307 207.014 589.193 206.948 589.171 206.858C589.147 206.769 589.214 206.656 589.304 206.633ZM584.412 207.793C584.503 207.77 584.616 207.837 584.696 207.96C584.72 208.05 584.653 208.164 584.563 208.185C584.472 208.208 584.358 208.142 584.336 208.052C584.199 207.896 584.266 207.782 584.412 207.793Z" fill="white"/>
</g>
<defs>
<linearGradient id="paint0_linear" x1="96.46" y1="222.277" x2="584.502" y2="222.277" gradientUnits="userSpaceOnUse">
<stop stop-color="#EEEEEE"/>
<stop offset="1" stop-color="#D6D7D8"/>
</linearGradient>
<linearGradient id="paint1_linear" x1="68.8999" y1="69.5872" x2="124.187" y2="69.5872" gradientUnits="userSpaceOnUse">
<stop stop-color="#A1C3FC"/>
<stop offset="1" stop-color="#78A9EF"/>
</linearGradient>
<linearGradient id="paint2_linear" x1="30.3978" y1="371.115" x2="106.354" y2="291.074" gradientUnits="userSpaceOnUse">
<stop stop-color="#428DFC"/>
<stop offset="1" stop-color="#1D72D8"/>
</linearGradient>
<linearGradient id="paint3_linear" x1="83.9603" y1="286.613" x2="83.9603" y2="209.633" gradientUnits="userSpaceOnUse">
<stop stop-color="#23286B"/>
<stop offset="1" stop-color="#151A4F"/>
</linearGradient>
<linearGradient id="paint4_linear" x1="58.0923" y1="225.877" x2="118.459" y2="197.21" gradientUnits="userSpaceOnUse">
<stop stop-color="#23286B"/>
<stop offset="1" stop-color="#151A4F"/>
</linearGradient>
<linearGradient id="paint5_linear" x1="635.669" y1="437.674" x2="578.746" y2="437.674" gradientUnits="userSpaceOnUse">
<stop stop-color="#EEEEEE"/>
<stop offset="1" stop-color="#D6D7D8"/>
</linearGradient>
<linearGradient id="paint6_linear" x1="597.831" y1="230.03" x2="543.644" y2="218.53" gradientUnits="userSpaceOnUse">
<stop stop-color="#428DFC"/>
<stop offset="1" stop-color="#1D72D8"/>
</linearGradient>
<linearGradient id="paint7_linear" x1="625.245" y1="231.083" x2="593.278" y2="252.74" gradientUnits="userSpaceOnUse">
<stop stop-color="#428DFC"/>
<stop offset="1" stop-color="#1D72D8"/>
</linearGradient>
<linearGradient id="paint8_linear" x1="571.203" y1="325.966" x2="645.37" y2="382.655" gradientUnits="userSpaceOnUse">
<stop stop-color="#23286B"/>
<stop offset="1" stop-color="#151A4F"/>
</linearGradient>
<linearGradient id="paint9_linear" x1="654.024" y1="292.012" x2="653.51" y2="305.547" gradientUnits="userSpaceOnUse">
<stop stop-color="#FFBEB6"/>
<stop offset="1" stop-color="#F2A19C"/>
</linearGradient>
<clipPath id="clip0">
<rect width="689" height="458.942" fill="white"/>
</clipPath>
</defs>
</svg>
