<svg width="267" height="200" viewBox="0 0 267 200" fill="none" xmlns="http://www.w3.org/2000/svg">
<path d="M80.559 112.367C100.291 112.367 116.286 96.0796 116.286 75.9879C116.286 55.8962 100.291 39.6086 80.559 39.6086C60.8273 39.6086 44.8315 55.8962 44.8315 75.9879C44.8315 96.0796 60.8273 112.367 80.559 112.367Z" fill="url(#paint0_linear)"/>
<g opacity="0.69">
<g opacity="0.69">
<path opacity="0.69" d="M210.057 43.1655L205.552 38.693L210.057 34.1851L210.796 34.9246L207.065 38.693L210.796 42.4259L210.057 43.1655Z" fill="#B4D1E7"/>
</g>
<g opacity="0.69">
<path opacity="0.69" d="M206.713 43.1655L202.243 38.693L206.713 34.1851L207.488 34.9246L203.722 38.693L207.488 42.4259L206.713 43.1655Z" fill="#B4D1E7"/>
</g>
</g>
<g opacity="0.69">
<g opacity="0.69">
<path opacity="0.69" d="M25.4369 81.517L24.6978 80.742L28.4288 77.0091L24.6978 73.241L25.4369 72.5015L29.9071 77.0091L25.4369 81.517Z" fill="#1D72D8"/>
</g>
<g opacity="0.69">
<path opacity="0.69" d="M28.7808 81.517L28.0065 80.742L31.7729 77.0091L28.0065 73.241L28.7808 72.5015L33.2513 77.0091L28.7808 81.517Z" fill="#1D72D8"/>
</g>
</g>
<path opacity="0.45" d="M217.132 140.259L220.547 142.02C220.899 142.126 221.251 142.196 221.603 142.266L216.288 139.519C216.569 139.801 216.851 140.048 217.132 140.259Z" fill="#A5C6EC"/>
<path opacity="0.45" d="M215.302 138.463L223.046 142.442C223.222 142.442 223.433 142.442 223.609 142.442L214.985 138.005C215.091 138.146 215.197 138.287 215.302 138.463Z" fill="#A5C6EC"/>
<path opacity="0.45" d="M214.563 137.195L224.63 142.372C224.771 142.337 224.912 142.337 225.087 142.302L214.422 136.808C214.457 136.948 214.493 137.054 214.563 137.195Z" fill="#A5C6EC"/>
<path opacity="0.45" d="M214.317 136.174L225.897 142.125C226.038 142.09 226.143 142.055 226.284 142.02L214.317 135.856C214.281 135.962 214.281 136.068 214.317 136.174Z" fill="#A5C6EC"/>
<path opacity="0.45" d="M214.352 135.329L226.988 141.809C227.094 141.773 227.2 141.738 227.305 141.668L214.422 135.047C214.352 135.117 214.352 135.223 214.352 135.329Z" fill="#A5C6EC"/>
<path opacity="0.45" d="M214.528 134.518L227.904 141.421C228.009 141.386 228.08 141.315 228.185 141.28L214.598 134.272C214.563 134.342 214.528 134.448 214.528 134.518Z" fill="#A5C6EC"/>
<path opacity="0.45" d="M214.774 133.779L228.713 140.963C228.783 140.928 228.889 140.857 228.959 140.787L214.844 133.532C214.845 133.638 214.809 133.709 214.774 133.779Z" fill="#A5C6EC"/>
<path opacity="0.45" d="M215.091 133.074L229.452 140.47C229.523 140.4 229.628 140.364 229.699 140.294L215.232 132.828C215.196 132.898 215.161 133.004 215.091 133.074Z" fill="#A5C6EC"/>
<path opacity="0.45" d="M215.654 132.37C215.619 132.405 215.619 132.405 215.584 132.44L230.156 139.942C230.226 139.871 230.297 139.836 230.367 139.766L215.83 132.3C215.76 132.3 215.689 132.335 215.654 132.37Z" fill="#A5C6EC"/>
<path opacity="0.45" d="M216.957 132.159C216.886 132.159 216.851 132.159 216.781 132.159L230.755 139.343C230.825 139.273 230.86 139.202 230.931 139.132L217.309 132.124C217.168 132.159 217.062 132.159 216.957 132.159Z" fill="#A5C6EC"/>
<path opacity="0.45" d="M218.153 132.018L231.247 138.745C231.318 138.675 231.353 138.604 231.388 138.534L218.47 131.913C218.4 131.948 218.294 131.983 218.153 132.018Z" fill="#A5C6EC"/>
<path opacity="0.45" d="M219.139 131.631L231.705 138.111C231.74 138.04 231.811 137.97 231.846 137.899L219.42 131.525C219.35 131.525 219.244 131.596 219.139 131.631Z" fill="#A5C6EC"/>
<path opacity="0.45" d="M219.948 131.173L232.127 137.442C232.162 137.371 232.197 137.301 232.233 137.195L220.195 130.997C220.089 131.032 220.019 131.103 219.948 131.173Z" fill="#A5C6EC"/>
<path opacity="0.45" d="M220.582 130.609L232.409 136.702C232.444 136.631 232.479 136.526 232.515 136.455L220.758 130.398C220.723 130.503 220.653 130.539 220.582 130.609Z" fill="#A5C6EC"/>
<path opacity="0.45" d="M221.11 130.011L232.655 135.962C232.691 135.892 232.691 135.786 232.726 135.716L221.251 129.8C221.216 129.87 221.18 129.94 221.11 130.011Z" fill="#A5C6EC"/>
<path opacity="0.45" d="M221.532 129.342L232.832 135.153C232.832 135.047 232.867 134.976 232.867 134.871L221.673 129.095C221.638 129.201 221.603 129.271 221.532 129.342Z" fill="#A5C6EC"/>
<path opacity="0.45" d="M232.902 134.025L221.955 128.391C221.92 128.461 221.885 128.567 221.885 128.637L232.902 134.307C232.902 134.202 232.902 134.131 232.902 134.025Z" fill="#A5C6EC"/>
<path opacity="0.45" d="M232.796 133.074L222.131 127.581C222.131 127.686 222.095 127.757 222.095 127.862L232.867 133.391C232.831 133.286 232.831 133.18 232.796 133.074Z" fill="#A5C6EC"/>
<path opacity="0.45" d="M232.514 132.053L222.342 126.806C222.307 126.876 222.272 126.947 222.236 127.052L232.62 132.405C232.62 132.3 232.585 132.194 232.514 132.053Z" fill="#A5C6EC"/>
<path opacity="0.45" d="M231.987 130.962C231.951 130.927 231.951 130.891 231.916 130.891L222.905 126.243C222.8 126.278 222.729 126.349 222.659 126.419L232.163 131.314C232.127 131.208 232.057 131.067 231.987 130.962Z" fill="#A5C6EC"/>
<path opacity="0.45" d="M230.332 129.165L224.524 126.172C224.278 126.102 223.996 126.066 223.75 126.066L231.107 129.87C230.86 129.623 230.614 129.412 230.332 129.165Z" fill="#A5C6EC"/>
<path opacity="0.7" d="M221.286 47.4265C220.652 46.6166 220.019 45.8416 219.385 45.0669L125.121 117.333C125.685 118.178 126.283 118.988 126.917 119.798C130.401 124.341 134.379 128.215 138.743 131.454L139.94 130.01L186.227 118.952C186.192 119.551 186.157 120.15 186.121 120.748L139.377 131.912C139.729 132.159 140.116 132.441 140.468 132.687L186.016 121.805C185.981 122.404 185.875 122.862 185.805 123.495L142.263 133.885C142.474 134.026 142.721 134.166 142.967 134.307L185.699 124.094C185.559 124.728 185.418 125.503 185.242 126.137L145.29 135.68C145.677 135.892 146.065 136.103 146.417 136.279L185.03 127.052C184.854 127.545 184.678 128.179 184.502 128.813L148.634 137.371C149.056 137.582 149.479 137.758 149.901 137.97L184.115 129.799C183.904 130.433 183.693 131.067 183.411 131.596L152.4 138.991C152.964 139.202 153.527 139.414 154.09 139.625L182.918 132.722C182.566 133.391 182.214 134.06 181.827 134.765L157.223 140.646C157.61 140.752 157.962 140.857 158.349 140.963L181.44 135.469C181.053 136.315 180.56 137.019 180.102 137.723L162.397 141.949C163.101 142.09 163.805 142.231 164.509 142.336L179.187 138.85C179.011 139.202 178.8 139.378 178.589 139.625C178.237 140.047 177.92 140.47 177.533 140.857L168.979 142.9C170.141 143.006 171.303 143.076 172.464 143.111L176.336 142.195C176.019 142.513 175.703 142.829 175.386 143.111C187.6 142.865 199.849 138.85 210.268 130.855C236.316 110.852 241.244 73.5223 221.286 47.4265ZM172.183 90.2856C172.218 90.3208 172.288 90.3914 172.324 90.3914L172.042 90.4617L172.183 90.2856ZM171.021 91.7296L173.309 91.1661C173.415 91.307 173.485 91.2719 173.555 91.3422C174.048 91.7296 174.506 92.1875 174.963 92.5397L169.191 93.9131L171.021 91.7296ZM168.205 95.2161L175.843 93.3848C176.301 93.8779 176.688 94.2301 177.111 94.6878L166.586 97.1883L168.205 95.2161ZM165.988 97.963L177.568 95.2161C177.99 95.7092 178.413 96.202 178.835 96.6952L164.192 100.182L165.988 97.963ZM163.172 101.45L179.469 97.5405C179.821 98.0336 180.103 98.421 180.455 98.9493L161.553 103.457L163.172 101.45ZM160.532 104.725L181.018 99.8295C181.3 100.217 181.581 100.745 181.827 101.097L158.913 106.556L160.532 104.725ZM158.103 107.648L182.215 101.872C182.496 102.401 182.813 103.07 183.095 103.598L156.062 110.043L158.103 107.648ZM155.463 110.817L183.341 104.161C183.623 104.831 183.834 105.359 184.045 105.922L153.668 113.142L155.463 110.817ZM152.647 114.269L184.326 106.697C184.502 107.26 184.678 107.789 184.819 108.211L151.028 116.276L152.647 114.269ZM150.43 117.016L184.995 108.775C185.171 109.479 185.312 110.043 185.488 110.712L148.458 119.551L150.43 117.016ZM147.578 120.502L185.594 111.416C185.699 111.98 185.805 112.543 185.875 112.966L145.995 122.474L147.578 120.502ZM144.974 123.812L185.981 114.022C186.051 114.586 186.087 115.044 186.122 115.607L143.354 125.82L144.974 123.812ZM140.539 129.271L142.545 126.735L186.192 116.311C186.227 117.051 186.227 117.614 186.263 118.354L140.539 129.271Z" fill="url(#paint1_linear)"/>
<path d="M150.676 152.268L168.593 147.972C169.93 147.197 171.268 146.457 172.5 145.401L145.995 151.74C147.579 152.127 149.092 152.198 150.676 152.268Z" fill="#EBF2FE"/>
<path d="M172.429 143.076L141.102 150.542C142.123 150.894 143.143 151.247 144.199 151.423L173.943 144.309C174.436 143.921 174.893 143.499 175.351 143.041C174.4 143.112 173.415 143.112 172.429 143.076Z" fill="#EBF2FE"/>
<path d="M176.301 142.161L172.429 143.077C173.415 143.112 174.366 143.112 175.351 143.077C175.668 142.795 175.984 142.478 176.301 142.161Z" fill="#EBF3FA"/>
<path d="M129.416 142.865L128.958 143.428C129.31 143.745 129.662 144.133 130.014 144.344L152.366 138.991C151.521 138.674 150.712 138.322 149.902 137.97L129.416 142.865Z" fill="#EBF2FE"/>
<path d="M184.115 129.799L149.902 137.97C150.711 138.322 151.556 138.674 152.366 138.991L183.376 131.596C183.693 131.103 183.904 130.433 184.115 129.799Z" fill="#EBF3FA"/>
<path d="M134.907 136.244L132.865 138.639L145.326 135.681C144.552 135.258 143.777 134.8 143.003 134.307L134.907 136.244Z" fill="#EBF2FE"/>
<path d="M185.7 124.129L142.968 134.342C143.742 134.8 144.516 135.258 145.291 135.716L185.242 126.172C185.418 125.503 185.559 124.728 185.7 124.129Z" fill="#EBF3FA"/>
<path d="M132.056 139.731L130.437 141.738L148.635 137.406C147.895 137.054 147.156 136.702 146.452 136.315L132.056 139.731Z" fill="#EBF2FE"/>
<path d="M185.031 127.088L146.417 136.315C147.156 136.702 147.86 137.054 148.599 137.406L184.538 128.813C184.679 128.18 184.855 127.581 185.031 127.088Z" fill="#EBF3FA"/>
<path d="M131 145.154C131.598 145.612 132.232 146.035 132.865 146.492L157.223 140.681C156.167 140.364 155.111 140.048 154.09 139.66L131 145.154Z" fill="#EBF2FE"/>
<path d="M182.919 132.758L154.091 139.66C155.147 140.048 156.167 140.365 157.223 140.682L181.828 134.801C182.215 134.096 182.567 133.427 182.919 132.758Z" fill="#EBF3FA"/>
<path d="M173.556 91.3775C173.485 91.3072 173.415 91.3072 173.309 91.2014L171.022 91.7649L169.191 93.9835L174.964 92.6102C174.541 92.2228 174.048 91.7649 173.556 91.3775Z" fill="#EBF3FA"/>
<path d="M184.995 108.775L150.43 117.016L148.423 119.551L185.453 110.712C185.312 110.043 185.171 109.479 184.995 108.775Z" fill="#EBF3FA"/>
<path d="M137.054 148.887C137.828 149.274 138.638 149.697 139.447 149.944L168.945 142.9C167.466 142.759 165.953 142.583 164.474 142.337L137.054 148.887Z" fill="#EBF2FE"/>
<path d="M178.554 139.59C178.765 139.343 178.976 139.132 179.152 138.815L164.474 142.301C165.952 142.548 167.431 142.724 168.944 142.865L177.498 140.822C177.85 140.47 178.202 140.012 178.554 139.59Z" fill="#EBF3FA"/>
<path d="M172.183 90.2856L172.042 90.4617L172.324 90.3914C172.288 90.3914 172.218 90.3211 172.183 90.2856Z" fill="#EBF3FA"/>
<path d="M133.534 146.915C134.273 147.479 135.012 147.901 135.751 148.324L162.362 141.95C161.025 141.668 159.652 141.351 158.314 140.999L133.534 146.915Z" fill="#EBF2FE"/>
<path d="M181.405 135.469L158.314 140.963C159.651 141.316 160.989 141.633 162.362 141.914L180.067 137.688C180.56 137.019 181.018 136.315 181.405 135.469Z" fill="#EBF3FA"/>
<path d="M137.124 133.497L135.505 135.505L142.263 133.885C141.665 133.497 141.066 133.11 140.468 132.688L137.124 133.497Z" fill="#EBF2FE"/>
<path d="M186.016 121.805L140.469 132.687C141.067 133.11 141.665 133.497 142.264 133.885L185.805 123.495C185.876 122.897 185.981 122.404 186.016 121.805Z" fill="#EBF3FA"/>
<path d="M181.018 99.8296L160.532 104.725L158.877 106.591L181.792 101.133C181.581 100.71 181.299 100.217 181.018 99.8296Z" fill="#EBF3FA"/>
<path d="M177.568 95.1812L165.988 97.9281L164.157 100.147L178.801 96.6603C178.413 96.1671 177.991 95.6743 177.568 95.1812Z" fill="#EBF3FA"/>
<path d="M179.469 97.5405L163.172 101.45L161.552 103.457L180.455 98.949C180.138 98.421 179.821 98.0337 179.469 97.5405Z" fill="#EBF3FA"/>
<path d="M182.215 101.907L158.103 107.683L156.062 110.078L183.095 103.633C182.848 103.07 182.532 102.436 182.215 101.907Z" fill="#EBF3FA"/>
<path d="M175.844 93.3848L168.205 95.2161L166.586 97.2234L177.11 94.7229C176.688 94.2301 176.301 93.8779 175.844 93.3848Z" fill="#EBF3FA"/>
<path d="M138.11 132.23L139.377 131.913C139.166 131.772 138.955 131.595 138.744 131.455L138.11 132.23Z" fill="#EBF2FE"/>
<path d="M186.227 118.952L139.94 130.011L138.744 131.455C138.955 131.596 139.166 131.772 139.377 131.912L186.122 120.749C186.157 120.15 186.192 119.551 186.227 118.952Z" fill="#EBF3FA"/>
<path d="M164.157 150.084L155.569 152.127C158.49 151.74 161.412 151.176 164.157 150.084Z" fill="#EBF2FE"/>
<path d="M186.016 113.987L145.009 123.777L143.39 125.784L186.157 115.571C186.087 115.008 186.087 114.586 186.016 113.987Z" fill="#EBF3FA"/>
<path d="M142.545 126.736L140.539 129.271L186.228 118.354C186.228 117.615 186.228 117.016 186.157 116.312L142.545 126.736Z" fill="#EBF3FA"/>
<path d="M184.327 106.732L152.647 114.304L151.028 116.311L184.819 108.247C184.679 107.824 184.538 107.261 184.327 106.732Z" fill="#EBF3FA"/>
<path d="M185.594 111.451L147.578 120.537L145.959 122.545L185.84 113.036C185.805 112.578 185.699 112.015 185.594 111.451Z" fill="#EBF3FA"/>
<path d="M183.341 104.161L155.463 110.817L153.668 113.177L184.01 105.922C183.834 105.359 183.622 104.831 183.341 104.161Z" fill="#EBF3FA"/>
<path d="M203.299 66.127H204.355V68.592H203.299V66.127ZM203.299 87.2572H204.355V90.0745H203.299V87.2572ZM201.539 60.4921H202.947V63.3094H201.539V60.4921ZM201.539 81.6224H202.947V84.4397H201.539V81.6224ZM199.779 55.2095H201.187V57.6746H199.779V55.2095ZM199.779 76.3397H201.187V79.157H199.779V76.3397ZM199.779 98.1744H201.187V100.992H199.779V98.1744ZM197.315 49.5749H198.723V52.3922H197.315V49.5749ZM197.315 71.4096H198.723V74.2269H197.315V71.4096ZM197.315 92.5398H198.723V95.3571H197.315V92.5398ZM195.555 66.127H196.611V68.592H195.555V66.127ZM195.555 87.2572H196.611V90.0745H195.555V87.2572ZM193.795 60.4921H194.851V63.3094H193.795V60.4921ZM193.795 81.6224H194.851V84.4397H193.795V81.6224ZM193.795 103.457H194.851V105.922H193.795V103.457ZM191.683 55.2095H192.739V57.6746H191.683V55.2095ZM191.683 76.3397H192.739V79.157H191.683V76.3397ZM191.683 98.1744H192.739V100.992H191.683V98.1744ZM189.219 49.5749H190.627V52.3922H189.219V49.5749ZM189.219 71.4096H190.627V74.2269H189.219V71.4096ZM189.219 92.5398H190.627V95.3571H189.219V92.5398ZM189.219 114.374H190.627V116.839H189.219V114.374ZM187.459 44.6445H188.867V46.7577H187.459V44.6445ZM187.459 66.127H188.867V68.592H187.459V66.127ZM187.459 87.2572H188.867V90.0745H187.459V87.2572ZM187.459 109.092H188.867V111.557H187.459V109.092ZM185.699 39.0097H186.755V41.4748H185.699V39.0097ZM185.699 60.4921H186.755V63.3094H185.699V60.4921ZM185.699 81.6224H186.755V84.4397H185.699V81.6224ZM185.699 103.457H186.755V105.922H185.699V103.457ZM183.587 33.7273H184.995V36.1924H183.587V33.7273ZM183.587 55.2095H184.995V57.6746H183.587V55.2095ZM183.587 76.3397H184.995V79.157H183.587V76.3397ZM183.587 98.1744H184.995V100.992H183.587V98.1744ZM183.587 120.009H184.995V122.474H183.587V120.009ZM181.475 49.5749H182.883V52.3922H181.475V49.5749ZM181.475 71.4096H182.883V74.2269H181.475V71.4096ZM181.475 92.5398H182.883V95.3571H181.475V92.5398ZM181.475 114.374H182.883V116.839H181.475V114.374ZM179.715 44.6445H180.771V46.7577H179.715V44.6445ZM179.715 66.127H180.771V68.592H179.715V66.127ZM179.715 87.2572H180.771V90.0745H179.715V87.2572ZM179.715 109.092H180.771V111.557H179.715V109.092ZM177.604 39.0097H179.012V41.4748H177.604V39.0097ZM177.604 60.4921H179.012V63.3094H177.604V60.4921ZM177.604 81.6224H179.012V84.4397H177.604V81.6224ZM177.604 103.457H179.012V105.922H177.604V103.457ZM175.843 33.7273H177.251V36.1924H175.843V33.7273ZM175.843 55.2095H177.251V57.6746H175.843V55.2095ZM175.843 76.3397H177.251V79.157H175.843V76.3397ZM175.843 98.1744H177.251V100.992H175.843V98.1744ZM175.843 120.009H177.251V122.474H175.843V120.009ZM173.38 28.0925H174.788V30.5576H173.38V28.0925ZM173.38 49.5749H174.788V52.3922H173.38V49.5749ZM173.38 71.4096H174.788V74.2269H173.38V71.4096ZM173.38 92.5398H174.788V95.3571H173.38V92.5398ZM173.38 114.374H174.788V116.839H173.38V114.374ZM171.62 44.6445H172.676V46.7577H171.62V44.6445ZM171.62 66.127H172.676V68.592H171.62V66.127ZM171.62 87.2572H172.676V90.0745H171.62V87.2572ZM171.62 109.092H172.676V111.557H171.62V109.092ZM169.86 39.0097H170.916V41.4748H169.86V39.0097ZM169.86 60.4921H170.916V63.3094H169.86V60.4921ZM169.86 81.6224H170.916V84.4397H169.86V81.6224ZM169.86 103.457H170.916V105.922H169.86V103.457ZM169.86 125.292H170.916V127.757H169.86V125.292ZM167.748 33.7273H169.156V36.1924H167.748V33.7273ZM167.748 55.2095H169.156V57.6746H167.748V55.2095ZM167.748 76.3397H169.156V79.157H167.748V76.3397ZM167.748 98.1744H169.156V100.992H167.748V98.1744ZM167.748 120.009H169.156V122.474H167.748V120.009ZM165.636 28.0925H166.692V30.5576H165.636V28.0925ZM165.636 49.5749H166.692V52.3922H165.636V49.5749ZM165.636 71.4096H166.692V74.2269H165.636V71.4096ZM165.636 92.5398H166.692V95.3571H165.636V92.5398ZM165.636 114.374H166.692V116.839H165.636V114.374ZM163.524 22.8098H164.932V25.2749H163.524V22.8098ZM163.524 44.6445H164.932V46.7577H163.524V44.6445ZM163.524 66.127H164.932V68.592H163.524V66.127ZM163.524 87.2572H164.932V90.0745H163.524V87.2572ZM163.524 109.092H164.932V111.557H163.524V109.092ZM163.524 130.927H164.932V133.392H163.524V130.927ZM161.764 39.0097H163.172V41.4748H161.764V39.0097ZM161.764 60.4921H163.172V63.3094H161.764V60.4921ZM161.764 81.6224H163.172V84.4397H161.764V81.6224ZM161.764 103.457H163.172V105.922H161.764V103.457ZM161.764 125.292H163.172V127.757H161.764V125.292ZM160.004 33.7273H161.06V36.1924H160.004V33.7273ZM160.004 55.2095H161.06V57.6746H160.004V55.2095ZM160.004 76.3397H161.06V79.157H160.004V76.3397ZM160.004 98.1744H161.06V100.992H160.004V98.1744ZM160.004 120.009H161.06V122.474H160.004V120.009ZM157.54 28.0925H158.948V30.5576H157.54V28.0925ZM157.54 49.5749H158.948V52.3922H157.54V49.5749ZM157.54 71.4096H158.948V74.2269H157.54V71.4096ZM157.54 92.5398H158.948V95.3571H157.54V92.5398ZM157.54 114.374H158.948V116.839H157.54V114.374ZM155.428 22.8098H157.188V25.2749H155.428V22.8098ZM155.428 44.6445H157.188V46.7577H155.428V44.6445ZM155.428 66.127H157.188V68.592H155.428V66.127ZM155.428 87.2572H157.188V90.0745H155.428V87.2572ZM155.428 109.092H157.188V111.557H155.428V109.092ZM155.428 130.927H157.188V133.392H155.428V130.927ZM153.668 39.0097H155.076V41.4748H153.668V39.0097ZM153.668 60.4921H155.076V63.3094H153.668V60.4921ZM153.668 81.6224H155.076V84.4397H153.668V81.6224ZM153.668 103.457H155.076V105.922H153.668V103.457ZM153.668 125.292H155.076V127.757H153.668V125.292ZM151.908 33.7273H153.316V36.1924H151.908V33.7273ZM151.908 55.2095H153.316V57.6746H151.908V55.2095ZM151.908 76.3397H153.316V79.157H151.908V76.3397ZM151.908 98.1744H153.316V100.992H151.908V98.1744ZM151.908 120.009H153.316V122.474H151.908V120.009ZM149.796 28.0925H150.852V30.5576H149.796V28.0925ZM149.796 49.5749H150.852V52.3922H149.796V49.5749ZM149.796 71.4096H150.852V74.2269H149.796V71.4096ZM149.796 92.5398H150.852V95.3571H149.796V92.5398ZM149.796 114.374H150.852V116.839H149.796V114.374ZM84.6774 68.592H83.6213V66.127H84.6774V68.592ZM86.7892 95.3571H85.7332V92.5398H86.7892V95.3571ZM86.7892 74.2269H85.7332V71.4096H86.7892V74.2269ZM88.9013 100.992H87.8453V98.1747H88.9013V100.992ZM88.9013 79.1573H87.8453V76.3397H88.9013V79.1573ZM88.9013 57.6748H87.8453V55.2098H88.9013V57.6748ZM91.0131 105.922H89.9571V103.457H91.0131V105.922ZM91.0131 84.4399H89.9571V81.6227H91.0131V84.4399ZM91.0131 63.3097H89.9571V60.4924H91.0131V63.3097ZM92.7732 90.0745H91.3651V87.2572H92.7732V90.0745ZM92.7732 68.592H91.3651V66.127H92.7732V68.592ZM94.533 95.3571H93.477V92.5398H94.533V95.3571ZM94.533 74.2269H93.477V71.4096H94.533V74.2269ZM94.533 52.3922H93.477V49.5749H94.533V52.3922ZM96.9971 100.992H95.589V98.1747H96.9971V100.992ZM96.9971 79.1573H95.589V76.3397H96.9971V79.1573ZM96.9971 57.6748H95.589V55.2098H96.9971V57.6748ZM99.1089 105.922H97.7009V103.457H99.1089V105.922ZM99.1089 84.4399H97.7009V81.6227H99.1089V84.4399ZM99.1089 63.3097H97.7009V60.4924H99.1089V63.3097ZM99.1089 41.475H97.7009V39.0099H99.1089V41.475ZM100.869 111.557H99.461V109.092H100.869V111.557ZM100.869 90.0745H99.461V87.2572H100.869V90.0745ZM100.869 68.592H99.461V66.127H100.869V68.592ZM100.869 46.7574H99.461V44.6442H100.869V46.7574ZM102.629 116.84H101.573V114.374H102.629V116.84ZM102.629 95.3571H101.573V92.5398H102.629V95.3571ZM102.629 74.2269H101.573V71.4096H102.629V74.2269ZM102.629 52.3922H101.573V49.5749H102.629V52.3922ZM105.093 122.474H103.685V120.009H105.093V122.474ZM105.093 100.992H103.685V98.1747H105.093V100.992ZM105.093 79.1573H103.685V76.3397H105.093V79.1573ZM105.093 57.6748H103.685V55.2098H105.093V57.6748ZM105.093 36.1924H103.685V33.7273H105.093V36.1924ZM106.853 105.922H105.445V103.457H106.853V105.922ZM106.853 84.4399H105.445V81.6227H106.853V84.4399ZM106.853 63.3097H105.445V60.4924H106.853V63.3097ZM106.853 41.475H105.445V39.0099H106.853V41.475ZM108.613 111.557H107.205V109.092H108.613V111.557ZM108.613 90.0745H107.205V87.2572H108.613V90.0745ZM108.613 68.592H107.205V66.127H108.613V68.592ZM108.613 46.7574H107.205V44.6442H108.613V46.7574ZM110.725 116.84H109.317V114.374H110.725V116.84ZM110.725 95.3571H109.317V92.5398H110.725V95.3571ZM110.725 74.2269H109.317V71.4096H110.725V74.2269ZM110.725 52.3922H109.317V49.5749H110.725V52.3922ZM110.725 30.5576H109.317V28.0925H110.725V30.5576ZM112.837 122.474H111.781V120.009H112.837V122.474ZM112.837 100.992H111.781V98.1747H112.837V100.992ZM112.837 79.1573H111.781V76.3397H112.837V79.1573ZM112.837 57.6748H111.781V55.2098H112.837V57.6748ZM112.837 36.1924H111.781V33.7273H112.837V36.1924ZM114.949 127.757H113.54V125.292H114.949V127.757ZM114.949 105.922H113.54V103.457H114.949V105.922ZM114.949 84.4399H113.54V81.6227H114.949V84.4399ZM114.949 63.3097H113.54V60.4924H114.949V63.3097ZM114.949 41.475H113.54V39.0099H114.949V41.475ZM116.709 111.557H115.653V109.092H116.709V111.557ZM116.709 90.0745H115.653V87.2572H116.709V90.0745ZM116.709 68.592H115.653V66.127H116.709V68.592ZM116.709 46.7574H115.653V44.6442H116.709V46.7574ZM118.469 116.84H117.413V114.374H118.469V116.84ZM118.469 95.3571H117.413V92.5398H118.469V95.3571ZM118.469 74.2269H117.413V71.4096H118.469V74.2269ZM118.469 52.3922H117.413V49.5749H118.469V52.3922ZM118.469 30.5576H117.413V28.0925H118.469V30.5576ZM120.933 122.474H119.524V120.009H120.933V122.474ZM120.933 100.992H119.524V98.1747H120.933V100.992ZM120.933 79.1573H119.524V76.3397H120.933V79.1573ZM120.933 57.6748H119.524V55.2098H120.933V57.6748ZM120.933 36.1924H119.524V33.7273H120.933V36.1924ZM122.693 127.757H121.285V125.292H122.693V127.757ZM122.693 105.922H121.285V103.457H122.693V105.922ZM122.693 84.4399H121.285V81.6227H122.693V84.4399ZM122.693 63.3097H121.285V60.4924H122.693V63.3097ZM122.693 41.475H121.285V39.0099H122.693V41.475ZM124.452 133.392H123.396V130.927H124.452V133.392ZM124.452 111.557H123.396V109.092H124.452V111.557ZM124.452 90.0745H123.396V87.2572H124.452V90.0745ZM124.452 68.592H123.396V66.127H124.452V68.592ZM124.452 46.7574H123.396V44.6442H124.452V46.7574ZM124.452 25.2752H123.396V22.8101H124.452V25.2752ZM126.565 116.84H125.156V114.374H126.565V116.84ZM126.565 95.3571H125.156V92.5398H126.565V95.3571ZM126.565 74.2269H125.156V71.4096H126.565V74.2269ZM126.565 52.3922H125.156V49.5749H126.565V52.3922ZM126.565 30.5576H125.156V28.0925H126.565V30.5576ZM129.028 122.474H127.62V120.009H129.028V122.474ZM129.028 100.992H127.62V98.1747H129.028V100.992ZM129.028 79.1573H127.62V76.3397H129.028V79.1573ZM129.028 57.6748H127.62V55.2098H129.028V57.6748ZM129.028 36.1924H127.62V33.7273H129.028V36.1924ZM130.788 127.757H129.38V125.292H130.788V127.757ZM130.788 105.922H129.38V103.457H130.788V105.922ZM130.788 84.4399H129.38V81.6227H130.788V84.4399ZM130.788 63.3097H129.38V60.4924H130.788V63.3097ZM130.788 41.475H129.38V39.0099H130.788V41.475ZM132.548 133.392H131.14V130.927H132.548V133.392ZM132.548 111.557H131.14V109.092H132.548V111.557ZM132.548 90.0745H131.14V87.2572H132.548V90.0745ZM132.548 68.592H131.14V66.127H132.548V68.592ZM132.548 46.7574H131.14V44.6442H132.548V46.7574ZM132.548 25.2752H131.14V22.8101H132.548V25.2752ZM134.66 116.84H133.252V114.374H134.66V116.84ZM134.66 95.3571H133.252V92.5398H134.66V95.3571ZM134.66 74.2269H133.252V71.4096H134.66V74.2269ZM134.66 52.3922H133.252V49.5749H134.66V52.3922ZM134.66 30.5576H133.252V28.0925H134.66V30.5576ZM136.772 122.474H135.716V120.009H136.772V122.474ZM136.772 100.992H135.716V98.1747H136.772V100.992ZM136.772 79.1573H135.716V76.3397H136.772V79.1573ZM136.772 57.6748H135.716V55.2098H136.772V57.6748ZM136.772 36.1924H135.716V33.7273H136.772V36.1924ZM138.884 127.757H137.476V125.292H138.884V127.757ZM138.884 105.922H137.476V103.457H138.884V105.922ZM138.884 84.4399H137.476V81.6227H138.884V84.4399ZM138.884 63.3097H137.476V60.4924H138.884V63.3097ZM138.884 41.475H137.476V39.0099H138.884V41.475ZM140.644 133.392H139.236V130.927H140.644V133.392ZM140.644 111.557H139.236V109.092H140.644V111.557ZM140.644 90.0745H139.236V87.2572H140.644V90.0745ZM140.644 68.592H139.236V66.127H140.644V68.592ZM140.644 46.7574H139.236V44.6442H140.644V46.7574ZM140.644 25.2752H139.236V22.8101H140.644V25.2752ZM142.404 116.84H140.996V114.374H142.404V116.84ZM142.404 95.3571H140.996V92.5398H142.404V95.3571ZM142.404 74.2269H140.996V71.4096H142.404V74.2269ZM142.404 52.3922H140.996V49.5749H142.404V52.3922ZM142.404 30.5576H140.996V28.0925H142.404V30.5576ZM145.22 122.474H143.812V120.009H145.22V122.474ZM145.22 100.992H143.812V98.1747H145.22V100.992ZM145.22 79.1573H143.812V76.3397H145.22V79.1573ZM145.22 57.6748H143.812V55.2098H145.22V57.6748ZM145.22 36.1924H143.812V33.7273H145.22V36.1924ZM147.332 127.757H145.924V125.292H147.332V127.757ZM147.332 105.922H145.924V103.457H147.332V105.922ZM147.332 84.4399H145.924V81.6227H147.332V84.4399ZM147.332 63.3097H145.924V60.4924H147.332V63.3097ZM147.332 41.475H145.924V39.0099H147.332V41.475ZM147.332 19.6404H145.924V17.1753H147.332V19.6404ZM149.092 133.392H147.684V130.927H149.092V133.392ZM149.092 111.557H147.684V109.092H149.092V111.557ZM149.092 90.0745H147.684V87.2572H149.092V90.0745ZM149.092 68.592H147.684V66.127H149.092V68.592ZM149.092 46.7574H147.684V44.6442H149.092V46.7574ZM147.684 25.2752V22.8101H149.092V25.2752H147.684Z" fill="#EEEEEE"/>
<path d="M89.957 39.3618H85.0293V61.4077L89.957 66.2678V39.3618Z" fill="white"/>
<path d="M80.8054 39.3618H75.8774V52.3922L80.8054 57.2523V39.3618Z" fill="white"/>
<path d="M71.6536 39.3618H67.0776V43.3766L71.6536 48.2364V39.3618Z" fill="white"/>
<path d="M107.557 39.3618H102.981V79.4389L107.557 84.1229V39.3618Z" fill="white"/>
<path d="M111.781 88.2431L116.005 92.3988V39.3618H111.781V88.2431Z" fill="white"/>
<path d="M98.7568 39.3618H93.8289V70.4233L98.7568 75.2834V39.3618Z" fill="white"/>
<path d="M184.667 24.1667H61V98.8334H184.667V24.1667Z" fill="#EEEEEE"/>
<path d="M183.019 37.1732H62.0571V29.55C62.0571 26.8828 64.219 24.7205 66.8858 24.7205H183.019V37.1732Z" fill="url(#paint2_linear)"/>
<path d="M76.3222 38.5284H63.1536V30.8683C63.1536 28.2214 65.2989 26.0757 67.9453 26.0757H76.3222V38.5284Z" fill="#78A9EF"/>
<path d="M73.1311 28.9082H66.3445V35.6961H73.1311V28.9082Z" fill="#89B3F4"/>
<path d="M85.4442 43.7761H63.0107V49.0556H85.4442V43.7761Z" fill="url(#paint3_linear)"/>
<path d="M105.741 43.7761H83.3079V49.0556H105.741V43.7761Z" fill="#F2F2F2"/>
<path d="M126.038 43.7761H103.605V49.0556H126.038V43.7761Z" fill="url(#paint4_linear)"/>
<path d="M146.335 43.7761H123.902V49.0556H146.335V43.7761Z" fill="#F2F2F2"/>
<path d="M166.632 43.7761H144.198V49.0556H166.632V43.7761Z" fill="url(#paint5_linear)"/>
<path d="M182.781 43.7761H160.348V49.0556H182.781V43.7761Z" fill="#F2F2F2"/>
<path d="M172.602 41.2619H84.8787C83.6344 41.2619 82.6165 40.2438 82.6165 38.9993V37.9936C82.6165 36.7491 83.6344 35.731 84.8787 35.731H172.602C173.846 35.731 174.864 36.7491 174.864 37.9936V38.9993C174.864 40.2438 173.846 41.2619 172.602 41.2619Z" fill="#F7F7F7"/>
<path d="M85.5656 39.1313C85.8779 39.1313 86.1311 38.8781 86.1311 38.5657C86.1311 38.2533 85.8779 38 85.5656 38C85.2532 38 85 38.2533 85 38.5657C85 38.8781 85.2532 39.1313 85.5656 39.1313Z" fill="#23286B"/>
<path d="M88.5814 39.1313C88.8937 39.1313 89.1469 38.8781 89.1469 38.5657C89.1469 38.2533 88.8937 38 88.5814 38C88.2691 38 88.0159 38.2533 88.0159 38.5657C88.0159 38.8781 88.2691 39.1313 88.5814 39.1313Z" fill="#23286B"/>
<path d="M91.5975 39.1313C91.9098 39.1313 92.163 38.8781 92.163 38.5657C92.163 38.2533 91.9098 38 91.5975 38C91.2852 38 91.032 38.2533 91.032 38.5657C91.032 38.8781 91.2852 39.1313 91.5975 39.1313Z" fill="#23286B"/>
<path d="M166.07 79.1666H77.7634C77.4341 79.1666 77.1667 78.8971 77.1667 78.565V66.9348C77.1667 66.6028 77.4341 66.3333 77.7634 66.3333H166.07C166.399 66.3333 166.667 66.6028 166.667 66.9348V78.565C166.667 78.8971 166.399 79.1666 166.07 79.1666ZM78.3601 77.9635H165.473V67.5364H78.3601V77.9635Z" fill="#A1C3FC"/>
<path d="M163.882 69.5415H79.9512V75.9582H163.882V69.5415Z" fill="#D6D7D8"/>
<path d="M126.491 75.9582H79.9512V69.5415H126.491C129.817 69.5415 129.817 75.9582 126.491 75.9582Z" fill="#A1C3FC"/>
<path d="M56.596 172.545L53.3149 181.663H76.4999C76.4999 181.663 75.3083 179.379 71.3464 177.691C67.3845 176.003 63.6866 172.545 63.6866 172.545H56.596Z" fill="url(#paint6_linear)"/>
<path d="M40.2375 136.367C40.2375 136.367 43.0079 147.552 47.105 150.928C48.4727 152.055 50.7852 152.692 53.2679 152.271C55.5158 151.851 57.6525 150.98 59.5541 149.725L59.425 158.586C59.425 158.586 65.2887 165.39 60.8514 164.976C55.8564 164.508 54.3479 166.167 52.2935 167.598C50.2391 169.029 44.8508 171.039 39.2218 165.221C33.5929 159.403 28.7446 153.475 35.4181 140.082" fill="url(#paint7_linear)"/>
<path d="M62.6594 171.727C62.6594 171.727 59.1669 173.24 54.354 171.4C54.354 171.4 54.489 169.42 55.5925 152.488C55.8332 148.831 56.1267 144.515 56.4671 139.322C56.4671 139.322 61.5092 139.293 62.5834 142.803C62.8007 143.51 63.364 144.556 63.4873 145.881C63.9861 151.179 61.7086 163.486 62.6594 171.727Z" fill="url(#paint8_linear)"/>
<path d="M62.9704 142.803C61.8962 139.293 56.8483 139.299 56.8483 139.299C54.6295 139.205 51.9237 142.605 50.9435 144.941C48.9124 149.795 41.3995 167.072 41.0941 167.177C40.7889 167.277 31.4445 168.696 31.4445 168.696C31.4445 168.696 30.5289 179.91 38.7579 181.125C46.8462 182.317 56.4018 183.8 59.4247 158.591L59.4364 158.608C59.4364 158.608 60.7454 146.214 63.4864 145.887C63.4106 144.842 63.2404 143.808 62.9704 142.803Z" fill="#23286B"/>
<path d="M55.469 161.225C55.469 161.225 60.6752 159.52 62.495 156.547C63.8511 154.327 63.8977 153.994 63.1055 152.108C62.3132 150.221 62.495 148.095 62.008 147.243C61.5209 146.39 63.1055 146.39 63.4753 147.85C63.8392 149.31 64.2675 150.648 64.3321 150.222C64.3967 149.795 64.0798 148.347 63.5457 146.694C63.5457 146.694 63.534 145.421 65.6117 148.212C67.6896 151.004 67.7482 152.955 67.3842 154.655C67.0202 156.354 63.2286 167.843 58.345 171.307L55.469 161.225Z" fill="url(#paint9_linear)"/>
<path d="M44.9979 133.791C44.9979 133.791 43.5129 137.202 43.507 140.397L43.4895 140.403C43.4662 140.414 43.4366 140.42 43.4133 140.426C43.0848 140.496 41.8989 140.548 39.3456 138.58L40.4314 134.059L40.8835 133.312L44.9979 133.791Z" fill="url(#paint10_linear)"/>
<path d="M43.8295 122.6C43.8295 122.6 46.371 124.434 47.903 124.51C49.3762 124.586 48.7541 125.976 48.4843 126.285C48.4843 126.285 50.9966 134.562 41.7343 134.077C41.7343 134.077 40.1026 133.429 39.2808 130.392C38.4647 127.354 37.4847 127.249 38.4647 124.697C39.4449 122.144 42.3268 121.712 42.3268 121.712L43.8295 122.6Z" fill="#FFBEB6"/>
<path opacity="0.51" d="M41.0181 178.281C41.0533 178.298 41.0943 178.281 41.106 178.246C41.1235 178.211 41.106 178.17 41.0708 178.158C41.0355 178.141 40.9945 178.158 40.9828 178.193C40.9653 178.228 40.9828 178.269 41.0181 178.281ZM41.652 176.756C41.6872 176.768 41.7283 176.756 41.746 176.721C41.7576 176.686 41.7401 176.645 41.7047 176.634C41.6756 176.616 41.6343 176.628 41.6168 176.663C41.6168 176.663 41.6168 176.669 41.611 176.669C41.6049 176.704 41.6166 176.745 41.652 176.756ZM42.2976 175.238C42.3328 175.255 42.3739 175.238 42.3855 175.203C42.3972 175.168 42.3855 175.127 42.3503 175.109C42.3151 175.097 42.2741 175.115 42.2564 175.15C42.2449 175.185 42.2624 175.22 42.2976 175.238ZM47.9618 178.263C47.9735 178.298 48.0147 178.316 48.0497 178.304C48.0849 178.293 48.1026 178.257 48.091 178.222C48.091 178.222 48.091 178.217 48.0851 178.217C48.0735 178.181 48.0322 178.164 47.9972 178.176C47.9676 178.187 47.9501 178.228 47.9618 178.263ZM38.6291 175.611C38.6524 175.635 38.6995 175.641 38.723 175.611C38.7466 175.582 38.7522 175.541 38.723 175.518C38.6939 175.494 38.6526 175.489 38.6291 175.518C38.6055 175.542 38.5997 175.582 38.6291 175.611C38.6291 175.606 38.6291 175.606 38.6291 175.611ZM39.803 174.449C39.8205 174.472 39.856 174.472 39.8793 174.455H39.8851C39.891 174.455 39.8968 174.455 39.8968 174.449C39.9143 174.432 39.9201 174.414 39.9143 174.391C39.9143 174.373 39.9026 174.362 39.8968 174.35C39.8735 174.327 39.8264 174.321 39.8028 174.35C39.7795 174.373 39.7795 174.42 39.803 174.449ZM44.4458 178.047C44.4458 178.082 44.481 178.117 44.5162 178.117C44.5574 178.117 44.5866 178.082 44.5866 178.047C44.5866 178.006 44.5574 177.977 44.5162 177.977C44.4751 177.977 44.4458 178.012 44.4458 178.047ZM44.4516 176.4C44.4516 176.435 44.4868 176.464 44.522 176.464C44.5572 176.464 44.5924 176.441 44.5924 176.406V176.4C44.5924 176.359 44.5572 176.33 44.522 176.33C44.4812 176.33 44.4516 176.359 44.4516 176.4ZM34.3501 176.64C34.3972 176.692 34.4793 176.698 34.532 176.651C34.5849 176.604 34.5907 176.523 34.5437 176.47C34.4966 176.418 34.4145 176.412 34.3618 176.459C34.3091 176.499 34.3032 176.581 34.3501 176.64ZM36.7274 174.589C36.7745 174.642 36.8566 174.648 36.9093 174.601C36.9622 174.554 36.968 174.472 36.921 174.42C36.8739 174.367 36.7918 174.362 36.7391 174.408C36.6864 174.449 36.6803 174.531 36.7274 174.589C36.7214 174.583 36.7274 174.583 36.7274 174.589ZM41.8574 180.284C41.8516 180.354 41.9045 180.419 41.9749 180.419H41.9808C42.0512 180.424 42.1099 180.378 42.1216 180.307V180.302C42.1216 180.232 42.0687 180.167 41.9983 180.162C41.9218 180.162 41.8635 180.214 41.8574 180.284ZM42.0745 177.165C42.0687 177.235 42.1274 177.3 42.1978 177.305C42.2683 177.311 42.3328 177.253 42.3387 177.183C42.3445 177.113 42.2916 177.048 42.2212 177.043C42.1449 177.037 42.0864 177.089 42.0745 177.165ZM42.2976 174.046C42.2918 174.116 42.3447 174.18 42.4151 174.186C42.4856 174.192 42.5501 174.139 42.556 174.069V174.064C42.5618 173.993 42.5089 173.935 42.4385 173.923C42.3681 173.918 42.3035 173.97 42.2976 174.046ZM38.2474 177.872C38.312 177.901 38.3941 177.872 38.4235 177.808C38.4526 177.744 38.4293 177.668 38.3647 177.639C38.3001 177.603 38.218 177.627 38.1887 177.691C38.1537 177.755 38.177 177.837 38.2474 177.872ZM39.6506 175.068C39.7151 175.103 39.7914 175.08 39.8266 175.016C39.8266 175.016 39.8266 175.016 39.8266 175.01C39.8618 174.946 39.8324 174.87 39.7737 174.835C39.7091 174.8 39.6328 174.829 39.5976 174.887V174.893C39.5624 174.951 39.586 175.027 39.6447 175.057C39.6506 175.062 39.6506 175.068 39.6506 175.068ZM46.377 181.365C46.4003 181.429 46.4768 181.47 46.5414 181.447C46.606 181.423 46.647 181.347 46.6235 181.283C46.6001 181.219 46.5295 181.178 46.4591 181.201C46.3889 181.225 46.3535 181.3 46.377 181.365ZM45.3793 178.398C45.3968 178.462 45.4672 178.503 45.5379 178.479H45.5437C45.6141 178.462 45.6493 178.386 45.6316 178.322V178.316C45.6083 178.246 45.5318 178.211 45.4672 178.234C45.391 178.257 45.3556 178.333 45.3793 178.398ZM44.3812 175.43C44.4045 175.495 44.481 175.536 44.5456 175.512C44.6101 175.495 44.6512 175.425 44.6276 175.355V175.349C44.6043 175.279 44.5337 175.243 44.4633 175.261C44.3991 175.29 44.3578 175.36 44.3812 175.43ZM35.6472 177.224C35.653 177.253 35.6705 177.276 35.6943 177.294C35.7472 177.329 35.8176 177.311 35.8528 177.259C35.888 177.206 35.8703 177.13 35.8176 177.095C35.7824 177.072 35.7414 177.072 35.7062 177.089H35.7003C35.6828 177.095 35.6651 177.113 35.6533 177.13C35.6355 177.154 35.6355 177.189 35.6472 177.224ZM37.1793 174.922C37.2322 174.957 37.3085 174.94 37.3378 174.881C37.373 174.829 37.3553 174.759 37.2966 174.724C37.2437 174.688 37.1732 174.706 37.138 174.759C37.1091 174.811 37.1266 174.887 37.1793 174.922ZM38.6701 172.551C38.7289 172.586 38.7993 172.562 38.8287 172.51C38.8578 172.457 38.8462 172.387 38.7935 172.352C38.7405 172.317 38.6643 172.335 38.6291 172.387C38.5939 172.44 38.6116 172.516 38.6701 172.551C38.6643 172.551 38.6643 172.551 38.6701 172.551ZM43.6887 181.172C43.7062 181.23 43.7649 181.271 43.8295 181.254C43.8883 181.242 43.9293 181.184 43.9174 181.119V181.114C43.9058 181.049 43.8412 181.014 43.7824 181.026C43.7122 181.05 43.677 181.114 43.6887 181.172ZM43.0547 178.45C43.0664 178.514 43.131 178.549 43.1897 178.538C43.2485 178.526 43.2895 178.467 43.2776 178.409C43.2776 178.403 43.2776 178.403 43.2776 178.398C43.266 178.333 43.2014 178.298 43.1426 178.31C43.0843 178.327 43.0431 178.386 43.0547 178.45ZM42.4268 175.734C42.4443 175.798 42.5089 175.834 42.5676 175.816C42.6264 175.798 42.6674 175.74 42.6497 175.676C42.6322 175.618 42.5735 175.576 42.5089 175.588C42.4501 175.606 42.4151 175.67 42.4268 175.734ZM38.7641 179.864C38.7524 179.922 38.7932 179.981 38.852 179.992H38.8578C38.9224 180.004 38.9812 179.963 38.9928 179.899C39.0045 179.834 38.9637 179.776 38.8989 179.764C38.8345 179.758 38.7758 179.799 38.7641 179.864ZM39.2278 177.107C39.2162 177.171 39.257 177.229 39.3218 177.241C39.3864 177.253 39.4451 177.212 39.4568 177.147C39.4685 177.083 39.4276 177.025 39.3628 177.013C39.2983 177.001 39.2395 177.043 39.2278 177.107ZM39.6914 174.35C39.6797 174.414 39.7205 174.473 39.7853 174.484C39.8205 174.49 39.8558 174.478 39.8851 174.455H39.891C39.9085 174.438 39.9201 174.414 39.9262 174.391C39.932 174.327 39.891 174.268 39.8264 174.257C39.762 174.251 39.6974 174.291 39.6914 174.35ZM48.807 180.384C48.8422 180.436 48.9068 180.448 48.9597 180.413C48.9597 180.413 48.9656 180.413 48.9656 180.407C49.0185 180.372 49.0301 180.302 48.9947 180.249C48.9947 180.249 48.9947 180.249 48.9947 180.243C48.9535 180.191 48.8833 180.185 48.8303 180.22C48.7776 180.261 48.766 180.331 48.807 180.384ZM47.1754 178.112C47.2106 178.164 47.2868 178.176 47.3397 178.141C47.3927 178.1 47.4043 178.03 47.3631 177.977C47.3279 177.93 47.2574 177.919 47.2045 177.948C47.1518 177.983 47.1401 178.053 47.1754 178.112C47.1754 178.106 47.1754 178.112 47.1754 178.112ZM32.9005 175.103C32.9297 175.126 32.971 175.126 33.0003 175.097C33.0237 175.068 33.0237 175.027 32.9945 174.998C32.9653 174.975 32.9241 174.975 32.8947 175.004C32.871 175.033 32.871 175.08 32.9005 175.103ZM39.4099 177.486C39.4099 177.521 39.4451 177.55 39.4803 177.55C39.5153 177.55 39.5449 177.515 39.5449 177.48C39.5449 177.445 39.5097 177.416 39.4745 177.416C39.4333 177.422 39.4039 177.451 39.4099 177.486ZM39.3453 175.845C39.3512 175.886 39.3806 175.909 39.4216 175.909C39.4568 175.909 39.4862 175.874 39.4862 175.839C39.4862 175.804 39.457 175.775 39.4216 175.775H39.4158C39.3803 175.775 39.3453 175.804 39.3453 175.845C39.3453 175.839 39.3453 175.845 39.3453 175.845ZM39.2924 174.198C39.2924 174.233 39.3216 174.262 39.3628 174.262C39.398 174.262 39.4274 174.233 39.4274 174.192C39.4274 174.157 39.3983 174.128 39.3628 174.128H39.357C39.3216 174.128 39.2924 174.157 39.2924 174.198ZM36.1933 176.126C36.2285 176.137 36.2637 176.12 36.2812 176.085C36.2928 176.05 36.2812 176.015 36.246 175.997C36.246 175.997 36.246 175.997 36.2401 175.997C36.2049 175.986 36.1697 175.997 36.1522 176.032V176.038C36.1403 176.073 36.158 176.108 36.1933 176.126ZM36.7743 174.578C36.8095 174.589 36.8447 174.572 36.8622 174.537C36.8739 174.502 36.8564 174.461 36.8209 174.449C36.7857 174.432 36.7505 174.449 36.733 174.478C36.733 174.478 36.733 174.478 36.733 174.484C36.7214 174.525 36.7391 174.566 36.7743 174.578ZM42.4914 175.921C42.5089 175.956 42.5443 175.973 42.5793 175.956C42.6145 175.939 42.6322 175.904 42.6145 175.868C42.6028 175.833 42.5674 175.816 42.5324 175.828C42.5324 175.828 42.5266 175.828 42.5266 175.833C42.4914 175.845 42.4739 175.886 42.4914 175.921C42.4914 175.915 42.4914 175.921 42.4914 175.921ZM41.8047 174.42C41.8222 174.455 41.8635 174.472 41.8987 174.455C41.9339 174.438 41.9458 174.402 41.9278 174.367C41.9162 174.332 41.8808 174.315 41.8458 174.326C41.8458 174.326 41.8399 174.326 41.8399 174.332C41.8047 174.344 41.787 174.385 41.8047 174.42ZM32.736 175.156C32.7712 175.179 32.8239 175.168 32.8474 175.133C32.8707 175.098 32.8591 175.045 32.8241 175.022C32.7889 174.998 32.742 175.01 32.7185 175.045C32.6891 175.08 32.6949 175.127 32.736 175.156C32.7301 175.156 32.7301 175.156 32.736 175.156ZM39.5156 178.082C39.5214 178.123 39.5626 178.146 39.5976 178.14C39.6035 178.14 39.6035 178.14 39.6093 178.14C39.6506 178.129 39.6739 178.088 39.668 178.047C39.6564 178.006 39.6151 177.977 39.5741 177.983C39.533 177.995 39.5095 178.041 39.5156 178.082ZM39.1047 176.248C39.1164 176.289 39.1576 176.318 39.1987 176.307C39.2399 176.295 39.2633 176.254 39.2574 176.213C39.2458 176.172 39.2045 176.143 39.1635 176.149C39.128 176.16 39.0989 176.201 39.1047 176.248ZM38.7053 174.402C38.7112 174.443 38.7466 174.473 38.7874 174.467C38.7932 174.467 38.7932 174.467 38.7991 174.467C38.8403 174.455 38.8637 174.414 38.8578 174.373C38.8462 174.332 38.8049 174.303 38.7639 174.309C38.723 174.32 38.6937 174.362 38.7053 174.402ZM35.6472 177.224C35.6589 177.229 35.6647 177.235 35.6764 177.235C35.7176 177.241 35.7584 177.218 35.7643 177.177C35.7701 177.136 35.7468 177.095 35.7055 177.089H35.6997C35.6584 177.083 35.6176 177.107 35.6118 177.148C35.6064 177.177 35.618 177.206 35.6472 177.224ZM35.9466 175.29C35.9349 175.331 35.9641 175.372 36.0053 175.378C36.0466 175.384 36.0874 175.361 36.0993 175.32C36.1051 175.279 36.076 175.238 36.0347 175.226C35.9937 175.22 35.9524 175.249 35.9466 175.29ZM36.2755 173.445C36.2697 173.485 36.2989 173.526 36.3401 173.532C36.3814 173.538 36.4222 173.509 36.428 173.468C36.4339 173.427 36.4047 173.386 36.3635 173.38C36.3222 173.374 36.2814 173.398 36.2755 173.445ZM42.7026 175.717C42.726 175.752 42.7731 175.758 42.8083 175.734C42.8435 175.711 42.8495 175.664 42.8258 175.629C42.8024 175.594 42.7612 175.582 42.726 175.606H42.7201C42.6849 175.629 42.6791 175.682 42.7026 175.717ZM41.6226 174.175C41.646 174.21 41.6872 174.215 41.7224 174.198C41.7224 174.198 41.7283 174.198 41.7283 174.192C41.7635 174.169 41.7753 174.128 41.7516 174.093V174.087C41.7283 174.052 41.6753 174.04 41.6401 174.064C41.6049 174.093 41.5991 174.139 41.6226 174.175ZM34.1741 175.436C34.1624 175.506 34.2153 175.576 34.2855 175.588C34.356 175.6 34.4264 175.553 34.4383 175.477C34.4499 175.407 34.397 175.337 34.3268 175.325C34.2503 175.314 34.1857 175.36 34.1741 175.436ZM44.041 179.297C44.0881 179.355 44.1701 179.367 44.2287 179.326C44.2874 179.285 44.3049 179.197 44.2578 179.139C44.2166 179.081 44.1287 179.063 44.0701 179.11C44.0116 179.157 43.9999 179.239 44.041 179.297ZM42.1333 176.692C42.1745 176.75 42.2624 176.762 42.321 176.721C42.3797 176.674 42.3914 176.593 42.3501 176.528C42.303 176.47 42.221 176.458 42.1624 176.505C42.1041 176.552 42.0922 176.634 42.1333 176.692ZM40.2255 174.087C40.2668 174.145 40.3547 174.157 40.4132 174.116C40.472 174.069 40.4837 173.988 40.4424 173.923C40.4012 173.865 40.3191 173.853 40.2605 173.894C40.2018 173.935 40.1843 174.011 40.2253 174.07C40.2197 174.081 40.2197 174.081 40.2255 174.087ZM38.2712 180.208C38.2887 180.278 38.3651 180.325 38.4356 180.308C38.506 180.29 38.547 180.22 38.5295 180.15C38.512 180.08 38.4416 180.033 38.371 180.051C38.3003 180.068 38.2595 180.138 38.2712 180.208ZM37.5139 177.072C37.5314 177.142 37.6018 177.189 37.6724 177.171C37.7428 177.154 37.7899 177.083 37.778 177.013C37.7606 176.943 37.6901 176.896 37.6195 176.908C37.5433 176.926 37.4964 176.996 37.5139 177.072ZM36.751 173.941C36.7685 174.011 36.8449 174.052 36.9153 174.035C36.9858 174.017 37.0268 173.947 37.0093 173.877C36.9918 173.807 36.9214 173.76 36.8508 173.778C36.7801 173.795 36.7333 173.865 36.751 173.941ZM35.8176 178.076C35.8351 178.146 35.9055 178.193 35.9762 178.181C36.0466 178.17 36.0937 178.1 36.0818 178.03C36.0701 177.959 35.9997 177.913 35.9291 177.924C35.8528 177.936 35.8057 178.006 35.8176 178.076ZM35.1955 174.922C35.2072 174.992 35.2718 175.039 35.3422 175.027H35.348C35.4185 175.016 35.4655 174.946 35.4537 174.87C35.442 174.8 35.3716 174.753 35.2951 174.764C35.2305 174.782 35.1837 174.852 35.1955 174.922ZM42.5147 180.407C42.556 180.465 42.6439 180.483 42.7024 180.442C42.7612 180.401 42.7787 180.319 42.7376 180.261C42.7024 180.203 42.6201 180.179 42.5616 180.22C42.5616 180.22 42.5558 180.22 42.5558 180.226C42.4914 180.261 42.4739 180.343 42.5147 180.407C42.5089 180.407 42.5147 180.407 42.5147 180.407ZM40.7247 177.732C40.766 177.79 40.8539 177.808 40.9124 177.767C40.9712 177.726 40.9887 177.644 40.9476 177.586C40.9124 177.527 40.8301 177.504 40.7716 177.545C40.7716 177.545 40.7658 177.545 40.7658 177.551C40.701 177.586 40.6835 177.667 40.7247 177.732C40.7187 177.732 40.7247 177.732 40.7247 177.732ZM38.9343 175.057C38.9756 175.115 39.0635 175.133 39.122 175.092C39.1808 175.051 39.1982 174.969 39.1572 174.911C39.116 174.847 39.0339 174.829 38.9695 174.87C38.9108 174.911 38.8933 174.998 38.9343 175.057ZM37.1383 178.836C37.1616 178.888 37.2203 178.912 37.2733 178.888C37.3203 178.865 37.3437 178.812 37.3262 178.76C37.3087 178.707 37.2499 178.684 37.2028 178.701C37.197 178.701 37.197 178.701 37.1912 178.707C37.1441 178.725 37.1208 178.783 37.1383 178.836ZM36.1814 176.61C36.2047 176.663 36.2635 176.686 36.3164 176.663C36.3693 176.64 36.3926 176.581 36.3693 176.528C36.346 176.476 36.2872 176.453 36.2401 176.476C36.2401 176.476 36.2401 176.476 36.2343 176.476C36.1814 176.499 36.158 176.558 36.1814 176.61ZM35.2247 174.385C35.248 174.437 35.3068 174.461 35.3597 174.437C35.4126 174.414 35.436 174.356 35.4126 174.303C35.3893 174.251 35.3305 174.227 35.2776 174.251C35.2247 174.274 35.2014 174.333 35.2247 174.385ZM40.6014 175.08C40.6366 175.121 40.7012 175.121 40.7422 175.08C40.7835 175.045 40.7835 174.981 40.7481 174.94L40.7422 174.934C40.701 174.899 40.6366 174.899 40.6014 174.94C40.5603 174.987 40.5603 175.045 40.6014 175.08ZM38.858 173.392C38.8993 173.433 38.9637 173.427 39.0047 173.386C39.0399 173.345 39.0399 173.287 39.0047 173.246C38.9635 173.205 38.8991 173.205 38.858 173.246C38.817 173.287 38.817 173.351 38.858 173.392ZM32.9239 175.389C32.953 175.43 33.006 175.442 33.0472 175.413C33.0885 175.389 33.1001 175.337 33.0764 175.302L33.0705 175.296C33.0472 175.255 32.9943 175.237 32.953 175.261C32.953 175.261 32.9472 175.261 32.9472 175.267C32.9064 175.284 32.8945 175.337 32.9239 175.389C32.918 175.384 32.918 175.384 32.9239 175.389Z" fill="white"/>
<path d="M47.0343 167.493C32.0023 177.849 24.9648 174.835 24.9648 174.835C21.22 171.821 22.1239 166.044 25.1291 159.491C26.6318 156.214 27.3421 151.103 30.1008 146.226C32.0614 142.862 34.7612 139.982 37.9954 137.798C38.4883 137.879 38.9698 138.031 39.4277 138.241L39.3456 138.574C39.821 138.937 40.2496 139.235 40.631 139.474C40.7073 139.521 40.7777 139.562 40.8483 139.608C40.8775 139.626 40.9071 139.643 40.9362 139.661C41.0008 139.702 41.0654 139.737 41.13 139.772C41.5056 139.982 41.8989 140.157 42.3098 140.298L47.0343 167.493Z" fill="url(#paint11_linear)"/>
<path d="M37.69 137.179C27.8527 148.481 31.2744 161.033 35.2542 168.071C39.234 175.109 44.9625 174.507 47.3102 173.631C49.6581 172.755 51.5363 171.534 56.2556 173.228C60.4467 174.735 65.06 172.136 65.06 172.136L58.8442 158.147C56.6842 158.889 54.395 159.193 52.1117 159.041C49.5994 158.825 47.5217 157.634 46.4827 156.203C43.3717 151.915 43.5069 140.397 43.5069 140.397C43.5069 140.397 42.0102 141.127 37.69 137.179Z" fill="#A1C3FC"/>
<path d="M33.0825 123.266C29.672 125.894 30.0302 130.129 30.5352 131.197C31.0927 132.272 31.5977 133.37 32.0321 134.498C32.0966 134.743 32.1554 134.994 32.1964 135.245C32.396 136.396 32.1848 137.406 32.0027 138.528C31.7912 139.795 31.8031 141.004 32.7833 141.944C32.9066 142.061 33.0594 141.851 32.9419 141.734C31.4275 140.291 32.5252 138.212 32.5662 136.454C32.6541 136.945 32.666 137.447 32.6075 137.943C32.3844 139.258 32.6133 140.607 33.265 141.769C40.0971 141.086 44.2706 135.952 44.2706 135.952C42.2692 134.346 41.0952 133.113 40.7958 131.647C41.4592 133.569 43.085 135.011 45.0806 135.449C45.245 135.49 45.2683 135.227 45.1098 135.192C42.6915 134.667 40.9187 132.605 40.7779 130.146C40.9481 129.252 41.2475 128.382 41.6702 127.576C43.5602 123.721 41.7877 121.869 41.7877 121.869C42.9206 122.033 44.7167 123.184 44.7167 123.184C41.5641 118.289 36.4866 120.637 33.0825 123.266Z" fill="#23286B"/>
<path d="M47.8208 122.273C47.4862 121.292 46.5764 120.59 45.7898 120.713C45.0033 120.836 44.6277 121.735 44.962 122.723C45.0033 122.834 45.05 122.945 45.1029 123.055C44.6802 123.254 44.3752 123.639 44.2752 124.089C44.2281 124.048 44.1873 124.002 44.1402 123.967C43.7587 123.64 43.2537 123.482 42.755 123.534C41.8452 123.68 41.4168 124.72 41.8041 125.865C41.986 126.408 42.3208 126.887 42.7668 127.243C43.0779 127.5 43.4593 127.658 43.8585 127.687C43.9583 127.693 44.0581 127.687 44.152 127.675C44.5981 127.605 44.9739 127.296 45.1206 126.875C45.2966 126.379 45.2908 125.841 45.1031 125.351C44.9739 124.971 44.7685 124.621 44.4985 124.323C44.6218 123.926 44.8096 123.452 45.2439 123.307C45.2556 123.33 45.2731 123.347 45.2852 123.365C45.3085 123.377 45.3264 123.4 45.3439 123.423L45.3498 123.429C45.3498 123.429 45.3556 123.429 45.3556 123.435C45.6079 123.698 45.9131 123.908 46.2479 124.06C46.3946 124.118 46.5473 124.165 46.7 124.212C46.7352 124.218 46.7704 124.235 46.8056 124.247C46.8527 124.264 46.8996 124.276 46.9523 124.293C46.9698 124.293 46.9875 124.293 47.0052 124.293C47.78 124.153 48.1498 123.254 47.8208 122.273ZM44.8452 125.38C45.0096 125.818 45.0154 126.297 44.8627 126.735C44.7394 127.086 44.4341 127.343 44.0646 127.407C43.6479 127.448 43.231 127.319 42.9142 127.045C42.515 126.729 42.2217 126.303 42.0631 125.818C41.7285 124.819 42.0748 123.914 42.8437 123.791C42.92 123.78 43.0023 123.774 43.0844 123.78C43.4189 123.809 43.736 123.943 43.9942 124.154C44.3873 124.475 44.6806 124.901 44.8452 125.38ZM46.9052 124.019C46.2596 124.119 45.5083 123.517 45.2206 122.682C44.9387 121.841 45.2323 121.075 45.8723 120.976C46.5179 120.877 47.2691 121.478 47.5568 122.314C47.8446 123.149 47.551 123.92 46.9052 124.019Z" fill="#3E8AF8"/>
<path d="M204.724 177.041C204.637 179.566 205.377 183.703 204.6 183.605C201.458 183.763 199.333 183.81 196.24 183.659C193.162 183.509 188.886 183.746 185.841 183.833C184.274 183.659 188.41 180.11 192.063 178.521C193.928 177.71 196.173 176.984 198.154 176.867C199.83 176.768 200.51 177.104 202.07 176.432C202.429 176.729 204.639 176.557 204.724 177.041Z" fill="url(#paint12_linear)"/>
<path d="M225.793 175.995C225.793 178.41 226.936 183.465 225.86 183.532C222.829 183.502 220.22 183.525 217.04 183.416C216.657 180.945 217.403 178.329 216.818 175.87C219.873 175.711 220.158 175.97 223.036 175.725C223.33 175.946 225.793 175.593 225.793 175.995Z" fill="#78A9EF"/>
<path d="M201.382 101.553C200.197 103.323 198.224 104.292 196.885 105.944C195.438 107.73 195.949 108.4 196.825 110.456C198.172 113.62 200.474 117.193 201.164 120.445C201.538 122.208 200.851 124.195 200.943 125.863C201.104 128.794 202.596 128.8 203.324 126.309C203.838 124.548 203.662 122.65 203.975 120.868C204.086 120.237 204.535 119.406 204.523 118.708C204.496 117.106 204.247 118.099 203.488 116.765C202.041 114.222 202.782 110.897 201.188 108.334C202.383 107.608 204.783 105.661 205.299 104.376C205.93 102.806 204.601 101.341 202.983 100.526C203.322 99.7981 203.519 99.1132 203.509 98.3618C202.855 99.3121 202.317 100.324 201.611 101.248C201.734 100.979 201.223 101.804 201.382 101.553Z" fill="#F2A19C"/>
<path d="M205.289 113.062C202.562 114.955 202.376 121.466 202.033 124.735C201.431 130.481 200.271 136.251 199.641 141.943C198.406 153.104 194.356 163.941 191.628 174.904C191.371 175.938 191.074 176.931 190.999 177.959C193.281 178.362 195.874 177.356 198.127 177.335C200.378 177.315 202.714 177.145 204.811 177.753C206.193 174.518 204.665 171.33 204.855 168.003C204.987 165.667 206.233 161.812 206.808 159.534C207.314 157.528 207.069 152.599 207.676 150.63C208.899 146.663 210.225 143.815 211.365 139.772C212.541 135.602 212.52 131.754 213.101 127.612C213.432 125.26 213.382 124.317 213.969 121.965C214.543 119.669 212.775 117.019 214.11 115.049C212.065 115.52 206.371 114.297 205.289 113.062Z" fill="#151A4F"/>
<path d="M215.705 114.365C215.076 119.616 216.92 123.455 217.664 130.429C218.137 134.862 218.307 139.068 219.557 143.411C221.692 150.824 224.15 158.404 225.471 166.005C225.877 168.34 226.191 170.701 226.508 172.985C226.668 174.141 227.606 177.589 226.994 178.643C226.289 179.857 221.87 179.037 220.263 179.035C218.169 179.033 215.488 179.512 213.123 179.214C213.101 176.038 211.798 171.169 211.354 167.503C210.834 163.219 210.97 158.913 211.364 154.706C212.247 145.273 206.337 136.823 205.415 127.607C205.205 125.503 205.089 123.597 205.289 121.53C205.519 119.157 206.976 117.334 206.84 114.838C209.587 114.515 212.728 114.591 215.553 114.55C215.592 114.806 216.077 114.31 215.705 114.365Z" fill="url(#paint13_linear)"/>
<path d="M228.726 102.204C229.302 103.046 229.545 104.078 230.272 104.924C231.021 105.796 231.624 106.424 231.978 107.522C232.268 108.421 232.754 109.531 232.825 110.456C232.917 111.648 232.167 111.77 231.328 112.522C229.681 113.999 228.76 115.635 226.635 116.658C225.439 117.234 224.256 118.123 223.077 118.759C222.199 119.233 219.032 121.228 218.877 121.794C218.136 121.398 217.633 120.292 216.934 119.823C220.531 116.754 223.229 112.722 227.06 109.807C226.213 107.872 224.545 106.306 223.776 104.289C225.196 103.248 227.155 103.236 228.693 102.424C228.638 102.536 228.794 102.1 228.726 102.204Z" fill="#FFBEB6"/>
<path d="M209.156 94.546C209.117 93.2439 209.035 91.8272 208.177 90.8469C205.855 92.8773 204.897 96.0396 203.007 98.4774C201.794 100.042 200.219 101.28 198.66 102.501C200.065 105.841 203.493 108.229 207.11 108.387C209.382 104.247 209.298 99.2669 209.156 94.546Z" fill="url(#paint14_linear)"/>
<path d="M209.005 90.2109C208.508 90.5024 208.017 90.8407 207.707 91.3263C207.296 91.9712 207.122 92.7864 207.238 93.543C207.826 97.4036 206.457 98.4829 206.367 101.497C206.317 103.2 206.629 106.565 206.402 108.254C205.993 111.291 204.245 113.764 202.531 115.698C206.637 119.219 211.108 121.181 216.51 120.939C216.346 119.539 216.597 118.623 216.651 117.54C216.678 116.979 216.956 117.103 217.061 116.824C217.154 116.577 216.744 116.35 216.853 116.11C216.957 115.884 217.251 115.783 217.354 115.551C217.437 115.365 217.383 114.986 217.478 114.802C220.435 109.042 222.923 100.152 223.417 93.6494C223.495 92.6196 223.506 91.467 222.813 90.7022C222.56 90.4233 222.233 90.2227 221.903 90.0407C217.964 87.8661 212.884 87.9334 209.005 90.2109Z" fill="url(#paint15_linear)"/>
<path d="M222.602 90.4169C224.056 91.1644 224.121 94.152 225.442 96.2228C227.397 99.2886 228.796 100.736 230.878 105.076C229.987 106.654 230.489 106.293 229.267 107.631C228.046 108.969 226.457 110.048 224.667 110.32C223.663 107.421 222.658 104.522 221.654 101.623C221.462 101.07 221.269 100.514 220.993 99.9983C220.73 99.508 220.394 99.0598 220.123 98.5742C218.561 95.7829 219.454 91.9301 222.183 90.2632C222.278 90.344 222.337 90.281 222.602 90.4169Z" fill="url(#paint16_linear)"/>
<path d="M212.185 82.3683C212.621 83.524 213.06 84.6958 213.189 85.9244C213.317 87.1531 212.9 88.007 212.138 88.9785C212.662 90.7314 215.446 91.2708 217.951 88.6376C216.773 85.2369 217.391 81.3285 217.841 77.7581C216.11 78.9633 213.378 80.4043 211.646 81.61C211.935 81.7437 212.073 82.0699 212.185 82.3683Z" fill="#F2A19C"/>
<path d="M213.038 83.3307C213.892 83.2712 214.759 83.21 215.565 82.945C217.409 82.34 218.723 80.7083 219.239 78.9285C219.755 77.1487 219.562 75.2381 219.101 73.4323C219.002 73.0431 218.881 72.6405 218.596 72.3421C218.027 71.7463 217.051 71.7767 216.213 71.8549C215.318 71.9382 214.404 72.0264 213.591 72.3825C211.878 73.133 210.588 75.0449 208.702 74.8251C208.517 76.3422 208.04 77.8323 208.092 79.3611C208.143 80.8899 208.892 82.5537 210.399 83.1309C211.228 83.4484 212.151 83.3919 213.038 83.3307Z" fill="url(#paint17_linear)"/>
<path d="M211.741 77.5201C211.313 77.4701 210.953 77.2734 210.728 76.9663C210.188 76.2263 210.552 75.0358 211.541 74.3122C212.088 73.9118 212.729 73.7207 213.302 73.7871C213.731 73.8371 214.09 74.0338 214.315 74.3409C214.585 74.7105 214.642 75.1956 214.475 75.7081C214.317 76.195 213.971 76.6523 213.502 76.995C212.955 77.3954 212.314 77.5865 211.741 77.5201ZM213.252 74.2184C212.787 74.1641 212.257 74.3261 211.797 74.6623C211.001 75.2447 210.679 76.1629 211.079 76.7097C211.274 76.9772 211.574 77.0632 211.791 77.0884C212.256 77.1427 212.787 76.9807 213.246 76.6445C213.642 76.3548 213.932 75.9744 214.062 75.5735C214.185 75.1978 214.15 74.8508 213.965 74.5971C213.769 74.33 213.469 74.2436 213.252 74.2184Z" fill="#E94A47"/>
<path d="M210.03 74.4416C209.626 74.3947 209.312 74.2136 209.147 73.9313C208.753 73.2608 209.287 72.241 210.361 71.6099C211.389 71.0062 212.599 71.0332 212.978 71.6799C213.177 72.0186 213.146 72.4542 212.893 72.9068C212.659 73.322 212.259 73.7107 211.765 74.0017C211.185 74.3422 210.552 74.5025 210.03 74.4416ZM212.045 71.6008C211.62 71.5513 211.073 71.6946 210.581 71.9843C209.745 72.4755 209.26 73.2664 209.521 73.7116C209.643 73.9187 209.892 73.9882 210.08 74.0104C210.505 74.0599 211.052 73.9166 211.545 73.6273C211.974 73.375 212.318 73.0436 212.515 72.6944C212.69 72.3821 212.722 72.1003 212.604 71.9C212.482 71.692 212.233 71.6225 212.045 71.6008Z" fill="#E94A47"/>
<path d="M211.646 74.3616C211.644 74.2669 211.518 74.0606 211.457 74.0159L211.668 73.6367C211.843 73.7297 212.074 74.0932 212.08 74.3525L211.646 74.3616Z" fill="#E94A47"/>
<path d="M212.063 81.3752C213.14 81.3752 214.012 80.5021 214.012 79.4252C214.012 78.3482 213.14 77.4751 212.063 77.4751C210.987 77.4751 210.115 78.3482 210.115 79.4252C210.115 80.5021 210.987 81.3752 212.063 81.3752Z" fill="url(#paint18_radial)"/>
<path d="M220.555 71.0044C220.96 70.799 221.191 70.3699 221.502 70.0381C222.16 69.3362 223.398 69.1282 224.077 69.8105C224.588 70.3247 224.633 71.1243 224.864 71.8122C225.096 72.4998 225.803 73.192 226.46 72.8854C226.79 72.7317 226.969 72.379 227.218 72.1137C227.737 71.5599 228.631 71.4027 229.308 71.7462C229.984 72.0898 230.385 72.9054 230.244 73.6511C230.183 73.9742 230.034 74.3139 230.163 74.6162C230.275 74.8772 230.555 75.0131 230.775 75.1929C231.526 75.8097 231.469 77.1573 230.669 77.7089C230.408 77.8891 230.087 77.9947 229.884 78.2383C229.258 78.9867 230.228 79.993 230.502 80.9285C230.778 81.8666 230.18 82.9706 229.244 83.252C228.47 83.4848 227.485 83.2564 226.956 83.8675C226.453 84.4481 226.752 85.3645 226.492 86.0872C226.247 86.7695 225.488 87.19 224.765 87.15C224.042 87.11 223.379 86.6692 222.953 86.0829C222.439 85.375 222.232 84.4738 221.685 83.7915C221.137 83.1092 219.967 82.7687 219.433 83.4622C217.786 82.5115 218.145 79.8153 216.682 78.5997C215.533 77.6446 214.293 77.4679 213.579 76.1549C213.406 75.837 213.344 75.4466 213.47 75.1074C213.553 74.8837 213.71 74.6969 213.842 74.498C214.533 73.4526 213.75 72.4898 214.072 71.2785C214.395 70.0672 215.404 68.7968 216.636 69.027C217.395 69.169 217.926 69.8279 218.484 70.3608C219.043 70.8937 219.866 71.3536 220.555 71.0044Z" fill="#E94A47"/>
<path d="M219.546 93.6678C219.478 93.6812 219.433 93.7321 219.446 93.7994C219.46 93.8667 219.511 93.9123 219.578 93.8988C219.645 93.8854 219.691 93.8346 219.677 93.7672C219.664 93.6999 219.613 93.6543 219.546 93.6678ZM208.69 97.3668C208.639 97.3212 208.572 97.3343 208.526 97.3855C208.48 97.4367 208.493 97.5036 208.545 97.5497C208.595 97.5953 208.663 97.5822 208.709 97.531C208.784 97.4876 208.741 97.4124 208.69 97.3668ZM211.09 99.0407C211.039 98.9951 210.972 99.0081 210.926 99.0593C210.88 99.1102 210.893 99.1775 210.944 99.2235C210.995 99.2691 211.063 99.2561 211.109 99.2048C211.146 99.1836 211.141 99.0867 211.09 99.0407ZM214.03 94.0951C213.985 94.1464 213.968 94.2055 213.982 94.2723C214.033 94.3179 214.092 94.3345 214.159 94.321C214.205 94.2697 214.221 94.2107 214.199 94.1733C214.165 94.0682 214.106 94.0521 214.03 94.0951ZM215.603 96.5911C215.557 96.6424 215.54 96.7015 215.554 96.7683C215.605 96.8139 215.664 96.8304 215.731 96.817C215.777 96.7662 215.793 96.7067 215.771 96.6693C215.737 96.5642 215.648 96.5399 215.603 96.5911ZM207.58 103.164C207.521 103.148 207.446 103.191 207.43 103.25C207.414 103.309 207.457 103.384 207.516 103.4C207.575 103.416 207.65 103.373 207.666 103.314C207.682 103.255 207.639 103.18 207.58 103.164ZM210.449 103.822C210.39 103.806 210.314 103.849 210.298 103.908C210.282 103.967 210.325 104.043 210.384 104.059C210.443 104.075 210.519 104.032 210.535 103.973C210.551 103.914 210.508 103.839 210.449 103.822ZM216.493 92.6406C216.455 92.6619 216.401 92.7427 216.452 92.7883C216.474 92.8261 216.554 92.8799 216.6 92.8287C216.638 92.8074 216.692 92.7266 216.64 92.681C216.627 92.6137 216.568 92.5976 216.493 92.6406ZM217.697 94.972C217.659 94.9933 217.605 95.0741 217.656 95.1197C217.678 95.1575 217.729 95.2031 217.804 95.1601C217.842 95.1388 217.887 95.0876 217.844 95.0124C217.793 94.9668 217.734 94.9507 217.697 94.972ZM209.42 100.966C209.361 100.95 209.293 100.964 209.277 101.023C209.261 101.082 209.283 101.12 209.334 101.165C209.393 101.181 209.46 101.168 209.476 101.109C209.492 101.05 209.479 100.983 209.42 100.966ZM211.898 101.772C211.839 101.756 211.772 101.77 211.756 101.829C211.74 101.888 211.761 101.926 211.813 101.971C211.872 101.987 211.939 101.974 211.955 101.915C211.971 101.856 211.958 101.789 211.898 101.772ZM213.324 96.7931C213.274 96.7475 213.206 96.7605 213.16 96.8118C213.115 96.8626 213.128 96.9299 213.179 96.9759C213.23 97.0215 213.297 97.0085 213.343 96.9573C213.389 96.906 213.375 96.8387 213.324 96.7931ZM214.171 91.1466C214.12 91.101 214.053 91.114 214.007 91.1653C213.961 91.2165 213.974 91.2834 214.025 91.3294C214.076 91.375 214.143 91.362 214.189 91.3108C214.235 91.2595 214.221 91.1922 214.171 91.1466ZM216.46 93.1084C216.409 93.0628 216.342 93.0758 216.296 93.1271C216.25 93.1783 216.263 93.2452 216.314 93.2912C216.366 93.3373 216.432 93.3238 216.478 93.2726C216.524 93.2213 216.511 93.154 216.46 93.1084ZM218.787 95.0485C218.736 95.0029 218.669 95.0159 218.623 95.0671C218.577 95.118 218.59 95.1853 218.642 95.2313C218.693 95.2773 218.76 95.2639 218.806 95.2126C218.822 95.1531 218.809 95.0862 218.787 95.0485ZM210.202 103.214C210.135 103.228 210.089 103.279 210.103 103.346C210.116 103.413 210.167 103.459 210.234 103.445C210.302 103.432 210.347 103.381 210.334 103.314C210.35 103.255 210.269 103.201 210.202 103.214ZM212.405 97.0181C212.346 97.002 212.271 97.045 212.255 97.1041C212.239 97.1631 212.282 97.2387 212.341 97.2548C212.4 97.2708 212.475 97.2278 212.491 97.1688C212.507 97.1097 212.464 97.0341 212.405 97.0181ZM212.526 94.9538C212.467 94.9377 212.391 94.9807 212.375 95.0398C212.359 95.0988 212.402 95.1744 212.461 95.1905C212.52 95.2066 212.587 95.1931 212.612 95.1045C212.628 95.0454 212.585 94.9699 212.526 94.9538ZM215.356 95.9835C215.297 95.9675 215.221 96.0105 215.205 96.0695C215.189 96.1286 215.203 96.1959 215.291 96.2202C215.35 96.2363 215.426 96.1933 215.471 96.1425C215.458 96.0747 215.415 95.9996 215.356 95.9835ZM219.416 92.5199C219.365 92.4743 219.297 92.4873 219.251 92.5386C219.206 92.5894 219.219 92.6567 219.262 92.7323C219.313 92.7779 219.38 92.7648 219.455 92.7218C219.48 92.6328 219.466 92.5655 219.416 92.5199ZM219.626 93.7216C219.567 93.7056 219.53 93.7268 219.492 93.7486C219.476 93.8076 219.497 93.8454 219.519 93.8832C219.578 93.8993 219.616 93.878 219.653 93.8563C219.669 93.7968 219.656 93.7295 219.626 93.7216Z" fill="white"/>
<path d="M224.245 88.3961C224.235 88.3948 224.225 88.3931 224.215 88.39C222.834 88.0222 221.641 86.9716 221.102 85.6482C221.056 85.5357 221.014 85.4211 220.973 85.3064C220.874 85.0341 220.781 84.7774 220.632 84.5559C220.454 84.2914 220.131 84.0534 219.817 84.116C219.723 84.1346 219.626 84.1807 219.523 84.2293C219.421 84.278 219.315 84.3283 219.195 84.3609C218.46 84.5607 217.744 83.9301 217.503 83.2317C217.369 82.8443 217.334 82.4417 217.3 82.0521C217.277 81.7945 217.256 81.5509 217.208 81.3112C216.94 79.9604 215.864 78.9059 214.877 78.0234C214.098 77.3272 213.344 76.5645 213.418 75.5687C213.458 75.0323 213.742 74.5606 214.017 74.1042C214.335 73.5765 214.635 73.0783 214.48 72.5736C214.445 72.459 214.51 72.3374 214.624 72.3022C214.739 72.2679 214.86 72.3322 214.895 72.4464C215.107 73.1361 214.742 73.7419 214.389 74.3283C214.141 74.7409 213.884 75.1674 213.852 75.6004C213.792 76.3995 214.469 77.0753 215.167 77.6994C216.206 78.6284 217.34 79.7437 217.634 81.2265C217.686 81.4892 217.71 81.7559 217.732 82.0139C217.766 82.3943 217.797 82.7531 217.913 83.0897C218.091 83.6052 218.603 84.0704 219.081 83.9414C219.17 83.9175 219.254 83.8766 219.337 83.8367C219.459 83.7789 219.585 83.7186 219.733 83.6895C220.279 83.5804 220.753 83.9574 220.992 84.3131C221.171 84.5789 221.277 84.8734 221.381 85.1583C221.42 85.2673 221.46 85.3768 221.504 85.484C221.993 86.6845 223.074 87.6369 224.326 87.9705C224.442 88.0013 224.511 88.1203 224.48 88.2358C224.452 88.3418 224.351 88.4087 224.245 88.3961Z" fill="#E94A47"/>
<path d="M217.38 119.47C216.662 120.151 211.181 120.008 212.518 121.736C212.65 121.914 215.263 121.086 215.791 121.544C216.316 122 216.21 123.505 216.304 124.194C216.436 125.148 216.181 125.838 216.243 126.934C216.274 127.486 217.174 130.383 217.453 130.837C217.633 131.13 218.087 130.887 218.131 130.315C218.202 129.403 217.787 127.81 217.762 127.419C217.703 126.5 217.949 124.955 218.06 123.954C218.235 122.378 218.592 122.351 219.076 121.421C219.211 121.161 218.624 119.54 218.06 119.459C218.139 119.342 217.783 119.326 217.38 119.47Z" fill="#FFBEB6"/>
<path d="M222.64 183.422C222.643 183.363 222.65 183.481 222.65 183.422C222.65 180.421 220.075 177.812 216.899 177.812C213.723 177.812 211.148 180.245 211.148 183.247C211.148 183.306 211.155 183.363 211.157 183.422H222.64V183.422Z" fill="#89B3F4"/>
<defs>
<linearGradient id="paint0_linear" x1="44.8317" y1="75.9878" x2="116.286" y2="75.9878" gradientUnits="userSpaceOnUse">
<stop stop-color="#E8F1FE"/>
<stop offset="1" stop-color="#C1D7F8"/>
</linearGradient>
<linearGradient id="paint1_linear" x1="125.121" y1="94.0892" x2="233.545" y2="94.0892" gradientUnits="userSpaceOnUse">
<stop stop-color="#CEE0F9"/>
<stop offset="1" stop-color="#A5C6EC"/>
</linearGradient>
<linearGradient id="paint2_linear" x1="62.0571" y1="30.9466" x2="183.019" y2="30.9466" gradientUnits="userSpaceOnUse">
<stop stop-color="#B0CDFC"/>
<stop offset="1" stop-color="#81AEF2"/>
</linearGradient>
<linearGradient id="paint3_linear" x1="63.0109" y1="46.4159" x2="85.4443" y2="46.4159" gradientUnits="userSpaceOnUse">
<stop stop-color="#EEEEEE"/>
<stop offset="1" stop-color="#D6D7D8"/>
</linearGradient>
<linearGradient id="paint4_linear" x1="103.605" y1="46.4159" x2="126.038" y2="46.4159" gradientUnits="userSpaceOnUse">
<stop stop-color="#EEEEEE"/>
<stop offset="1" stop-color="#D6D7D8"/>
</linearGradient>
<linearGradient id="paint5_linear" x1="144.198" y1="46.4159" x2="166.632" y2="46.4159" gradientUnits="userSpaceOnUse">
<stop stop-color="#EEEEEE"/>
<stop offset="1" stop-color="#D6D7D8"/>
</linearGradient>
<linearGradient id="paint6_linear" x1="68.7015" y1="183.922" x2="51.4801" y2="171.822" gradientUnits="userSpaceOnUse">
<stop offset="0.1291" stop-color="#428DFC"/>
<stop offset="0.9987" stop-color="#1D72D8"/>
</linearGradient>
<linearGradient id="paint7_linear" x1="32.1844" y1="152.748" x2="62.5115" y2="152.748" gradientUnits="userSpaceOnUse">
<stop stop-color="#A1C3FC"/>
<stop offset="0.3464" stop-color="#91B9F7"/>
<stop offset="0.6955" stop-color="#81AEF2"/>
<stop offset="1" stop-color="#78A9EF"/>
</linearGradient>
<linearGradient id="paint8_linear" x1="57.4497" y1="149.26" x2="60.1419" y2="166.486" gradientUnits="userSpaceOnUse">
<stop stop-color="#23286B"/>
<stop offset="0.4316" stop-color="#1D225F"/>
<stop offset="1" stop-color="#151A4F"/>
</linearGradient>
<linearGradient id="paint9_linear" x1="61.9555" y1="156.371" x2="57.2258" y2="171.222" gradientUnits="userSpaceOnUse">
<stop stop-color="#FFBEB6"/>
<stop offset="1" stop-color="#F2A19C"/>
</linearGradient>
<linearGradient id="paint10_linear" x1="41.4542" y1="139.861" x2="42.6879" y2="133.493" gradientUnits="userSpaceOnUse">
<stop stop-color="#FFBEB6"/>
<stop offset="1" stop-color="#F2A19C"/>
</linearGradient>
<linearGradient id="paint11_linear" x1="30.1796" y1="153.407" x2="54.3864" y2="183.568" gradientUnits="userSpaceOnUse">
<stop stop-color="#A1C3FC"/>
<stop offset="0.3464" stop-color="#91B9F7"/>
<stop offset="0.6955" stop-color="#81AEF2"/>
<stop offset="1" stop-color="#78A9EF"/>
</linearGradient>
<linearGradient id="paint12_linear" x1="185.5" y1="180.133" x2="204.959" y2="180.133" gradientUnits="userSpaceOnUse">
<stop stop-color="#B4CFFD"/>
<stop offset="1" stop-color="#78A9EF"/>
</linearGradient>
<linearGradient id="paint13_linear" x1="218.819" y1="160.27" x2="208.173" y2="127.266" gradientUnits="userSpaceOnUse">
<stop stop-color="#23286B"/>
<stop offset="1" stop-color="#151A4F"/>
</linearGradient>
<linearGradient id="paint14_linear" x1="199.109" y1="98.6349" x2="209.257" y2="99.8151" gradientUnits="userSpaceOnUse">
<stop stop-color="#428DFC"/>
<stop offset="1" stop-color="#1D72D8"/>
</linearGradient>
<linearGradient id="paint15_linear" x1="203.964" y1="103.368" x2="222.071" y2="105.474" gradientUnits="userSpaceOnUse">
<stop stop-color="#428DFC"/>
<stop offset="1" stop-color="#1D72D8"/>
</linearGradient>
<linearGradient id="paint16_linear" x1="229.555" y1="102.703" x2="217.092" y2="97.7887" gradientUnits="userSpaceOnUse">
<stop stop-color="#428DFC"/>
<stop offset="1" stop-color="#1D72D8"/>
</linearGradient>
<linearGradient id="paint17_linear" x1="219.888" y1="78.2795" x2="206.913" y2="76.6612" gradientUnits="userSpaceOnUse">
<stop stop-color="#FFBEB6"/>
<stop offset="1" stop-color="#F2A19C"/>
</linearGradient>
<radialGradient id="paint18_radial" cx="0" cy="0" r="1" gradientUnits="userSpaceOnUse" gradientTransform="translate(212.063 79.4252) rotate(6.64238) scale(1.94885 1.95005)">
<stop stop-color="#E94A47" stop-opacity="0.3"/>
<stop offset="1" stop-color="#E94A47" stop-opacity="0"/>
</radialGradient>
</defs>
</svg>
