<svg width="267" height="200" viewBox="0 0 267 200" fill="none" xmlns="http://www.w3.org/2000/svg">
<g clip-path="url(#clip0)">
<path d="M225.14 146.47L229.134 145.222C229.455 145.008 229.811 144.865 230.132 144.58L223.927 146.577C224.355 146.541 224.747 146.541 225.14 146.47ZM222.322 146.47L231.345 143.545C231.523 143.403 231.63 143.224 231.808 143.082L221.716 146.291C221.93 146.398 222.144 146.434 222.322 146.47ZM220.753 146.077L232.557 142.297C232.7 142.19 232.736 142.048 232.878 141.905L220.432 145.863C220.539 146.006 220.646 146.006 220.753 146.077ZM219.826 145.471L233.377 141.12C233.449 141.013 233.52 140.871 233.591 140.763L219.612 145.257C219.647 145.364 219.754 145.435 219.826 145.471ZM219.148 144.793L233.912 140.086C233.984 139.979 233.984 139.872 234.055 139.729L218.97 144.579C219.077 144.651 219.113 144.758 219.148 144.793ZM218.72 144.08L234.412 139.087C234.412 138.981 234.483 138.873 234.483 138.731L218.577 143.83C218.613 143.902 218.649 144.009 218.72 144.08ZM218.328 143.295L234.626 138.053C234.626 137.946 234.661 137.839 234.697 137.696L218.221 142.939C218.257 143.117 218.292 143.189 218.328 143.295ZM218.043 142.511L234.84 137.126C234.84 137.019 234.875 136.912 234.875 136.805L217.936 142.261C217.971 142.297 218.007 142.404 218.043 142.511ZM217.9 141.548C217.936 141.584 217.864 141.619 217.9 141.655L234.982 136.199C234.982 136.092 235.018 135.985 235.018 135.878L218.007 141.298C217.971 141.37 217.936 141.441 217.9 141.548ZM218.791 140.336C218.756 140.371 218.72 140.443 218.649 140.443L235.018 135.2C235.018 135.093 234.982 135.022 235.018 134.915L219.077 140.051C218.934 140.157 218.863 140.264 218.791 140.336ZM219.576 139.301L234.875 134.416C234.875 134.309 234.84 134.237 234.804 134.131L219.719 138.981C219.719 139.087 219.647 139.159 219.576 139.301ZM220.076 138.232L234.804 133.524C234.769 133.417 234.769 133.346 234.733 133.239L220.218 137.91C220.111 138.053 220.111 138.16 220.076 138.232ZM220.325 137.268L234.59 132.739C234.554 132.632 234.519 132.596 234.519 132.454L220.432 136.983C220.361 137.09 220.325 137.162 220.325 137.268ZM220.396 136.341L234.269 131.919C234.233 131.812 234.198 131.777 234.162 131.67L220.361 136.056C220.396 136.163 220.396 136.27 220.396 136.341ZM220.325 135.45L233.806 131.135C233.77 131.028 233.734 130.992 233.699 130.885L220.289 135.164C220.325 135.272 220.325 135.414 220.325 135.45ZM220.147 134.63L233.306 130.386C233.271 130.279 233.163 130.208 233.128 130.172L220.004 134.38C220.076 134.487 220.111 134.558 220.147 134.63ZM232.486 129.494L219.683 133.56C219.719 133.666 219.754 133.702 219.79 133.809L232.7 129.672C232.7 129.637 232.593 129.566 232.486 129.494ZM231.737 128.852L219.255 132.846C219.291 132.954 219.398 133.025 219.433 133.06L232.022 129.031C231.915 129.031 231.808 128.924 231.737 128.852ZM230.739 128.282L218.827 132.062C218.863 132.169 218.899 132.204 218.934 132.311L231.095 128.388C230.953 128.389 230.881 128.317 230.739 128.282ZM229.49 127.818C229.455 127.854 229.419 127.782 229.384 127.818L218.863 131.17C218.828 131.241 218.828 131.384 218.828 131.491L229.954 127.925C229.776 127.925 229.633 127.854 229.49 127.818ZM226.816 127.711L220.004 129.886C219.79 130.065 219.54 130.208 219.326 130.386L227.957 127.64C227.6 127.676 227.172 127.676 226.816 127.711Z" fill="#E6E6E6"/>
<path d="M245.324 85.9859C245.823 87.4837 245.253 89.0886 244.504 90.4795C242.471 94.2953 239.19 97.4336 235.268 99.2525C233.092 100.287 230.738 100.893 228.492 101.82C221.966 104.53 216.652 109.951 214.12 116.549C214.869 111.984 212.479 107.455 209.555 103.853C206.666 100.251 203.171 97.0057 201.103 92.8688C199.32 89.3026 199.284 84.0246 202.886 82.3126C205.526 81.0644 208.842 82.4553 211.553 81.3139C212.516 80.886 213.371 80.0301 213.336 78.9959C213.193 76.3568 207.986 76.5351 207.844 73.8963C207.701 70.8648 215.689 71.7566 214.655 68.8679C214.227 67.6553 212.516 67.2986 211.945 66.1576C211.339 65.0165 211.374 63.4116 212.408 62.5914C213.728 61.5215 215.725 62.3774 217.401 61.9851C219.291 61.5571 220.504 59.6314 220.896 57.7057C221.289 55.78 221.075 53.8184 221.36 51.8927C222.037 47.1495 225.925 43.0485 230.596 42.0499C235.268 41.0513 240.475 43.2625 243.007 47.3279C244.041 49.004 244.612 51.2508 243.506 52.8554C242.543 54.2104 240.475 55.1022 240.653 56.7427C240.867 58.9895 245.039 59.2035 245.11 61.4503C245.182 64.0895 239.761 64.0895 239.904 66.7283C239.975 67.9052 241.223 68.5828 241.972 69.5098C243.399 71.2216 242.828 74.1815 240.867 75.2513C240.082 75.6793 239.155 75.8576 238.549 76.4639C236.979 77.9973 238.513 80.7076 240.367 81.849C242.222 82.9904 244.647 83.8819 245.324 85.9859Z" fill="url(#paint0_linear)"/>
<path d="M231.63 86.1642C232.736 85.5579 233.913 84.9872 234.804 84.0602C236.623 82.0629 236.516 79.0674 236.658 76.357C236.801 73.6467 237.764 70.4728 240.367 69.7594C242.543 69.1531 245.289 70.4725 246.894 68.9035C247.5 68.3328 247.749 67.4769 248.177 66.7638C250.032 63.6611 254.918 63.9107 257.628 66.3003C260.303 68.6895 261.337 72.3985 262.228 75.8935C262.549 77.1773 262.585 78.9606 261.337 79.317C260.124 79.6381 258.912 78.14 257.771 78.6039C256.844 78.9606 256.772 80.28 257.129 81.243C257.45 82.1701 258.02 83.1331 257.806 84.1317C257.378 85.9862 254.775 86.093 252.921 85.5939C251.066 85.0947 248.677 84.5952 247.607 86.2002C248.784 89.9447 249.782 94.5096 247.143 97.4695C244.112 100.857 238.513 100.501 233.984 100.929C225.568 101.714 219.612 108.133 214.869 115.158C214.583 103.389 221.324 91.7633 231.63 86.1642Z" fill="url(#paint1_linear)"/>
<path d="M221.074 109.808C221.038 109.808 221.038 109.808 221.003 109.808C220.895 109.773 220.86 109.666 220.895 109.594C225.175 96.5063 231.986 87.4125 244.433 78.2472C246.751 76.5355 253.741 73.6468 256.772 73.3972C256.843 73.3972 256.95 73.4684 256.95 73.5756C256.95 73.6827 256.879 73.7539 256.772 73.7539C253.883 74.0035 246.858 76.8922 244.647 78.5327C232.236 87.6624 225.46 96.6849 221.217 109.702C221.217 109.737 221.145 109.808 221.074 109.808Z" fill="white"/>
<path d="M227.672 71.4355L226.245 67.5126C225.746 67.477 225.211 67.5482 224.712 67.7265L226.245 71.9346C226.316 72.1842 226.209 72.4338 225.96 72.5053C225.71 72.5765 225.461 72.4697 225.389 72.2202L223.856 68.0833C223.392 68.3684 223 68.7608 222.679 69.1887L223.963 72.6837C224.034 72.9333 223.927 73.1828 223.677 73.2544C223.428 73.3256 223.178 73.2188 223.107 72.9692L222.108 70.2232C221.537 71.6498 221.502 73.4687 222.144 75.2516C222.144 75.2872 222.179 75.3228 222.179 75.3588C221.858 75.5371 221.502 75.7511 221.216 76.0007C220.325 76.6426 219.183 77.748 218.791 79.3173L219.219 79.4245C219.576 77.9979 220.646 76.9637 221.466 76.393C221.751 76.179 222.037 76.0007 222.357 75.8223C223.035 77.3201 224.14 78.5327 225.353 79.1746L224.39 76.5714C224.319 76.3218 224.425 76.0722 224.675 76.0007C224.925 75.9291 225.174 76.0363 225.246 76.2858L226.494 79.6381C227.029 79.7809 227.564 79.8165 228.099 79.7093L226.672 75.7864C226.601 75.5368 226.708 75.2872 226.957 75.2157C227.207 75.1445 227.457 75.2513 227.528 75.5009L228.99 79.4594C229.454 79.2454 229.882 78.9243 230.238 78.5679L228.919 75.0017C228.848 74.7521 228.955 74.5026 229.204 74.431C229.454 74.3598 229.703 74.4666 229.775 74.7162L230.916 77.7833C231.273 77.2482 231.594 76.6778 231.879 76.0716L231.166 74.1459C231.095 73.8963 231.202 73.6467 231.451 73.5752C231.701 73.504 231.95 73.6108 232.022 73.8603L232.414 74.8946C233.127 73.1828 233.591 71.5067 234.197 70.9716C233.199 70.7577 231.808 69.8306 230.274 68.9744L230.774 70.2938C230.845 70.5434 230.738 70.7929 230.488 70.8645C230.239 70.9357 229.989 70.8289 229.918 70.5793L229.097 68.3325C228.491 68.0473 227.885 67.8333 227.279 67.6906L228.527 71.15C228.598 71.3996 228.491 71.6491 228.242 71.7207C228.028 71.7922 227.778 71.6851 227.672 71.4355Z" fill="white"/>
<path d="M157.131 115.122H117.332V159.379H157.131V115.122Z" fill="#D6D7D8"/>
<path d="M181.774 157.953H92.689V161.376H181.774V157.953Z" fill="#428DFC"/>
<path d="M224.64 30.4951H49.8228V143.688H224.64V30.4951Z" fill="url(#paint2_linear)"/>
<path d="M221.573 33.3127H52.8899V126.534H221.573V33.3127Z" fill="white"/>
<path d="M128.668 135.285L130.963 137.58L133.257 135.285L130.963 132.991L128.668 135.285Z" fill="#A1C3FC"/>
<path d="M134.928 135.28L137.223 137.575L139.517 135.28L137.223 132.986L134.928 135.28Z" fill="white"/>
<path d="M141.188 135.29L143.482 137.584L145.777 135.29L143.482 132.995L141.188 135.29Z" fill="#1D72D8"/>
<path d="M221.109 17.2644C221.109 17.3356 221.109 17.4072 221.109 17.4784C221.109 20.4383 223.499 22.8279 226.459 22.8279C229.419 22.8279 231.809 20.4386 231.809 17.4784C231.809 17.4072 231.809 17.3356 231.809 17.2644H221.109Z" fill="#D3E3FE"/>
<path d="M240.26 4.24731C240.26 4.35446 240.26 4.49689 240.26 4.60403C240.26 9.48966 244.219 13.4482 249.104 13.4482C253.99 13.4482 257.949 9.48966 257.949 4.60403C257.949 4.49689 257.949 4.35446 257.949 4.24731C257.949 4.24731 240.26 4.24731 240.26 4.24731Z" fill="#A1C3FC"/>
<path d="M16.0148 -5.02466C16.0148 -4.81069 16.0148 -4.63233 16.0148 -4.41836C16.0148 3.81952 22.7193 10.5244 30.9575 10.5244C39.1957 10.5244 45.9002 3.81984 45.9002 -4.41836C45.9002 -4.63233 45.9002 -4.81069 45.9002 -5.02466C45.8999 -5.02466 16.0148 -5.02466 16.0148 -5.02466Z" fill="#F4F4F4"/>
<path d="M31.6705 -5.02466C31.6705 -4.8819 31.6705 -4.73948 31.6705 -4.59672C31.6705 1.39467 36.5206 6.24469 42.5119 6.24469C48.5033 6.24469 53.3534 1.39467 53.3534 -4.59672C53.3534 -4.73948 53.3534 -4.8819 53.3534 -5.02466H31.6705Z" fill="#E7EFFE"/>
<path d="M25.394 137.768C25.3228 139.337 26.2854 140.764 27.3912 141.905C30.3867 145.079 34.4168 147.254 38.6962 147.968C41.0854 148.36 43.5462 148.36 45.9713 148.645C53.0326 149.537 59.6299 153.388 63.874 159.094C61.9127 154.85 63.0537 149.822 64.9082 145.542C66.7627 141.263 69.2947 137.197 70.1862 132.632C70.9708 128.71 69.5799 123.538 65.6213 122.861C62.697 122.362 59.8439 124.608 56.9196 124.18C55.8854 124.038 54.7799 123.431 54.5659 122.397C53.9953 119.794 59.1308 118.581 58.5245 115.978C57.847 112.982 50.3222 115.978 50.5718 112.946C50.6789 111.662 52.2123 110.878 52.4975 109.594C52.7827 108.31 52.3191 106.777 51.1065 106.277C49.5372 105.6 47.8255 106.955 46.1138 107.026C44.1525 107.134 42.4763 105.564 41.5845 103.817C40.6927 102.07 40.372 100.072 39.5873 98.2894C37.6616 93.8673 32.8116 90.9074 27.9968 91.1925C23.1824 91.4777 18.7247 95.0083 17.3338 99.6444C16.7631 101.534 16.7987 103.888 18.3324 105.172C19.6162 106.242 21.863 106.527 22.1482 108.167C22.5405 110.414 18.5464 111.734 19.0811 113.945C19.6874 116.548 25.001 115.086 25.5361 117.689C25.7856 118.866 24.7514 119.865 24.2879 120.935C23.3608 122.968 24.7158 125.678 26.8911 126.213C27.7469 126.427 28.71 126.32 29.4943 126.748C31.42 127.818 30.6713 130.849 29.1732 132.454C27.6052 134.095 25.5367 135.557 25.394 137.768Z" fill="url(#paint3_linear)"/>
<path d="M38.803 134.309C37.5548 134.023 36.271 133.773 35.1656 133.096C32.8476 131.634 32.17 128.674 31.3142 126.106C30.4583 123.539 28.675 120.686 25.9647 120.686C23.6823 120.686 21.3642 122.718 19.4029 121.613C18.6539 121.185 18.1904 120.436 17.5841 119.865C14.9809 117.369 10.2733 118.902 8.31195 121.934C6.35064 124.965 6.35064 128.852 6.38625 132.49C6.42186 133.809 6.84979 135.557 8.16952 135.557C9.41772 135.557 10.2024 133.774 11.4506 133.917C12.4492 134.023 12.8771 135.308 12.8056 136.306C12.7344 137.304 12.4489 138.374 12.9127 139.266C13.8042 140.977 16.4077 140.371 18.0483 139.373C19.6888 138.374 21.8997 137.268 23.3618 138.552C23.2191 142.511 23.469 147.218 26.8212 149.358C30.6726 151.819 36.0221 150 40.5157 149.215C48.8964 147.718 56.4211 152.389 62.8761 157.953C59.9155 146.47 50.2863 136.983 38.803 134.309Z" fill="url(#paint4_linear)"/>
<path d="M63.7669 159.629C60.9138 152.176 58.6314 144.508 56.884 136.734" stroke="#428DFC" stroke-width="3.92" stroke-miterlimit="10" stroke-linecap="round"/>
<path d="M60.7779 135.038C60.5886 134.212 58.6611 133.95 56.4727 134.452C54.2842 134.954 52.6636 136.03 52.8528 136.855C53.0421 137.68 54.9696 137.943 57.1581 137.441C59.3465 136.939 60.9672 135.863 60.7779 135.038Z" fill="#23286B"/>
<path d="M56.67 135.806C55.707 131.384 54.9227 126.962 54.3164 122.469" stroke="#428DFC" stroke-width="3.92" stroke-miterlimit="10" stroke-linecap="round"/>
<path d="M58.8055 119.885C58.4866 118.932 56.1537 118.854 53.5948 119.71C51.0359 120.567 49.2199 122.033 49.5388 122.986C49.8576 123.939 52.1905 124.017 54.7494 123.16C57.3084 122.304 59.1243 120.837 58.8055 119.885Z" fill="#23286B"/>
<path d="M54.1381 121.292C53.6745 117.583 53.3178 113.874 53.0682 110.165" stroke="#428DFC" stroke-width="3.92" stroke-miterlimit="10" stroke-linecap="round"/>
<path d="M58.1972 108.831C58.1865 107.827 55.9907 107.036 53.2928 107.064C50.5948 107.093 48.4162 107.93 48.4269 108.935C48.4375 109.939 50.6333 110.73 53.3313 110.701C56.0293 110.673 58.2078 109.835 58.1972 108.831Z" fill="#23286B"/>
<path d="M52.9966 108.596C52.8539 105.779 52.7827 102.926 52.7471 100.073" stroke="#428DFC" stroke-width="3.92" stroke-miterlimit="10" stroke-linecap="round"/>
<path d="M59.3387 98.5425C59.3243 97.1838 56.3751 96.1135 52.7515 96.1519C49.1279 96.1903 46.2021 97.3229 46.2165 98.6816C46.2309 100.04 49.1801 101.111 52.8037 101.072C56.4272 101.034 59.3531 99.9013 59.3387 98.5425Z" fill="#23286B"/>
<path d="M52.7471 98.1471C52.7827 96.257 52.8183 94.3669 52.8898 92.4768" stroke="#428DFC" stroke-width="3.92" stroke-miterlimit="10" stroke-linecap="round"/>
<path d="M48.7173 149.073L50.1439 145.15C50.643 145.114 51.1781 145.186 51.6773 145.364L50.1439 149.572C50.0727 149.822 50.1795 150.071 50.4291 150.143C50.6787 150.214 50.9282 150.107 50.9998 149.858L52.5331 145.721C52.9967 146.006 53.389 146.398 53.7101 146.826L52.4263 150.321C52.3551 150.571 52.4619 150.82 52.7115 150.892C52.9611 150.963 53.2106 150.856 53.2822 150.607L54.2808 147.861C54.8515 149.287 54.8871 151.106 54.2452 152.889C54.2452 152.925 54.2096 152.96 54.2096 152.996C54.5307 153.175 54.8871 153.389 55.1726 153.638C56.0641 154.28 57.2054 155.385 57.5978 156.955L57.1698 157.062C56.8131 155.635 55.7433 154.601 54.923 154.03C54.6378 153.816 54.3523 153.638 54.0316 153.46C53.3541 154.958 52.2483 156.17 51.036 156.812L51.999 154.209C52.0703 153.959 51.9634 153.71 51.7139 153.638C51.4643 153.567 51.2147 153.674 51.1432 153.923L49.895 157.276C49.3599 157.418 48.8251 157.454 48.2901 157.347L49.7166 153.424C49.7878 153.174 49.681 152.925 49.4314 152.853C49.1819 152.782 48.9323 152.889 48.8608 153.138L47.3986 157.097C46.9351 156.883 46.5071 156.562 46.1504 156.205L47.4698 152.639C47.541 152.39 47.4342 152.14 47.1846 152.068C46.9351 151.997 46.6855 152.104 46.6139 152.354L45.4729 155.421C45.1162 154.886 44.7954 154.315 44.5099 153.709L45.223 151.783C45.2942 151.534 45.1874 151.284 44.9378 151.213C44.6882 151.141 44.4387 151.248 44.3671 151.498L43.9748 152.532C43.2617 150.82 42.7978 149.144 42.1915 148.609C43.1901 148.395 44.5808 147.468 46.1145 146.612L45.6153 147.931C45.5441 148.181 45.6509 148.43 45.9005 148.502C46.1501 148.573 46.3996 148.466 46.4712 148.217L47.2914 145.97C47.8977 145.685 48.504 145.471 49.1103 145.328L47.8621 148.787C47.7909 149.037 47.8977 149.287 48.1473 149.358C48.3606 149.43 48.6102 149.323 48.7173 149.073Z" fill="white"/>
<path d="M41.1214 35.0955L38.4466 34.7744C38.1971 34.81 37.9475 34.81 37.6976 34.8816L41.8701 35.3451C41.5849 35.2739 41.371 35.1667 41.1214 35.0955ZM42.7616 35.8446L36.699 35.1671C36.5562 35.2027 36.4494 35.2742 36.3066 35.3098L43.0824 36.0945C42.9755 35.987 42.8687 35.9158 42.7616 35.8446ZM43.5818 36.4865L35.6647 35.595C35.5576 35.6306 35.4864 35.7021 35.3796 35.7378L43.7246 36.7008C43.689 36.5933 43.6174 36.5577 43.5818 36.4865ZM43.9742 37.0928L34.8801 36.0585C34.8089 36.0941 34.7373 36.1657 34.6661 36.2013L44.0454 37.2711C44.0457 37.1996 44.0098 37.1284 43.9742 37.0928ZM44.1881 37.6631L34.2741 36.5221C34.2029 36.5577 34.167 36.6292 34.0958 36.7004L44.2241 37.8415C44.1881 37.7703 44.1881 37.6991 44.1881 37.6631ZM44.2597 38.1982L33.7394 36.9856C33.7038 37.0568 33.6322 37.0928 33.5966 37.164L44.2597 38.3766C44.2597 38.341 44.2597 38.2694 44.2597 38.1982ZM44.2597 38.7689L33.3114 37.5207C33.2758 37.5919 33.2402 37.6278 33.1687 37.6991L44.2241 38.9829C44.2597 38.8757 44.2597 38.8401 44.2597 38.7689ZM44.2237 39.3036L32.9544 38.0198C32.9188 38.0911 32.8832 38.127 32.8472 38.1982L44.2234 39.482C44.2237 39.4464 44.2237 39.3752 44.2237 39.3036ZM44.0457 39.9099C44.0457 39.8743 44.0813 39.8743 44.0813 39.8387L32.6336 38.5193C32.598 38.5905 32.5624 38.6265 32.5265 38.6977L43.9386 40.0171C43.9742 39.9815 44.0098 39.9455 44.0457 39.9099ZM43.2254 40.3735C43.261 40.3735 43.2967 40.3379 43.3326 40.3379L32.3484 39.0897C32.3128 39.1609 32.3128 39.1968 32.2772 39.268L42.9759 40.4806C43.0827 40.445 43.1539 40.4094 43.2254 40.3735ZM42.4764 40.7658L32.2057 39.5888C32.1701 39.66 32.1701 39.696 32.1701 39.7672L42.2984 40.9082C42.3336 40.873 42.4052 40.8373 42.4764 40.7658ZM41.9057 41.2653L32.0273 40.1242C32.0273 40.1954 31.9917 40.2314 31.9917 40.3026L41.7277 41.408C41.8345 41.3721 41.8701 41.3009 41.9057 41.2653ZM41.5134 41.7644L31.9558 40.659C31.9558 40.7302 31.9558 40.7661 31.9202 40.8373L41.3706 41.9072C41.4422 41.8716 41.4778 41.8356 41.5134 41.7644ZM41.2282 42.2995L31.9202 41.2297C31.9202 41.3009 31.9202 41.3368 31.9202 41.408L41.1567 42.4779C41.157 42.4063 41.1926 42.3351 41.2282 42.2995ZM41.0142 42.8343L31.9561 41.8C31.9561 41.8712 31.9561 41.9072 31.9561 41.9784L40.943 43.0126C40.9786 42.9414 41.0142 42.8699 41.0142 42.8343ZM40.9071 43.3693L32.0629 42.3707C32.0629 42.4419 32.0985 42.5135 32.0985 42.5491L40.9071 43.5477C40.9071 43.4762 40.9071 43.405 40.9071 43.3693ZM32.3125 43.1198L40.9071 44.1184C40.9071 44.0472 40.9071 44.0112 40.9071 43.94L32.241 42.9414C32.2413 42.977 32.2769 43.0482 32.3125 43.1198ZM32.598 43.6901L40.9786 44.6531C40.9786 44.5819 40.943 44.5104 40.943 44.4748L32.4912 43.5118C32.5265 43.5477 32.5624 43.6189 32.598 43.6901ZM33.0259 44.2964L41.0142 45.2235C41.0142 45.1523 41.0142 45.1164 41.0142 45.0451L32.8476 44.1181C32.9188 44.154 32.9544 44.2252 33.0259 44.2964ZM33.6322 44.9027C33.6678 44.9027 33.6678 44.9383 33.7034 44.9383L40.7647 45.7586C40.8003 45.723 40.8359 45.6514 40.8718 45.5802L33.4183 44.7244C33.4895 44.76 33.5607 44.8315 33.6322 44.9027ZM35.1656 45.6518L39.7304 46.1868C39.9088 46.1512 40.0872 46.1156 40.2655 46.0797L34.4881 45.4022C34.7021 45.4734 34.9516 45.5802 35.1656 45.6518Z" fill="#B3C9EE"/>
<path d="M229.776 153.103L233.948 153.281C234.34 153.21 234.733 153.174 235.089 153.031L228.563 152.817C229.027 152.889 229.383 153.031 229.776 153.103ZM227.136 152.14L236.623 152.461C236.836 152.39 236.979 152.283 237.229 152.176L226.637 151.784C226.816 151.962 226.958 152.068 227.136 152.14ZM225.817 151.248L238.192 151.676C238.37 151.605 238.441 151.498 238.62 151.427L225.567 150.927C225.639 151.106 225.746 151.141 225.817 151.248ZM225.104 150.357L239.333 150.856C239.44 150.785 239.547 150.677 239.654 150.606L224.997 150.071C224.997 150.214 225.068 150.321 225.104 150.357ZM224.712 149.501L240.225 150.071C240.332 150 240.367 149.893 240.474 149.786L224.64 149.216C224.712 149.322 224.712 149.43 224.712 149.501ZM224.533 148.681L240.974 149.287C241.009 149.18 241.116 149.108 241.188 149.002L224.498 148.395C224.533 148.467 224.533 148.574 224.533 148.681ZM224.462 147.789L241.58 148.431C241.616 148.324 241.687 148.253 241.794 148.146L224.498 147.468C224.462 147.646 224.462 147.682 224.462 147.789ZM224.462 146.969L242.079 147.611C242.115 147.504 242.186 147.432 242.222 147.326L224.426 146.684C224.462 146.755 224.462 146.862 224.462 146.969ZM224.676 146.006C224.676 146.077 224.64 146.077 224.64 146.113L242.543 146.79C242.579 146.684 242.65 146.612 242.686 146.505L224.855 145.828C224.783 145.899 224.712 145.935 224.676 146.006ZM225.888 145.186C225.817 145.186 225.781 145.257 225.71 145.257L242.899 145.863C242.935 145.756 242.935 145.685 243.006 145.578L226.281 144.972C226.102 145.043 225.995 145.114 225.888 145.186ZM226.994 144.472L243.042 145.079C243.078 144.972 243.078 144.9 243.078 144.794L227.244 144.223C227.208 144.294 227.101 144.365 226.994 144.472ZM227.814 143.652L243.256 144.223C243.256 144.116 243.292 144.044 243.292 143.938L228.064 143.403C227.921 143.474 227.885 143.581 227.814 143.652ZM228.385 142.832L243.327 143.403C243.327 143.296 243.327 143.224 243.363 143.117L228.599 142.582C228.456 142.654 228.42 142.725 228.385 142.832ZM228.741 141.976L243.292 142.511C243.292 142.404 243.292 142.333 243.256 142.226L228.813 141.655C228.848 141.798 228.813 141.905 228.741 141.976ZM229.027 141.12L243.185 141.655C243.185 141.548 243.185 141.477 243.149 141.37L229.098 140.835C229.062 140.942 229.027 141.049 229.027 141.12ZM229.134 140.264L242.971 140.763C242.971 140.657 242.899 140.549 242.899 140.478L229.134 139.979C229.098 140.086 229.134 140.193 229.134 140.264ZM242.471 139.622L229.027 139.087C229.027 139.194 229.027 139.266 229.062 139.372L242.614 139.872C242.614 139.836 242.543 139.729 242.471 139.622ZM241.972 138.767L228.884 138.267C228.884 138.374 228.955 138.481 228.955 138.553L242.186 139.052C242.079 138.98 242.044 138.873 241.972 138.767ZM241.223 137.875L228.741 137.376C228.741 137.483 228.741 137.554 228.777 137.661L241.544 138.124C241.402 138.089 241.33 137.982 241.223 137.875ZM240.225 137.019C240.153 137.019 240.153 136.983 240.118 136.983L229.062 136.555C229.027 136.627 228.955 136.734 228.919 136.841L240.581 137.268C240.439 137.233 240.332 137.126 240.225 137.019ZM237.764 136.056L230.631 135.771C230.346 135.842 230.096 135.914 229.811 135.985L238.834 136.342C238.477 136.27 238.085 136.127 237.764 136.056Z" fill="#B3C9EE"/>
<path d="M141.912 76.0629L117.557 112.182L84.2013 89.6736L108.557 53.5544L141.912 76.0629Z" fill="#D9E021"/>
<path d="M64.9268 52.3534L63.3802 51.6392L62.667 53.1868L64.2135 53.901L64.9268 52.3534Z" fill="#A1C3FC"/>
<path d="M91.1077 91.0826L91.1155 91.0982C91.1184 91.0901 91.1219 91.0823 91.1252 91.0742L91.1077 91.0826Z" fill="#151A4F"/>
<path d="M100.177 79.6995C100.081 79.763 99.9856 79.8272 99.8909 79.8921L100.197 79.7407L100.177 79.6995Z" fill="#151A4F"/>
<path d="M105.198 77.2597L105.158 77.1799C104.522 77.4114 103.901 77.673 103.292 77.9562L103.391 78.1563L105.198 77.2597Z" fill="#151A4F"/>
<path d="M93.6817 86.1304C93.3038 86.6873 92.9528 87.2636 92.6223 87.8531L94.1579 87.0914L93.6817 86.1304Z" fill="#151A4F"/>
<path d="M97.3526 85.5078L96.4561 83.6994L98.2638 82.8027L99.1601 84.6109L97.3526 85.5078Z" fill="#151A4F"/>
<path d="M102.352 83.0268L101.456 81.2187L103.264 80.322L104.16 82.1301L102.352 83.0268Z" fill="#151A4F"/>
<path d="M107.353 80.5464L106.457 78.738L108.264 77.8413L109.161 79.6494L107.353 80.5464Z" fill="#151A4F"/>
<path d="M112.352 78.065L114.16 77.1683L113.468 75.7716C113.384 75.7708 113.301 75.7651 113.217 75.7651C112.945 75.7651 112.675 75.7765 112.406 75.7859L111.456 76.2568L112.352 78.065Z" fill="#151A4F"/>
<path d="M93.8117 91.9939L92.9154 90.1858L91.1252 91.0741C91.1222 91.0822 91.1187 91.09 91.1155 91.0981L92.004 92.8906L93.8117 91.9939Z" fill="#151A4F"/>
<path d="M97.0055 90.4106L96.1091 88.6025L97.9166 87.7056L98.8129 89.514L97.0055 90.4106Z" fill="#151A4F"/>
<path d="M102.006 87.9299L101.11 86.1218L102.917 85.2249L103.814 87.0332L102.006 87.9299Z" fill="#151A4F"/>
<path d="M107.007 85.4492L106.11 83.6411L107.918 82.7441L108.815 84.5526L107.007 85.4492Z" fill="#151A4F"/>
<path d="M112.007 82.9685L111.11 81.1604L112.918 80.2634L113.814 82.0718L112.007 82.9685Z" fill="#151A4F"/>
<path d="M91.8758 95.0559L92.7721 96.864L90.9647 97.7607L90.0684 95.9526L91.8758 95.0559Z" fill="#151A4F"/>
<path d="M95.9675 95.2812L95.0712 93.4731L96.8786 92.5764L97.7749 94.3845L95.9675 95.2812Z" fill="#151A4F"/>
<path d="M100.967 92.8L100.071 90.9919L101.878 90.095L102.775 91.9034L100.967 92.8Z" fill="#151A4F"/>
<path d="M105.969 90.3195L105.072 88.5114L106.88 87.6147L107.776 89.4229L105.969 90.3195Z" fill="#151A4F"/>
<path d="M110.968 87.8389L110.072 86.0304L111.88 85.1338L112.776 86.9419L110.968 87.8389Z" fill="#151A4F"/>
<path d="M115.969 85.3581L115.073 83.5497L116.88 82.6531L117.777 84.4612L115.969 85.3581Z" fill="#151A4F"/>
<path d="M91.5286 99.9585L92.425 101.767L90.6175 102.664L89.7212 100.855L91.5286 99.9585Z" fill="#151A4F"/>
<path d="M97.4269 99.2857L95.6195 100.183L94.7231 98.3742L96.5306 97.4775L97.4269 99.2857Z" fill="#151A4F"/>
<path d="M100.622 97.7033L99.7253 95.8952L101.533 94.9985L102.429 96.8067L100.622 97.7033Z" fill="#151A4F"/>
<path d="M105.621 95.2226L104.725 93.4145L106.532 92.5176L107.429 94.326L105.621 95.2226Z" fill="#151A4F"/>
<path d="M110.621 92.7414L109.725 90.933L111.533 90.0364L112.429 91.8445L110.621 92.7414Z" fill="#151A4F"/>
<path d="M115.622 90.261L114.725 88.4526L116.533 87.5559L117.429 89.364L115.622 90.261Z" fill="#151A4F"/>
<path d="M90.4912 104.83L90.2875 104.931C90.449 105.599 90.6395 106.256 90.8565 106.901L91.3873 106.637L90.4912 104.83Z" fill="#151A4F"/>
<path d="M95.4908 102.348L96.3874 104.156L94.5797 105.053L93.6833 103.245L95.4908 102.348Z" fill="#151A4F"/>
<path d="M100.491 99.8674L101.388 101.676L99.58 102.572L98.6837 100.764L100.491 99.8674Z" fill="#151A4F"/>
<path d="M105.492 97.387L106.388 99.1951L104.581 100.092L103.684 98.2836L105.492 97.387Z" fill="#151A4F"/>
<path d="M111.39 96.7142L109.582 97.6108L108.686 95.8027L110.494 94.9058L111.39 96.7142Z" fill="#151A4F"/>
<path d="M113.685 93.3239L115.493 92.4272L116.389 94.2354L114.582 95.1323L113.685 93.3239Z" fill="#151A4F"/>
<path d="M119.584 92.6508L118.688 90.8427L120.495 89.946L121.391 91.7542L119.584 92.6508Z" fill="#151A4F"/>
<path d="M95.1433 107.25L96.0396 109.059L94.2321 109.955L93.3358 108.147L95.1433 107.25Z" fill="#151A4F"/>
<path d="M100.144 104.77L101.041 106.578L99.2333 107.475L98.3367 105.667L100.144 104.77Z" fill="#151A4F"/>
<path d="M106.043 104.097L104.235 104.994L103.339 103.186L105.146 102.289L106.043 104.097Z" fill="#151A4F"/>
<path d="M108.338 100.708L110.145 99.8115L111.042 101.62L109.234 102.516L108.338 100.708Z" fill="#151A4F"/>
<path d="M116.044 99.135L114.236 100.032L113.34 98.2236L115.147 97.3269L116.044 99.135Z" fill="#151A4F"/>
<path d="M119.238 97.5539L118.342 95.7455L120.149 94.8489L121.045 96.657L119.238 97.5539Z" fill="#151A4F"/>
<path d="M93.897 112.911C94.2679 113.439 94.6563 113.955 95.0687 114.45L94.2248 112.748L93.897 112.911Z" fill="#151A4F"/>
<path d="M99.2241 110.267L100.12 112.075L98.313 112.972L97.4166 111.164L99.2241 110.267Z" fill="#151A4F"/>
<path d="M104.224 107.786L105.12 109.594L103.313 110.49L102.417 108.682L104.224 107.786Z" fill="#151A4F"/>
<path d="M109.225 105.306L110.121 107.114L108.314 108.011L107.417 106.202L109.225 105.306Z" fill="#151A4F"/>
<path d="M115.124 104.632L113.316 105.529L112.42 103.72L114.227 102.823L115.124 104.632Z" fill="#151A4F"/>
<path d="M120.124 102.152L118.316 103.049L117.42 101.24L119.227 100.344L120.124 102.152Z" fill="#151A4F"/>
<path d="M123.317 100.569L122.42 98.7612L124.228 97.8643L125.124 99.6726L123.317 100.569Z" fill="#151A4F"/>
<path d="M98.8785 115.171L97.071 116.067L97.5316 116.996C97.797 117.233 98.067 117.464 98.3431 117.689L99.7746 116.979L98.8785 115.171Z" fill="#151A4F"/>
<path d="M103.877 112.688L104.774 114.497L102.966 115.394L102.069 113.585L103.877 112.688Z" fill="#151A4F"/>
<path d="M108.878 110.208L109.774 112.017L107.967 112.913L107.071 111.105L108.878 110.208Z" fill="#151A4F"/>
<path d="M112.071 108.627L113.879 107.73L114.775 109.538L112.967 110.435L112.071 108.627Z" fill="#151A4F"/>
<path d="M117.072 106.145L118.88 105.249L119.776 107.057L117.969 107.954L117.072 106.145Z" fill="#151A4F"/>
<path d="M122.972 105.473L122.075 103.665L123.883 102.768L124.779 104.576L122.972 105.473Z" fill="#151A4F"/>
<path d="M102.84 117.56L101.033 118.457L101.815 120.035C101.907 120.085 101.998 120.136 102.09 120.185L103.737 119.368L102.84 117.56Z" fill="#151A4F"/>
<path d="M107.84 115.079L108.736 116.887L106.929 117.783L106.032 115.975L107.84 115.079Z" fill="#151A4F"/>
<path d="M112.839 112.597L113.736 114.406L111.928 115.302L111.032 113.494L112.839 112.597Z" fill="#151A4F"/>
<path d="M117.841 110.117L118.737 111.926L116.93 112.822L116.033 111.014L117.841 110.117Z" fill="#151A4F"/>
<path d="M122.84 107.636L123.736 109.445L121.929 110.342L121.032 108.533L122.84 107.636Z" fill="#151A4F"/>
<path d="M127.84 105.156L128.737 106.964L126.929 107.861L126.033 106.052L127.84 105.156Z" fill="#151A4F"/>
<path d="M107.494 119.982L105.686 120.879L106.198 121.911C106.609 122.039 107.026 122.153 107.446 122.259L108.39 121.79L107.494 119.982Z" fill="#151A4F"/>
<path d="M112.493 117.5L113.39 119.309L111.582 120.206L110.686 118.397L112.493 117.5Z" fill="#151A4F"/>
<path d="M117.494 115.02L118.39 116.828L116.582 117.725L115.686 115.917L117.494 115.02Z" fill="#151A4F"/>
<path d="M122.493 112.539L123.389 114.347L121.582 115.244L120.685 113.436L122.493 112.539Z" fill="#151A4F"/>
<path d="M127.494 110.059L128.391 111.867L126.583 112.764L125.687 110.956L127.494 110.059Z" fill="#151A4F"/>
<path d="M110.554 122.819C110.943 122.863 111.334 122.897 111.728 122.921L111.456 122.372L110.554 122.819Z" fill="#151A4F"/>
<path d="M116.455 119.89L117.351 121.699L115.544 122.595L114.647 120.787L116.455 119.89Z" fill="#151A4F"/>
<path d="M121.455 117.41L122.352 119.218L120.544 120.115L119.648 118.307L121.455 117.41Z" fill="#151A4F"/>
<path d="M126.456 114.929L127.352 116.737L125.545 117.634L124.648 115.826L126.456 114.929Z" fill="#151A4F"/>
<path d="M131.457 112.449L129.65 113.346L130.546 115.154L130.916 114.971C131.304 114.531 131.678 114.078 132.033 113.609L131.457 112.449Z" fill="#151A4F"/>
<path d="M147.775 49.0356L144.999 50.4593H148.505L147.775 49.0356Z" fill="#A1C3FC"/>
<path d="M135.288 55.4378H151.055L149.713 52.8176H140.4L135.288 55.4378Z" fill="#A1C3FC"/>
<path d="M125.578 60.4163H153.606L152.263 57.7961H130.689L125.578 60.4163Z" fill="#A1C3FC"/>
<path d="M126.892 65.3946H156.156L154.814 62.7744H125.549L126.892 65.3946Z" fill="#A1C3FC"/>
<path d="M129.443 70.3734H158.707L157.364 67.7532H128.1L129.443 70.3734Z" fill="#A1C3FC"/>
<path d="M131.993 75.3516H153.037L158.148 72.7314H130.651L131.993 75.3516Z" fill="#A1C3FC"/>
<path d="M134.544 80.3299H143.327L148.438 77.71H133.201L134.544 80.3299Z" fill="#A1C3FC"/>
<path d="M136.371 83.8966L138.728 82.6882H135.752L136.371 83.8966Z" fill="#A1C3FC"/>
<path d="M129.392 37.2813C130.326 37.0649 131.285 36.8472 132.236 36.9693C133.658 37.1519 134.871 38.0653 135.945 39.0172C137.261 40.1854 138.49 41.4714 139.452 42.9457C141.738 46.4518 142.374 50.8057 142.232 54.9894C142.089 59.1728 141.23 63.2958 140.774 67.4571C140.3 71.7685 140.26 76.1276 140.653 80.4468C131.042 79.0668 121.19 79.3782 111.686 81.3634C117.961 72.2408 121.656 60.8311 119.445 49.9799C118.79 46.7605 117.775 42.963 119.993 40.5405C121.208 39.2133 123.073 38.7445 124.825 38.3388C126.347 37.9864 127.87 37.6339 129.392 37.2813Z" fill="#151A4F"/>
<path d="M129.923 54.5246C129.832 54.5368 129.737 54.5502 129.658 54.6044C129.409 54.7736 129.439 55.2041 129.499 55.5377C130.562 61.5182 130.133 67.8621 128.28 73.5637C131.751 70.9805 136.35 73.5535 140.353 72.5278C139.205 69.8901 139.468 66.748 139.481 63.7781C139.496 60.282 140.232 55.5808 139.484 52.1992C136.666 52.5737 132.741 54.1507 129.923 54.5246Z" fill="#F2A19C"/>
<path d="M123.161 44.0287C122.867 47.0854 123.583 49.7368 124.751 52.5771C126.108 55.8776 128.582 58.8949 131.957 60.0532C135.331 61.2115 138.816 60.7734 140.467 57.6092C141.149 56.3036 141.475 54.164 141.451 52.6919C141.383 48.6524 140.428 44.4302 137.479 41.6704C135.729 40.0329 133.908 37.715 131.521 37.5105C129.133 37.306 125.771 38.3721 124.405 40.3408C123.285 41.9523 123.349 42.0754 123.161 44.0287Z" fill="#FFBEB6"/>
<path d="M137.152 54.1741C136.674 54.7073 135.982 54.9947 135.294 55.1914C134.228 55.4956 133.091 55.6212 132.008 55.3859C130.925 55.1507 129.9 54.5249 129.329 53.5746C129.983 53.677 130.652 53.6891 131.309 53.6104C134.477 53.2308 137.015 50.8399 139.008 48.3472C138.894 49.6466 138.744 50.4897 138.423 51.7476C138.236 52.4778 137.654 53.6123 137.152 54.1741Z" fill="white"/>
<path d="M120.075 49.2078C123.338 43.9219 128.953 40.151 135.079 39.1323C136.113 40.0618 137.147 40.9916 138.181 41.9209C131.267 42.8709 125.533 47.806 121.249 53.3177C120.39 52.1053 119.5 50.5385 120.205 49.2302C119.904 51.3059 120.822 47.2491 120.075 49.2078Z" fill="#E94A47"/>
<path d="M121.702 84.579C124.385 73.3504 123.963 71.1705 123.901 59.6258C123.887 57.0573 125.007 46.7169 126.85 43.5822C129.436 39.1859 131.762 38.4566 134.185 37.6081C128.471 32.8134 121.397 38.0457 119.723 41.0035C118.05 43.9612 117.815 47.4886 117.565 50.8788C116.737 62.0883 115.318 73.2545 113.313 84.3142C116.111 84.2304 118.914 84.3193 121.702 84.579Z" fill="#23286B"/>
<path d="M125.646 56.4921C125.645 56.4921 125.645 56.4921 125.645 56.4921C125.543 56.4913 125.461 56.4078 125.461 56.3065C125.487 52.3489 126.311 48.624 128.131 44.2297C129.279 41.4586 131.796 38.4852 133.28 37.6777C133.369 37.6295 133.481 37.6624 133.53 37.7516C133.578 37.841 133.545 37.9534 133.455 38.0021C132.055 38.7641 129.573 41.7124 128.471 44.3714C126.67 48.7194 125.856 52.4014 125.83 56.3089C125.829 56.4102 125.747 56.4921 125.646 56.4921Z" fill="#23286B"/>
<path d="M126.964 54.8464C126.956 54.8464 126.947 54.8461 126.939 54.8445C126.838 54.8313 126.767 54.7383 126.781 54.6373C127.591 48.5913 130.264 42.0952 133.755 37.6825C133.819 37.6035 133.935 37.589 134.014 37.6526C134.094 37.7156 134.108 37.8315 134.045 37.9115C130.591 42.2746 127.948 48.7023 127.146 54.6858C127.134 54.7787 127.055 54.8464 126.964 54.8464Z" fill="#23286B"/>
<path d="M111.155 83.8449C111.151 83.8449 111.147 83.8449 111.143 83.8447C111.042 83.8379 110.964 83.7506 110.971 83.6491C111.694 71.999 113.276 61.9017 116.259 49.885L116.33 49.5988C117.045 46.7138 118.124 42.3537 120.203 40.4159C120.278 40.3467 120.395 40.3505 120.464 40.4251C120.533 40.4997 120.529 40.6167 120.455 40.6859C118.456 42.549 117.392 46.8447 116.688 49.6872L116.617 49.9733C113.639 61.9674 112.061 72.0454 111.339 83.6717C111.333 83.7698 111.252 83.8449 111.155 83.8449Z" fill="#23286B"/>
<path d="M142.025 66.3576C141.917 68.4188 141.808 70.4791 141.699 72.5402C141.695 72.628 141.681 72.7307 141.604 72.7732C141.556 72.7999 141.497 72.7932 141.442 72.7856C139.295 72.4992 138.049 82.5206 135.882 82.492C133.589 82.4619 130.374 72.3969 128.095 72.6552C128.101 71.4113 128.106 70.1673 128.111 68.9231C128.113 68.4807 128.064 67.3219 128.064 67.3219C128.064 67.3219 128.636 66.7731 129.04 66.5872C130.427 65.9489 131.831 68.1962 133.286 67.7344C134.065 67.4873 134.489 66.5309 135.292 66.376C136.419 66.158 137.151 67.6086 138.248 67.9491C138.924 68.1588 139.663 67.9125 140.268 67.5464C140.873 67.1802 141.402 66.6952 142.025 66.3576Z" fill="white"/>
<path d="M136.19 80.4784C138.06 77.3563 139.929 74.2342 141.799 71.1121C145.85 72.0211 149.776 73.4817 153.436 75.441C155.355 76.4677 157.226 77.6516 158.69 79.2612C160.836 81.6181 161.964 84.7203 162.77 87.8042C165.124 96.8171 164.641 111.33 162.267 120.337C159.307 119.851 156.707 119.334 153.73 119.704C150.383 120.121 146.345 120.897 142.981 120.653C130.972 119.785 123.63 119.451 111.996 122.551C111.494 115.89 107.245 104.853 107.583 98.182C107.914 91.6435 108.772 84.7914 112.606 79.4856C115.897 74.9307 128.14 71.4273 128.14 71.4273C128.14 71.4273 134.182 78.0054 136.19 80.4784Z" fill="url(#paint5_linear)"/>
<path d="M93.8294 66.8296C92.9167 63.1939 91.433 63.0493 88.7602 60.3752C88.3285 59.9433 87.8612 59.2649 87.3778 59.6378C86.9059 60.9685 90.235 63.2335 90.5254 66.3433C86.1697 63.8236 79.6863 62.6033 75.7646 62.865C74.3821 62.9571 76.7785 64.0634 79.9121 64.5249C82.7729 64.9457 84.5206 66.0924 87.0879 67.418C87.2394 67.8569 85.5251 67.1227 85.074 67.0147C80.7966 65.9879 77.7925 65.1707 73.2373 64.8259C71.8937 64.9859 74.2101 67.2725 75.4421 67.7521C78.5044 68.9435 81.9392 69.8359 85.0016 71.0273C84.1981 72.5005 76.1333 67.5217 77.7206 69.4942C80.5423 72.6675 84.8363 74.473 89.0765 74.2682C89.7755 74.2348 90.5009 74.1532 91.1555 74.3997C91.9248 74.6896 92.6435 75.4418 92.8626 76.2345C96.0062 87.628 99.458 98.4094 102.126 105.648C102.909 104.557 105.711 94.4308 106.957 93.9297C104.548 87.4033 100.119 83.9897 97.7934 77.4332C96.7795 74.5748 95.498 72.4595 94.6598 70.3335C94.4789 69.8787 93.6604 66.3705 93.8294 66.8296Z" fill="url(#paint6_linear)"/>
<path d="M98.1982 76.1355C103.533 84.3485 104.214 87.7292 109.252 96.8267C111.862 101.539 115.699 107.871 116.626 113.177C116.866 114.549 116.131 122.163 115.029 123.013C114.156 123.685 111.806 122.605 110.907 121.97C110.007 121.334 109.423 120.355 108.871 119.402C101.467 106.631 94.9607 93.3395 89.4153 79.6583C92.5874 79.301 95.6575 78.07 98.1982 76.1355Z" fill="url(#paint7_linear)"/>
<path d="M149.984 54.0911C150.9 54.0911 151.642 53.3479 151.642 52.4312C151.642 51.5144 150.9 50.7712 149.984 50.7712C149.068 50.7712 148.326 51.5144 148.326 52.4312C148.326 53.3479 149.068 54.0911 149.984 54.0911Z" fill="#D9E021"/>
<path d="M75.9902 55.8491L71.7788 53.9042L73.7227 49.6914L77.9341 51.6361L75.9902 55.8491Z" fill="#E94A47"/>
<path d="M90.3679 49.7647L86.1565 47.8197L88.1007 43.6069L92.3121 45.5517L90.3679 49.7647Z" fill="#1D72D8"/>
<path d="M83.2691 51.6883C83.2083 51.6883 83.1485 51.6584 83.1136 51.6034C80.4243 47.3898 74.8001 45.3398 70.0318 46.8329C69.9338 46.8628 69.8313 46.8095 69.8011 46.712C69.771 46.6147 69.8245 46.5115 69.9222 46.4805C74.8442 44.938 80.6493 47.056 83.425 51.4046C83.4796 51.4905 83.4549 51.6045 83.369 51.6595C83.3375 51.6786 83.3033 51.6883 83.2691 51.6883Z" fill="#23286B"/>
<path d="M63.8984 68.5913C63.8943 68.5913 63.8906 68.5913 63.8865 68.591C63.7851 68.5843 63.7075 68.497 63.7143 68.3954C63.9501 64.6889 67.2797 61.3817 70.9858 61.1729C71.0881 61.1632 71.1748 61.2448 71.1802 61.3467C71.1861 61.448 71.108 61.5356 71.0065 61.5412C67.4775 61.7403 64.3067 64.8897 64.082 68.4183C64.076 68.5167 63.995 68.5913 63.8984 68.5913Z" fill="#23286B"/>
<path d="M167.504 120.477H105.185V123.5H167.504V120.477Z" fill="#EEEEEE"/>
<path d="M135.078 45.323C134.98 45.323 134.898 45.2443 134.895 45.1452C134.891 45.0436 134.971 44.9579 135.072 44.9539C137.516 44.8693 139.764 42.74 139.98 40.3036C139.988 40.2025 140.082 40.1309 140.18 40.1363C140.281 40.1452 140.356 40.2352 140.347 40.3362C140.111 42.9944 137.751 45.2311 135.085 45.323C135.083 45.323 135.081 45.323 135.078 45.323Z" fill="#23286B"/>
<path d="M167.504 85.2295H114.704V123.5H167.504V85.2295Z" fill="url(#paint8_linear)"/>
<path d="M145.318 101.834H137.414V109.742H145.318V101.834Z" fill="white"/>
<path d="M158.287 111.949C159.248 113.63 166.299 109.547 167.627 108.137C167.587 110.02 164.8 111.334 164.55 112.053C164.331 112.683 165.855 112.206 166.416 111.844C169.171 110.065 170.401 106.28 170.331 102.974C170.307 101.872 169.939 101.307 169.593 100.27C168.487 96.9503 168.365 89.5737 167.598 91.215C166.775 93.395 166.034 97.0953 167.135 99.0403C163.148 101.877 160.666 104.894 158.018 109.009C157.632 109.609 157.328 110.544 157.935 110.916C159.832 109.125 161.728 107.335 163.624 105.545C164.82 104.416 165.968 102.939 167.258 103.958C165.549 105.946 157.796 111.088 158.287 111.949Z" fill="url(#paint9_linear)"/>
<path d="M119.458 100.208C119.486 100.311 119.57 100.377 119.672 100.349C119.775 100.321 119.841 100.238 119.813 100.135C119.785 100.032 119.702 99.9666 119.599 99.9941C119.496 100.022 119.43 100.105 119.458 100.208ZM126.312 116.667C126.247 116.75 126.275 116.853 126.358 116.919C126.442 116.985 126.545 116.957 126.61 116.873C126.676 116.789 126.648 116.686 126.565 116.621C126.49 116.508 126.378 116.582 126.312 116.667ZM128.659 112.771C128.593 112.854 128.621 112.957 128.705 113.023C128.789 113.089 128.891 113.061 128.957 112.977C129.023 112.893 128.995 112.791 128.911 112.725C128.874 112.669 128.725 112.687 128.659 112.771ZM120.691 108.719C120.774 108.785 120.868 108.804 120.97 108.776C121.036 108.693 121.055 108.599 121.027 108.496C120.943 108.431 120.85 108.412 120.794 108.449C120.635 108.514 120.616 108.608 120.691 108.719ZM124.396 106.024C124.48 106.089 124.573 106.108 124.676 106.08C124.741 105.997 124.76 105.903 124.732 105.801C124.649 105.735 124.556 105.716 124.499 105.753C124.341 105.818 124.312 105.958 124.396 106.024ZM135.411 117.789C135.392 117.882 135.466 117.995 135.559 118.013C135.653 118.032 135.765 117.958 135.784 117.865C135.802 117.771 135.728 117.659 135.635 117.64C135.541 117.621 135.43 117.695 135.411 117.789ZM136.135 113.271C136.116 113.365 136.19 113.477 136.283 113.496C136.377 113.515 136.489 113.44 136.508 113.347C136.527 113.254 136.452 113.142 136.359 113.123C136.266 113.103 136.153 113.178 136.135 113.271ZM118.182 105.051C118.219 105.107 118.35 105.182 118.416 105.098C118.472 105.061 118.547 104.931 118.463 104.865C118.426 104.809 118.295 104.734 118.23 104.817C118.127 104.845 118.108 104.938 118.182 105.051ZM121.671 102.942C121.708 102.998 121.839 103.074 121.904 102.99C121.96 102.953 122.026 102.869 121.952 102.757C121.915 102.7 121.831 102.635 121.719 102.709C121.652 102.793 121.634 102.886 121.671 102.942ZM131.816 115.162C131.797 115.256 131.824 115.358 131.918 115.377C132.011 115.396 132.067 115.359 132.133 115.275C132.152 115.181 132.124 115.079 132.03 115.06C131.937 115.041 131.834 115.069 131.816 115.162ZM132.809 111.234C132.79 111.327 132.817 111.43 132.911 111.449C133.004 111.468 133.06 111.431 133.126 111.347C133.144 111.253 133.117 111.151 133.023 111.132C132.93 111.113 132.828 111.141 132.809 111.234ZM124.945 109.537C124.879 109.62 124.907 109.723 124.99 109.789C125.074 109.855 125.177 109.827 125.243 109.743C125.308 109.66 125.28 109.557 125.197 109.491C125.113 109.425 125.01 109.453 124.945 109.537ZM116.107 108.807C116.041 108.891 116.069 108.994 116.153 109.06C116.236 109.126 116.339 109.098 116.405 109.014C116.47 108.93 116.443 108.827 116.359 108.762C116.275 108.696 116.172 108.724 116.107 108.807ZM118.91 105.053C118.845 105.137 118.872 105.24 118.956 105.306C119.04 105.371 119.143 105.344 119.208 105.26C119.274 105.176 119.246 105.073 119.163 105.007C119.079 104.942 118.976 104.969 118.91 105.053ZM121.677 101.243C121.611 101.327 121.639 101.43 121.722 101.496C121.806 101.561 121.909 101.534 121.975 101.45C122.04 101.366 122.013 101.263 121.929 101.197C121.836 101.178 121.733 101.206 121.677 101.243ZM135.218 113.717C135.246 113.819 135.33 113.885 135.432 113.857C135.535 113.83 135.601 113.746 135.573 113.643C135.546 113.54 135.462 113.475 135.359 113.502C135.266 113.483 135.191 113.613 135.218 113.717ZM119.166 95.1929C119.054 95.2675 119.035 95.3607 119.11 95.4728L119.166 95.1929ZM125.388 110.939C125.369 111.032 125.443 111.145 125.536 111.163C125.63 111.182 125.742 111.108 125.761 111.015C125.78 110.922 125.705 110.809 125.612 110.79C125.519 110.771 125.407 110.845 125.388 110.939ZM122.177 110.966C122.158 111.059 122.232 111.172 122.325 111.19C122.418 111.209 122.531 111.135 122.55 111.042C122.568 110.948 122.541 110.846 122.401 110.817C122.308 110.798 122.196 110.872 122.177 110.966ZM123.48 106.469C123.461 106.562 123.535 106.675 123.628 106.694C123.721 106.713 123.824 106.685 123.853 106.545C123.871 106.452 123.797 106.339 123.713 106.274C123.611 106.301 123.499 106.375 123.48 106.469ZM117.693 100.53C117.627 100.613 117.655 100.716 117.738 100.782C117.822 100.848 117.925 100.82 118.038 100.746C118.103 100.662 118.075 100.559 118.001 100.446C117.861 100.418 117.758 100.445 117.693 100.53ZM119.533 100.078C119.514 100.171 119.551 100.227 119.588 100.284C119.682 100.303 119.738 100.266 119.794 100.228C119.813 100.135 119.776 100.079 119.739 100.022C119.646 100.004 119.543 100.031 119.533 100.078Z" fill="white"/>
<path d="M222.333 165.998C219.209 165.998 216.667 163.456 216.667 160.332C216.667 157.208 219.209 154.667 222.333 154.667C225.458 154.667 228 157.208 228 160.332C228 163.456 225.458 165.998 222.333 165.998ZM222.333 156.062C219.978 156.062 218.062 157.977 218.062 160.332C218.062 162.687 219.978 164.603 222.333 164.603C224.689 164.603 226.605 162.687 226.605 160.332C226.605 157.977 224.689 156.062 222.333 156.062Z" fill="url(#paint10_linear)"/>
<path d="M236.5 159.745H208.167V181.167H236.5V159.745Z" fill="url(#paint11_linear)"/>
<path d="M223.891 168.494C221.672 168.494 219.298 168.123 216.794 167.383C214.449 166.689 212.721 165.872 211.356 164.811C209.625 163.466 208.476 161.637 208.204 159.794L208.319 159.777C208.587 161.59 209.72 163.392 211.428 164.719C212.78 165.771 214.496 166.582 216.826 167.271C220.774 168.438 224.394 168.684 227.587 168.001C228.956 167.708 231.992 166.051 232.808 164.803L232.906 164.867C232.076 166.135 228.998 167.819 227.612 168.115C226.428 168.368 225.186 168.494 223.891 168.494Z" fill="#D7D8D9"/>
<path d="M223.976 166.779H220.691V170.063H223.976V166.779Z" fill="#EFEFEF"/>
<path d="M230.28 173.201C230.295 173.191 230.299 173.17 230.289 173.155C230.279 173.139 230.258 173.135 230.243 173.146C230.228 173.156 230.224 173.176 230.234 173.192C230.244 173.207 230.265 173.211 230.28 173.201ZM232.133 170.344C232.151 170.348 232.169 170.336 232.173 170.318C232.177 170.301 232.167 170.284 232.15 170.28C232.149 170.28 232.147 170.28 232.146 170.28C232.128 170.276 232.11 170.287 232.106 170.304C232.103 170.322 232.114 170.34 232.133 170.344ZM231.101 171.731C231.118 171.74 231.138 171.735 231.149 171.72C231.159 171.704 231.155 171.683 231.139 171.672C231.123 171.662 231.101 171.667 231.091 171.683C231.082 171.699 231.086 171.72 231.101 171.731ZM233.79 175.256C233.819 175.276 233.859 175.271 233.88 175.242C233.901 175.216 233.898 175.177 233.872 175.156C233.871 175.155 233.87 175.155 233.869 175.154C233.84 175.133 233.801 175.139 233.779 175.167C233.758 175.195 233.763 175.234 233.79 175.256ZM232.562 174.327C232.591 174.347 232.631 174.341 232.651 174.312C232.672 174.284 232.666 174.245 232.638 174.224C232.611 174.202 232.571 174.207 232.55 174.235C232.53 174.264 232.535 174.304 232.562 174.327ZM231.333 173.395C231.36 173.416 231.4 173.411 231.421 173.383C231.421 173.383 231.422 173.382 231.422 173.381C231.444 173.355 231.44 173.316 231.414 173.295C231.413 173.294 231.412 173.294 231.411 173.293C231.382 173.273 231.342 173.278 231.319 173.305C231.299 173.334 231.305 173.373 231.333 173.395ZM230.928 176.886C230.957 176.867 230.966 176.828 230.947 176.798C230.929 176.769 230.89 176.76 230.86 176.779C230.831 176.797 230.822 176.835 230.839 176.865C230.858 176.894 230.897 176.903 230.928 176.886ZM230.148 175.556C230.178 175.537 230.187 175.498 230.168 175.468C230.149 175.439 230.11 175.43 230.081 175.449C230.052 175.467 230.042 175.505 230.06 175.534C230.078 175.564 230.118 175.573 230.148 175.556ZM234.48 172.221C234.514 172.229 234.549 172.209 234.557 172.174C234.566 172.141 234.546 172.107 234.513 172.098C234.513 172.098 234.513 172.098 234.513 172.098C234.481 172.087 234.446 172.105 234.436 172.137C234.435 172.138 234.435 172.14 234.434 172.141C234.426 172.176 234.446 172.21 234.48 172.221ZM232.988 171.831C233.022 171.838 233.057 171.818 233.067 171.785C233.075 171.751 233.054 171.716 233.02 171.708C232.986 171.699 232.952 171.719 232.943 171.753C232.943 171.753 232.943 171.754 232.943 171.754C232.934 171.787 232.953 171.821 232.986 171.83C232.987 171.83 232.987 171.83 232.988 171.831ZM231.498 171.441C231.53 171.45 231.564 171.432 231.573 171.399C231.573 171.398 231.574 171.397 231.574 171.397C231.584 171.363 231.565 171.328 231.531 171.318C231.53 171.318 231.529 171.317 231.528 171.317C231.494 171.308 231.459 171.329 231.451 171.363C231.442 171.397 231.463 171.432 231.497 171.441C231.497 171.441 231.497 171.441 231.498 171.441ZM229.603 177.615C229.631 177.602 229.644 177.568 229.631 177.54C229.618 177.511 229.585 177.499 229.556 177.512C229.528 177.525 229.515 177.559 229.528 177.587C229.542 177.615 229.575 177.627 229.603 177.615ZM233.479 173.355C233.51 173.365 233.542 173.349 233.554 173.32C233.564 173.291 233.55 173.259 233.522 173.249C233.521 173.249 233.52 173.248 233.519 173.248C233.49 173.237 233.457 173.251 233.446 173.28C233.446 173.281 233.446 173.281 233.446 173.281C233.436 173.311 233.45 173.343 233.479 173.355ZM232.19 172.881C232.219 172.891 232.251 172.876 232.262 172.847C232.272 172.818 232.258 172.787 232.23 172.776C232.229 172.776 232.228 172.776 232.227 172.775C232.198 172.764 232.165 172.778 232.154 172.807C232.154 172.808 232.153 172.808 232.153 172.809C232.144 172.839 232.16 172.871 232.19 172.881ZM230.896 172.408C230.925 172.419 230.958 172.404 230.969 172.375C230.969 172.375 230.969 172.375 230.97 172.374C230.981 172.347 230.968 172.316 230.94 172.304C230.939 172.304 230.937 172.303 230.935 172.303C230.906 172.291 230.873 172.306 230.862 172.335C230.862 172.335 230.861 172.335 230.861 172.336C230.852 172.365 230.867 172.397 230.896 172.408ZM231.342 175.483C231.365 175.503 231.401 175.501 231.422 175.478C231.443 175.455 231.442 175.42 231.419 175.398C231.396 175.378 231.36 175.378 231.338 175.4C231.316 175.424 231.318 175.461 231.342 175.483ZM230.33 174.55C230.351 174.571 230.386 174.571 230.407 174.549C230.408 174.549 230.408 174.548 230.409 174.547C230.43 174.524 230.429 174.489 230.406 174.468C230.383 174.447 230.347 174.448 230.325 174.47C230.304 174.493 230.306 174.529 230.33 174.55ZM233.235 170.568C233.264 170.568 233.288 170.543 233.288 170.514C233.287 170.512 233.288 170.511 233.287 170.51C233.287 170.479 233.261 170.454 233.23 170.455C233.229 170.455 233.229 170.455 233.228 170.455C233.197 170.457 233.173 170.484 233.174 170.515C233.175 170.546 233.201 170.57 233.232 170.569C233.233 170.569 233.234 170.568 233.235 170.568ZM231.859 170.626C231.891 170.624 231.915 170.598 231.915 170.566C231.913 170.535 231.885 170.511 231.854 170.513C231.823 170.515 231.8 170.54 231.8 170.57C231.8 170.601 231.825 170.626 231.856 170.626C231.857 170.626 231.858 170.626 231.859 170.626ZM230.812 178.436C230.84 178.459 230.881 178.457 230.905 178.43C230.93 178.403 230.928 178.362 230.901 178.337C230.873 178.314 230.832 178.317 230.807 178.344C230.783 178.37 230.785 178.412 230.812 178.436ZM229.632 177.371C229.659 177.396 229.701 177.394 229.725 177.367C229.749 177.341 229.747 177.299 229.721 177.275C229.694 177.25 229.653 177.252 229.628 177.279C229.604 177.305 229.606 177.347 229.632 177.371ZM233.096 172.151C233.133 172.148 233.161 172.117 233.16 172.08C233.157 172.044 233.124 172.017 233.088 172.02C233.052 172.023 233.026 172.053 233.027 172.089C233.03 172.125 233.06 172.152 233.096 172.151ZM231.51 172.233C231.546 172.231 231.573 172.2 231.572 172.164C231.571 172.128 231.54 172.1 231.504 172.102C231.468 172.103 231.439 172.134 231.441 172.17C231.443 172.206 231.474 172.234 231.51 172.233ZM231.838 175.377C231.872 175.387 231.909 175.369 231.923 175.336C231.934 175.301 231.915 175.265 231.881 175.253C231.848 175.24 231.811 175.257 231.798 175.291C231.798 175.291 231.798 175.291 231.798 175.292C231.785 175.326 231.803 175.364 231.838 175.377C231.838 175.376 231.838 175.377 231.838 175.377ZM230.34 174.844C230.374 174.856 230.412 174.838 230.424 174.804C230.424 174.804 230.424 174.804 230.424 174.804C230.436 174.77 230.418 174.734 230.385 174.722C230.351 174.71 230.314 174.727 230.301 174.761C230.289 174.795 230.306 174.832 230.34 174.844ZM231.74 176.462C231.773 176.474 231.811 176.457 231.823 176.423C231.836 176.389 231.819 176.352 231.785 176.339C231.752 176.327 231.715 176.343 231.702 176.376C231.689 176.41 231.706 176.448 231.74 176.462ZM230.272 175.871C230.306 175.884 230.344 175.867 230.357 175.833C230.37 175.8 230.354 175.763 230.322 175.748C230.287 175.735 230.249 175.751 230.234 175.785C230.221 175.819 230.238 175.857 230.272 175.871ZM231.558 173.158C231.594 173.157 231.623 173.127 231.623 173.09C231.622 173.054 231.593 173.026 231.557 173.026C231.522 173.025 231.492 173.053 231.491 173.088C231.491 173.089 231.491 173.09 231.491 173.091C231.49 173.127 231.519 173.157 231.556 173.158C231.556 173.158 231.557 173.158 231.558 173.158Z" fill="white"/>
<path d="M184.657 112.733C184.931 111.635 185.399 110.598 185.865 109.567C186.094 109.061 186.323 108.555 186.551 108.049C186.632 107.87 186.719 107.684 186.874 107.564C187.01 107.459 187.184 107.417 187.353 107.384C189.25 107.008 191.29 107.412 192.898 108.481C192.356 111.459 192.639 114.581 193.708 117.414C190.838 118.628 187.751 119.332 184.636 119.484C184.371 117.236 184.11 114.929 184.657 112.733Z" fill="#E94A47"/>
<path d="M191.005 175.627C192.736 175.297 198.316 175.441 198.316 175.441C198.316 175.441 199.8 178.778 199.783 180.976C197.201 180.979 194.619 180.983 192.037 180.986C187.698 180.992 186.672 181.033 182.09 180.94C181.993 179.914 184.047 178.031 187.793 177.152C188.62 176.957 190.17 175.786 191.005 175.627Z" fill="#D62929"/>
<path d="M191.606 133.558C190.851 130.313 190.058 126.981 188.113 124.225C187.91 123.938 187.657 123.635 187.299 123.584C186.605 123.484 186.225 124.324 186.106 124.985C182.991 142.299 190.135 158.055 191.005 175.604C193.271 175.744 196.122 175.814 198.389 175.744C197.771 172.108 199.365 171.175 199.193 167.495C199.037 164.142 197.773 162.943 197.512 159.596C197.234 156.041 198.467 154.967 197.658 151.487C196.692 147.337 192.571 137.71 191.606 133.558Z" fill="#151A4F"/>
<path d="M191.717 83.7797C191.871 84.0051 191.997 84.2488 192.092 84.5043C191.602 85.2965 191.311 85.9909 190.82 86.7833C190.636 86.9933 190.425 86.8194 190.341 86.7568C190.207 86.6574 190.309 86.4504 190.409 86.3178C190.651 85.9962 190.842 85.6367 190.972 85.2562C190.839 85.2999 190.766 85.4385 190.692 85.5578C190.487 85.8905 190.177 86.158 189.818 86.3133C189.699 86.3642 189.54 86.3942 189.46 86.2942C189.375 86.188 189.451 86.0338 189.526 85.9198C189.912 85.3305 190.235 84.7008 190.489 84.0437C190.508 83.9942 190.528 83.9429 190.567 83.9061C190.661 83.8166 190.813 83.8548 190.941 83.8809C191.208 83.9355 191.491 83.908 191.743 83.8031C191.805 83.9946 191.604 83.6129 191.717 83.7797Z" fill="#F2A19C"/>
<path d="M186.73 87.9342C186.263 92.3321 186.256 96.7786 186.709 101.178C185.645 101.068 183.835 101.939 182.77 102.043C182.882 98.6253 183.942 94.3411 184.478 90.9641C184.822 88.7948 185.287 86.5591 186.595 84.7904C187.249 84.9883 187.891 84.5126 188.537 84.2898C189.908 83.8167 191.401 84.5076 192.592 85.3321C192.738 85.4329 192.895 85.5567 192.917 85.7323C192.972 86.1803 192.261 86.1967 191.841 86.0277C190.993 85.6871 190.097 85.3937 189.185 85.4499C188.273 85.5064 187.337 85.983 186.97 86.816C186.816 87.1667 186.771 87.5534 186.73 87.9342Z" fill="#FFBEB6"/>
<path d="M186.597 84.7803C187.082 84.3822 187.687 84.165 188.279 83.9545C188.749 83.7872 189.22 83.6202 189.691 83.4529C189.927 83.3687 190.165 83.2845 190.414 83.243C190.736 83.1896 191.065 83.2106 191.392 83.2147C192.72 83.2313 193.158 83.1126 194.433 82.741C194.609 82.6897 195.677 82.572 195.857 82.6096C196.036 82.6474 196.197 82.7274 196.167 82.9075C196.125 83.1533 195.805 83.2124 195.555 83.2307C193.584 83.3738 191.743 84.4898 189.768 84.4091C189.611 84.4027 189.451 84.3888 189.297 84.4253C189.127 84.4662 188.978 84.5666 188.825 84.6541C188.386 84.9074 187.89 85.0639 187.384 85.1099C187.077 85.1378 186.691 85.0729 186.597 84.7803Z" fill="#FFBEB6"/>
<path d="M203.433 112.462C201.056 114.686 198.464 115.827 195.303 116.629C193.902 116.984 194.237 116.966 193.636 116.537C192.889 116.004 193.028 115.049 192.886 114.144C192.64 112.585 192.404 110.936 192.999 109.474C193.327 111.324 193.859 113.526 195.05 114.985C197.839 112.549 201.068 109.858 204.155 107.81C204.198 109.268 204.24 110.728 204.283 112.186C204.084 112.068 203.631 112.58 203.433 112.462Z" fill="#FFBEB6"/>
<path d="M202.556 175.627C204.287 175.297 209.866 175.441 209.866 175.441C209.866 175.441 211.351 178.778 211.333 180.976C208.751 180.979 206.169 180.983 203.588 180.986C199.249 180.992 198.222 181.033 193.641 180.94C193.543 179.914 195.597 178.031 199.343 177.152C200.171 176.957 201.72 175.786 202.556 175.627Z" fill="#E94A47"/>
<path d="M202.21 108.382C201.059 107.251 200.1 105.523 199.37 104.086C198.091 101.567 196.78 98.6917 197.709 96.0248C198.258 94.4466 199.604 93.1661 201.213 92.6914C201.093 95.1759 201.948 97.5939 202.821 99.9251C204.059 103.237 205.182 105.82 206.536 109.087C206.707 109.5 206.988 110.422 206.867 110.648C206.343 111.626 205.836 112.369 204.972 112.555C204.108 112.741 203.108 112.936 202.683 113.708C201.386 112.265 200.703 111.514 201.065 109.612C201.759 108.946 201.986 108.839 202.21 108.382Z" fill="#428DFC"/>
<path d="M200.84 95.7344C199.7 98.1742 196.36 102.657 194.986 104.974C192.681 108.862 193.361 108.435 192.684 112.899C189.938 112.708 186.851 112.296 184.453 113.411C185.892 106.885 187.427 102.682 189.059 98.6473C190.691 94.6125 193.552 90.6623 197.773 89.5418C199.274 89.1432 201.291 89.404 201.77 90.8759C202.029 91.6709 201.194 94.9764 200.84 95.7344Z" fill="url(#paint12_linear)"/>
<path d="M197.73 89.8379C198.389 90.7477 200.326 90.7114 200.728 90.1291C200.425 88.1026 200.766 86.4955 201.5 84.5818C200.328 85.0662 199.079 85.3633 197.814 85.4586C198.277 86.9548 198.3 88.3782 197.73 89.8379Z" fill="#F2A19C"/>
<path d="M197.345 79.9862C197.501 80.5502 196.8 81.4781 196.588 82.0239C196.101 83.274 196.267 84.9425 197.427 85.6234C198.51 86.2587 199.906 85.7581 200.956 85.0711C201.843 84.4908 202.658 83.768 203.194 82.8557C203.731 81.944 203.966 80.826 203.679 79.8084C203.522 79.2542 203.004 78.6599 202.467 78.872C202.495 78.7357 202.016 78.6924 202.044 78.5562C200.972 78.3661 200.331 78.5618 199.479 79.2367C198.956 79.6505 198.769 79.8858 198.132 79.6848C197.835 79.5905 197.397 79.3915 197.306 79.6895C197.277 79.786 197.318 79.8884 197.345 79.9862Z" fill="#FFBEB6"/>
<path d="M204.684 79.531C203.611 78.576 202.819 78.5511 201.387 78.4133C201.344 79.8638 200.352 81.0825 199.586 82.3169C198.82 83.5514 198.261 85.1883 199.064 86.3994C199.504 87.0626 200.3 87.4921 200.545 88.2484C200.755 88.8942 200.5 89.5865 200.442 90.2625C200.25 92.4906 201.246 94.7595 202.981 96.1794C203.093 95.0094 204.531 94.472 205.711 94.4915C206.891 94.5108 208.158 94.7993 209.195 94.2378C210.293 93.6431 209.021 92.5741 209.899 91.6896C210.608 90.9756 209.231 88.6968 207.031 87.7088C205.951 87.224 205.847 84.8329 206.118 83.6846C206.549 81.8586 205.51 80.2667 204.684 79.531Z" fill="#23286B"/>
<path d="M196.538 129.903C196.243 129.03 195.937 127.044 196.037 126.131C196.1 125.555 196.367 125.018 196.477 124.448C196.704 123.272 196.244 122.084 195.791 120.968C194.8 118.525 193.809 116.081 192.818 113.638C189.934 113.824 187.07 114.286 184.283 115.016C183.841 136.758 191.791 156.496 202.54 175.66C204.314 175.795 208.032 175.379 209.807 175.513C210.033 175.531 211.283 171.772 209.966 167.565C209.516 166.125 207.275 163.18 206.769 161.756C206.07 159.79 205.548 156.026 205.33 153.96C204.796 148.893 201.337 148.223 200.229 143.241C199.735 141.022 197.525 132.831 196.538 129.903Z" fill="url(#paint13_linear)"/>
<path d="M201.147 96.3315C201.126 96.3315 201.105 96.3262 201.084 96.3147C200.606 96.0358 200.186 95.6761 199.84 95.2453C199.365 94.6558 199.088 94.0008 199.04 93.3505C198.993 92.7269 199.156 92.1174 199.313 91.5279C199.454 91.0023 199.599 90.4588 199.588 89.9206C199.571 89.1157 199.157 88.1182 198.756 87.1531C198.602 86.7816 198.456 86.4313 198.332 86.0909C197.834 84.7256 198.194 83.8807 198.799 82.7475C199.037 82.3025 199.393 81.8518 199.77 81.3742C200.402 80.5748 201.055 79.7484 201.141 78.9338C201.148 78.866 201.208 78.8149 201.277 78.8237C201.346 78.8305 201.395 78.8915 201.388 78.9597C201.295 79.8455 200.619 80.7007 199.965 81.5276C199.595 81.9961 199.245 82.4386 199.018 82.8637C198.349 84.1183 198.137 84.8322 198.566 86.0065C198.688 86.3418 198.832 86.6903 198.985 87.0588C199.395 88.0447 199.818 89.0643 199.836 89.9154C199.848 90.4889 199.698 91.0495 199.553 91.5916C199.394 92.1875 199.244 92.7503 199.287 93.3322C199.344 94.0903 199.724 94.7071 200.034 95.0907C200.362 95.4978 200.757 95.8377 201.21 96.1011C201.27 96.1358 201.289 96.2112 201.255 96.2703C201.232 96.3095 201.19 96.3315 201.147 96.3315Z" fill="#23286B"/>
<path d="M198.941 80.581C198.921 80.581 198.9 80.5759 198.88 80.5652C198.42 80.3075 198.238 79.8287 198.264 79.493C198.27 79.425 198.329 79.369 198.398 79.3794C198.466 79.3846 198.518 79.4441 198.512 79.5123C198.495 79.7289 198.612 80.131 199.002 80.3496C199.062 80.3829 199.083 80.4585 199.05 80.518C199.027 80.5582 198.984 80.581 198.941 80.581Z" fill="#23286B"/>
<path d="M193.503 113.612C193.243 113.389 193.052 113.099 192.816 112.85C192.498 112.514 192.102 112.262 191.711 112.013C191.546 111.909 191.376 111.802 191.185 111.766C191.087 111.747 190.976 111.751 190.903 111.817C190.737 111.966 190.9 112.232 191.061 112.387C191.515 112.823 191.969 113.26 192.423 113.696C192.707 113.97 192.937 114.123 193.138 114.462C193.282 114.705 193.371 115.122 193.51 115.369C193.615 115.556 193.816 115.711 194.011 115.802C194.205 115.892 194.754 115.704 194.886 115.536C194.61 115.057 194.443 114.573 194.11 114.131C193.949 113.918 193.706 113.786 193.503 113.612Z" fill="#FFBEB6"/>
<path d="M197.763 91.272C197.718 90.8543 197.399 90.0459 196.99 89.9418C195.828 89.6466 193.689 90.2494 192.771 91.8319C191.106 94.7056 188.422 98.6521 186.895 100.864C186.775 99.9617 186.627 98.8248 186.627 98.8248C186.627 98.8248 185.174 99.2022 185.02 99.2256C183.921 99.3931 182.978 99.5514 182.04 99.4473C181.884 101.264 182.197 102.146 182.718 103.858C182.99 104.752 183.79 107.596 183.986 108.143C184.646 108.477 186.641 108.067 188.623 105.901C189.569 104.868 194.625 98.0515 195.514 96.7316C196.403 95.4121 197.974 93.2323 197.763 91.272Z" fill="#89B3F4"/>
<path d="M196.508 92.9056C196.479 92.9056 196.449 92.8951 196.425 92.8742C196.374 92.8284 196.37 92.7506 196.415 92.6997C197.165 91.8652 197.684 91.0753 198.002 90.2845C198.385 89.3312 198.475 88.3347 198.256 87.4776C198.182 87.192 198.072 86.907 197.965 86.6317C197.806 86.2202 197.641 85.7943 197.587 85.3424C197.422 83.9383 198.356 82.6654 199.187 81.7133L199.406 81.4628C200.211 80.5487 201.044 79.6033 201.236 78.4372C201.247 78.3699 201.31 78.3224 201.379 78.3354C201.446 78.3465 201.492 78.4101 201.481 78.4775C201.278 79.7138 200.421 80.686 199.593 81.6263L199.374 81.8757C198.577 82.7893 197.681 84.0057 197.834 85.3138C197.884 85.7346 198.036 86.1267 198.197 86.5423C198.306 86.8247 198.419 87.1162 198.496 87.416C198.729 88.3234 198.636 89.3745 198.233 90.3759C197.904 91.194 197.37 92.0075 196.601 92.8639C196.576 92.8917 196.542 92.9056 196.508 92.9056Z" fill="#23286B"/>
<path d="M184.431 119.717C184.449 119.697 184.447 119.678 184.427 119.66C184.406 119.643 184.387 119.644 184.37 119.664C184.352 119.685 184.353 119.704 184.374 119.721C184.394 119.739 184.412 119.719 184.431 119.717ZM185.262 115.77C185.281 115.769 185.298 115.748 185.297 115.729C185.296 115.71 185.275 115.693 185.256 115.694C185.237 115.695 185.22 115.715 185.221 115.734C185.205 115.774 185.244 115.79 185.262 115.77ZM184.712 117.734C184.731 117.733 184.75 117.731 184.767 117.711C184.766 117.692 184.765 117.673 184.744 117.655C184.725 117.656 184.706 117.658 184.688 117.678C184.672 117.717 184.693 117.735 184.712 117.734ZM189.195 120.469C189.235 120.485 189.271 120.464 189.288 120.425C189.304 120.386 189.283 120.349 189.243 120.332C189.204 120.316 189.167 120.338 189.151 120.377C189.115 120.418 189.157 120.472 189.195 120.469ZM187.437 119.983C187.477 119.999 187.513 119.977 187.53 119.938C187.546 119.899 187.525 119.863 187.485 119.846C187.446 119.83 187.409 119.851 187.393 119.89C187.376 119.93 187.398 119.966 187.437 119.983ZM185.678 119.477C185.718 119.493 185.754 119.472 185.771 119.433C185.787 119.393 185.765 119.357 185.726 119.34C185.686 119.324 185.65 119.346 185.633 119.385C185.617 119.424 185.639 119.461 185.678 119.477ZM186.728 123.483C186.744 123.444 186.742 123.406 186.72 123.369C186.68 123.353 186.642 123.355 186.606 123.377C186.589 123.416 186.592 123.454 186.612 123.472C186.655 123.526 186.693 123.524 186.728 123.483ZM185.289 122.364C185.306 122.325 185.303 122.287 185.281 122.25C185.242 122.234 185.204 122.236 185.167 122.258C185.15 122.297 185.153 122.335 185.173 122.353C185.214 122.389 185.271 122.384 185.289 122.364ZM188.651 116.847C188.689 116.844 188.725 116.803 188.722 116.766C188.719 116.728 188.678 116.692 188.64 116.695C188.602 116.698 188.566 116.739 188.569 116.776C188.572 116.814 188.613 116.85 188.651 116.847ZM186.827 117.051C186.865 117.048 186.901 117.008 186.898 116.97C186.895 116.932 186.854 116.897 186.816 116.9C186.778 116.903 186.743 116.943 186.745 116.981C186.748 117.019 186.789 117.054 186.827 117.051ZM185.022 117.254C185.06 117.252 185.096 117.211 185.093 117.173C185.09 117.136 185.049 117.1 185.011 117.103C184.973 117.106 184.938 117.146 184.941 117.184C184.945 117.241 184.984 117.257 185.022 117.254ZM185.58 124.841C185.597 124.821 185.612 124.763 185.573 124.747C185.553 124.729 185.494 124.714 185.478 124.753C185.46 124.774 185.445 124.832 185.485 124.848C185.506 124.884 185.544 124.882 185.58 124.841ZM188.022 118.511C188.06 118.509 188.097 118.487 188.095 118.449C188.092 118.411 188.071 118.393 188.032 118.377C187.994 118.38 187.957 118.401 187.96 118.44C187.962 118.478 187.984 118.514 188.022 118.511ZM186.397 118.55C186.435 118.547 186.472 118.525 186.47 118.487C186.467 118.449 186.446 118.432 186.407 118.415C186.369 118.418 186.332 118.44 186.335 118.478C186.337 118.516 186.359 118.552 186.397 118.55ZM184.771 118.569C184.809 118.566 184.846 118.545 184.843 118.506C184.84 118.469 184.82 118.451 184.78 118.434C184.742 118.437 184.706 118.459 184.708 118.497C184.713 118.554 184.733 118.571 184.771 118.569ZM186.586 121.758C186.626 121.775 186.662 121.753 186.679 121.714C186.695 121.675 186.674 121.638 186.634 121.622C186.595 121.605 186.558 121.627 186.542 121.666C186.525 121.705 186.548 121.761 186.586 121.758ZM185.071 121.178C185.111 121.195 185.147 121.173 185.165 121.153C185.181 121.113 185.16 121.077 185.12 121.06C185.081 121.044 185.044 121.066 185.028 121.105C185.01 121.125 185.031 121.162 185.071 121.178ZM186.568 115.563C186.605 115.542 186.623 115.521 186.601 115.485C186.579 115.448 186.54 115.432 186.522 115.452C186.485 115.474 186.469 115.513 186.491 115.55C186.491 115.55 186.53 115.566 186.568 115.563ZM185.082 116.202C185.118 116.18 185.135 116.141 185.113 116.105C185.091 116.068 185.052 116.052 185.015 116.074C184.978 116.095 184.962 116.135 184.982 116.152C185.006 116.207 185.045 116.223 185.082 116.202C185.063 116.203 185.082 116.202 185.082 116.202ZM187.255 125.238C187.294 125.254 187.331 125.233 187.347 125.194C187.364 125.155 187.342 125.118 187.303 125.101C187.263 125.085 187.226 125.107 187.21 125.146C187.193 125.185 187.215 125.222 187.255 125.238ZM185.504 124.579C185.543 124.596 185.58 124.574 185.596 124.535C185.613 124.496 185.591 124.459 185.552 124.443C185.512 124.427 185.476 124.448 185.459 124.487C185.441 124.508 185.464 124.563 185.504 124.579ZM187.098 117.356C187.135 117.335 187.151 117.295 187.129 117.259C187.107 117.223 187.068 117.206 187.031 117.228C186.995 117.25 186.978 117.289 187 117.325C187.002 117.363 187.061 117.378 187.098 117.356ZM185.372 118.126C185.408 118.104 185.425 118.065 185.403 118.029C185.381 117.992 185.342 117.976 185.305 117.998C185.268 118.019 185.252 118.058 185.274 118.095C185.294 118.112 185.335 118.148 185.372 118.126ZM187.081 121.437C187.119 121.435 187.154 121.394 187.152 121.356C187.149 121.319 187.108 121.283 187.07 121.286C187.032 121.289 186.996 121.329 186.999 121.367C187.002 121.405 187.043 121.44 187.081 121.437ZM185.208 121.493C185.246 121.49 185.282 121.45 185.279 121.412C185.276 121.374 185.235 121.338 185.197 121.341C185.159 121.344 185.124 121.385 185.126 121.422C185.129 121.46 185.151 121.497 185.208 121.493ZM187.437 122.671C187.474 122.668 187.51 122.628 187.507 122.59C187.504 122.552 187.464 122.516 187.426 122.519C187.388 122.522 187.351 122.544 187.355 122.6C187.358 122.638 187.398 122.673 187.437 122.671ZM185.558 122.65C185.596 122.647 185.632 122.607 185.629 122.569C185.626 122.531 185.605 122.495 185.548 122.499C185.51 122.502 185.474 122.542 185.458 122.582C185.48 122.618 185.52 122.653 185.558 122.65ZM185.825 119.124C185.862 119.102 185.878 119.063 185.876 119.025C185.854 118.988 185.814 118.972 185.776 118.974C185.74 118.996 185.723 119.035 185.726 119.073C185.729 119.111 185.787 119.126 185.825 119.124Z" fill="white"/>
</g>
<defs>
<linearGradient id="paint0_linear" x1="199.977" y1="79.18" x2="245.568" y2="79.18" gradientUnits="userSpaceOnUse">
<stop stop-color="#B9D3FD"/>
<stop offset="1" stop-color="#89B3F4"/>
</linearGradient>
<linearGradient id="paint1_linear" x1="214.86" y1="89.8147" x2="262.418" y2="89.8147" gradientUnits="userSpaceOnUse">
<stop stop-color="#DEEAFE"/>
<stop offset="1" stop-color="#E9F1FE"/>
</linearGradient>
<linearGradient id="paint2_linear" x1="49.8228" y1="87.0915" x2="224.64" y2="87.0915" gradientUnits="userSpaceOnUse">
<stop stop-color="#EEEEEE"/>
<stop offset="1" stop-color="#D6D7D8"/>
</linearGradient>
<linearGradient id="paint3_linear" x1="67.6448" y1="119.003" x2="23.3769" y2="131.172" gradientUnits="userSpaceOnUse">
<stop stop-color="#B9D3FD"/>
<stop offset="1" stop-color="#89B3F4"/>
</linearGradient>
<linearGradient id="paint4_linear" x1="56.063" y1="133.314" x2="9.88136" y2="146.009" gradientUnits="userSpaceOnUse">
<stop stop-color="#DEEAFE"/>
<stop offset="1" stop-color="#E9F1FE"/>
</linearGradient>
<linearGradient id="paint5_linear" x1="107.563" y1="96.8314" x2="164.31" y2="96.8314" gradientUnits="userSpaceOnUse">
<stop stop-color="#428DFC"/>
<stop offset="1" stop-color="#1D72D8"/>
</linearGradient>
<linearGradient id="paint6_linear" x1="72.8307" y1="82.5887" x2="106.956" y2="82.5887" gradientUnits="userSpaceOnUse">
<stop stop-color="#FFBEB6"/>
<stop offset="1" stop-color="#F2A19C"/>
</linearGradient>
<linearGradient id="paint7_linear" x1="89.4152" y1="99.6805" x2="116.671" y2="99.6805" gradientUnits="userSpaceOnUse">
<stop stop-color="#428DFC"/>
<stop offset="1" stop-color="#1D72D8"/>
</linearGradient>
<linearGradient id="paint8_linear" x1="114.704" y1="104.365" x2="167.504" y2="104.365" gradientUnits="userSpaceOnUse">
<stop stop-color="#D6D7D8"/>
<stop offset="1" stop-color="#EEEEEE"/>
</linearGradient>
<linearGradient id="paint9_linear" x1="157.59" y1="101.67" x2="170.333" y2="101.67" gradientUnits="userSpaceOnUse">
<stop stop-color="#FFBEB6"/>
<stop offset="1" stop-color="#F2A19C"/>
</linearGradient>
<linearGradient id="paint10_linear" x1="216.667" y1="160.332" x2="228" y2="160.332" gradientUnits="userSpaceOnUse">
<stop stop-color="#EFEFEF"/>
<stop offset="0.5538" stop-color="#D7D8D9"/>
</linearGradient>
<linearGradient id="paint11_linear" x1="208.167" y1="170.456" x2="236.5" y2="170.456" gradientUnits="userSpaceOnUse">
<stop stop-color="#EFEFEF"/>
<stop offset="0.5538" stop-color="#D7D8D9"/>
</linearGradient>
<linearGradient id="paint12_linear" x1="184.453" y1="101.392" x2="201.819" y2="101.392" gradientUnits="userSpaceOnUse">
<stop stop-color="#A1C3FC"/>
<stop offset="1" stop-color="#81AEF2"/>
</linearGradient>
<linearGradient id="paint13_linear" x1="184.266" y1="144.662" x2="210.56" y2="144.662" gradientUnits="userSpaceOnUse">
<stop stop-color="#23286B"/>
<stop offset="1" stop-color="#151A4F"/>
</linearGradient>
<clipPath id="clip0">
<rect width="266.667" height="200" fill="white"/>
</clipPath>
</defs>
</svg>
