<svg width="160" height="48" viewBox="0 0 160 48" fill="none" xmlns="http://www.w3.org/2000/svg">
<g clip-path="url(#clip0)">
<path d="M95.2491 25.399C95.2387 24.4681 95.0208 23.5489 94.6813 22.6855C94.4194 22.017 94.1152 21.3661 93.8181 20.7128C91.4544 15.5615 88.9739 10.4646 86.3785 5.42608C86.0135 4.72205 85.6562 4.01377 85.2707 3.32063C84.8918 2.6445 84.4508 1.9936 83.8799 1.46438C82.9689 0.595902 81.7466 0.0781075 80.4921 0H79.9145C78.6231 0.0637612 77.3624 0.605732 76.4358 1.50902C75.8858 2.03 75.4602 2.66522 75.0915 3.32249C74.711 4.00421 74.3588 4.70133 74.0006 5.3942C72.2591 8.77469 70.5689 12.1813 68.9305 15.613C67.9539 17.6666 66.9856 19.7237 66.0541 21.7976C65.6678 22.6615 65.3185 23.555 65.187 24.4981C64.9433 26.0906 65.2927 27.7619 66.1434 29.1293C66.8766 30.3171 67.9773 31.2744 69.2602 31.8272C70.2632 32.2601 71.3532 32.453 72.4438 32.3907C73.9005 32.3134 75.3051 31.79 76.5375 31.0262C77.9124 30.1824 79.0882 29.0602 80.1831 27.8854C81.2011 28.9827 82.2907 30.0297 83.5483 30.8503C84.763 31.6495 86.1479 32.2281 87.6046 32.3657C89.1867 32.531 90.8259 32.1389 92.1537 31.2582C93.3281 30.48 94.2376 29.3624 94.761 28.0544C95.098 27.2104 95.2639 26.3077 95.2491 25.399ZM80.1897 24.7848C79.7925 24.3172 79.4426 23.8114 79.0912 23.3093C78.4998 22.4418 77.9621 21.5351 77.5295 20.5771C77.1751 19.7822 76.8906 18.9477 76.7796 18.0811C76.6985 17.3935 76.7179 16.6762 76.9703 16.0235C77.1961 15.4114 77.6302 14.8811 78.1802 14.5307C79.4905 13.685 81.3581 13.7764 82.5454 14.8022C83.1464 15.3141 83.5053 16.071 83.5956 16.8489C83.7139 17.8829 83.4787 18.9214 83.1177 19.8858C82.436 21.6754 81.3568 23.2795 80.1897 24.7848ZM93.0464 26.9779C92.6962 28.1865 91.8546 29.2422 90.7534 29.8514C89.7773 30.3974 88.6123 30.5844 87.5119 30.4006C86.1105 30.1824 84.8531 29.4388 83.7635 28.5611C82.9628 27.9176 82.2418 27.1822 81.551 26.4243C82.6416 25.0449 83.669 23.6018 84.4538 22.0242C85.1387 20.6427 85.6591 19.1459 85.7085 17.5925C85.7364 16.6069 85.551 15.6032 85.0906 14.7257C84.4878 13.5532 83.4078 12.6526 82.1698 12.2169C81.0133 11.8038 79.7277 11.7669 78.5479 12.1032C77.4352 12.418 76.419 13.0867 75.7227 14.0137C75.1098 14.8218 74.7604 15.8154 74.6794 16.8231C74.5548 18.2745 74.9185 19.7224 75.4687 21.0566C76.2867 23.0061 77.4873 24.7707 78.8133 26.4075C78.2154 27.098 77.5666 27.7428 76.8723 28.3363C75.7958 29.2473 74.5641 30.0403 73.1688 30.3421C72.0408 30.5953 70.8237 30.4694 69.7892 29.946C68.5775 29.3421 67.6471 28.2048 67.2961 26.8974C67.0278 25.937 67.0873 24.9001 67.4064 23.9593C67.6718 23.1809 68.0318 22.4392 68.3687 21.6902C70.7071 16.5945 73.1598 11.5519 75.7248 6.56635C76.1074 5.82432 76.4841 5.07885 76.889 4.34905C77.2195 3.76112 77.6039 3.18381 78.1472 2.77096C78.7347 2.31331 79.4614 2.07108 80.2059 2.08473C80.9711 2.07569 81.7317 2.35757 82.317 2.84933C82.8951 3.3294 83.2856 3.98614 83.6363 4.64076C84.429 6.12985 85.1905 7.63621 85.9521 9.14097C88.126 13.4434 90.2147 17.7884 92.2172 22.1732C92.5198 22.8544 92.8437 23.5303 93.0474 24.2492C93.2964 25.1357 93.3046 26.0932 93.0464 26.9779ZM68.8455 36.4074C69.5001 36.2592 70.2153 36.6909 70.3854 37.3407C70.5966 38.0057 70.1768 38.7788 69.5084 38.9711C68.8554 39.2007 68.0799 38.8016 67.8636 38.1497C67.6585 37.6003 67.878 36.9372 68.3652 36.6122C68.5105 36.5134 68.6736 36.4438 68.8455 36.4074ZM73.2668 40.6999C73.6611 40.2713 74.2166 40.0027 74.7889 39.9172C75.1706 39.8799 75.5559 39.9043 75.9299 39.9895C75.9252 40.5928 75.9289 41.1953 75.9278 41.799C75.3409 41.6473 74.7055 41.6159 74.1295 41.8279C73.8166 41.9418 73.5346 42.1271 73.3059 42.3691C73.2565 42.4113 73.2684 42.4796 73.2639 42.5383C73.2674 44.224 73.2613 45.91 73.2663 47.5954C73.2605 47.6602 73.2761 47.7333 73.2474 47.7941C72.5966 47.8092 71.9449 47.797 71.2937 47.7994C71.294 45.2296 71.2916 42.6592 71.2953 40.0894C71.8436 40.0917 72.3923 40.0872 72.9409 40.0904C73.0615 40.0835 73.1901 40.1454 73.2342 40.2631C73.2775 40.4039 73.2637 40.554 73.2668 40.6999ZM87.3018 40.7068C87.8227 40.1677 88.5778 39.9026 89.3187 39.901C90.1017 39.8813 90.904 40.1127 91.5089 40.6207C91.9112 40.9362 92.2014 41.3728 92.3365 41.8659C92.5087 42.4666 92.4932 43.0976 92.4911 43.7163C92.4916 45.0776 92.4911 46.4392 92.4916 47.8007C91.8352 47.7997 91.179 47.805 90.5225 47.7978C90.523 46.4373 90.5225 45.0768 90.523 43.7158C90.523 43.2102 90.5469 42.6648 90.2781 42.2145C90.0908 41.8914 89.7202 41.7304 89.3628 41.6929C88.6822 41.584 87.9712 41.8547 87.5021 42.351C87.4521 42.401 87.4093 42.4642 87.4149 42.5396C87.4086 42.7501 87.4404 42.9613 87.4224 43.1719C87.3966 43.4581 87.4367 43.7442 87.4274 44.0311C87.419 44.5721 87.4183 45.1131 87.4253 45.6541C87.3881 46.3696 87.4529 47.0874 87.4101 47.8021C86.7563 47.7999 86.103 47.8015 85.4492 47.8013C85.449 45.2301 85.4444 42.6595 85.4516 40.0886C85.9572 40.0925 86.4638 40.0886 86.9691 40.0901C87.0998 40.0819 87.2428 40.155 87.2765 40.2878C87.3073 40.4244 87.298 40.5665 87.3018 40.7068ZM68.1256 47.801C68.1253 45.2301 68.1216 42.6595 68.1269 40.0888C68.7783 40.0904 69.4295 40.0899 70.0806 40.0894C70.0857 42.66 70.082 45.2306 70.0825 47.8007C69.4303 47.8007 68.7781 47.8002 68.1256 47.801ZM66.9122 40.0896C66.396 40.0886 65.8798 40.0912 65.3631 40.0867C65.2266 40.0859 65.0523 40.0925 64.9856 40.236C64.9258 40.3835 64.9487 40.5471 64.9433 40.7023C64.5138 40.245 63.9083 39.9735 63.2871 39.9145C62.3281 39.8285 61.3342 40.0944 60.564 40.6768C59.9296 41.1454 59.4607 41.8231 59.2152 42.5697C59.097 42.9196 59.0377 43.2867 59 43.6536V44.1815C59.055 45.2864 59.5465 46.3794 60.4038 47.0917C61.0505 47.6395 61.8815 47.9455 62.7234 47.9989H63.1623C63.8296 47.954 64.4885 47.678 64.9439 47.1807C64.9481 47.3366 64.9261 47.5019 64.9845 47.6512C65.0454 47.7721 65.1888 47.8053 65.3134 47.8005C65.8461 47.7991 66.3796 47.801 66.9128 47.7981C66.9128 45.2293 66.9144 42.6595 66.9122 40.0896ZM64.883 45.3985C64.4845 45.8757 63.8621 46.1578 63.2404 46.1382C62.5741 46.1432 61.8825 45.8879 61.4508 45.3653C61.0297 44.8664 60.9025 44.1725 60.9981 43.5383C61.0696 43.025 61.3313 42.5327 61.7447 42.2142C62.1195 41.9182 62.5921 41.7657 63.0653 41.7328C63.7701 41.6712 64.5132 41.982 64.9372 42.5511C64.9611 43.389 64.9378 44.229 64.9484 45.0683C64.9415 45.1788 64.972 45.3119 64.883 45.3985ZM84.3238 42.2955C84.0204 41.5535 83.4822 40.9084 82.7999 40.4876C82.0972 40.0503 81.2545 39.8526 80.4307 39.9087C79.7801 39.9515 79.1443 40.2291 78.6927 40.7036C78.69 39.2634 78.6927 37.824 78.6913 36.3838C78.0346 36.384 77.3773 36.3808 76.7206 36.3856C76.724 40.1895 76.715 43.9953 76.7254 47.7989C77.2692 47.8002 77.8135 47.8015 78.3576 47.8002C78.4929 47.8108 78.6387 47.7365 78.6759 47.5996C78.7028 47.4604 78.6929 47.3167 78.6937 47.1756C79.1501 47.6833 79.8207 47.9588 80.495 47.9995H80.8972C81.9888 47.9447 83.0592 47.4331 83.7444 46.5752C84.704 45.3985 84.8913 43.6881 84.3238 42.2955ZM82.0271 45.5404C81.5872 45.9487 80.9782 46.1445 80.3837 46.1387C79.7633 46.153 79.1435 45.868 78.7506 45.3879C78.702 45.338 78.686 45.2705 78.69 45.2041C78.6905 44.3215 78.6913 43.4392 78.69 42.5572C79.0673 42.0652 79.6711 41.7586 80.2888 41.727C80.915 41.7086 81.572 41.8925 82.0316 42.334C82.4694 42.7402 82.683 43.3494 82.6692 43.9395C82.682 44.5287 82.4625 45.1339 82.0271 45.5404ZM100.528 41.3412C99.6927 40.2774 98.2647 39.7408 96.9334 39.9398C96.3774 40.0275 95.8505 40.2942 95.4619 40.7033C95.4576 39.2639 95.4619 37.8245 95.4597 36.3846C94.8041 36.3838 94.1489 36.3832 93.4938 36.3851C93.4932 40.1892 93.4938 43.9945 93.4938 47.7992C94.0105 47.8031 94.5286 47.7984 95.0453 47.8031C95.181 47.8053 95.3508 47.7944 95.4204 47.6557C95.4807 47.5058 95.4581 47.3387 95.4624 47.1812C95.9154 47.6775 96.5713 47.9516 97.235 48H97.6776C98.7573 47.9413 99.8128 47.4373 100.497 46.5925C101.055 45.9187 101.356 45.0558 101.406 44.1868V43.6711C101.344 42.8321 101.061 41.999 100.528 41.3412ZM98.9934 45.3188C98.4735 45.9881 97.5562 46.237 96.7424 46.1071C96.2469 46.0083 95.7663 45.7407 95.4733 45.3231C95.4406 44.9992 95.4701 44.6717 95.4603 44.3462C95.4672 43.7477 95.4454 43.1472 95.4701 42.5497C95.7682 42.1387 96.2453 41.8752 96.7363 41.7663C97.6449 41.5984 98.7012 41.9584 99.1605 42.7973C99.5787 43.5739 99.537 44.6116 98.9934 45.3188Z" fill="#C5CAE9"/>
</g>
<defs>
<clipPath id="clip0">
<rect width="160" height="48" fill="white"/>
</clipPath>
</defs>
</svg>
