<svg width="160" height="48" viewBox="0 0 160 48" fill="none" xmlns="http://www.w3.org/2000/svg">
<path d="M81.0836 9.13264C83.4488 6.0152 86.737 6 86.737 6C86.737 6 87.2261 8.93093 84.8764 11.7543C82.3675 14.7691 79.5157 14.2758 79.5157 14.2758C79.5157 14.2758 78.9803 11.9048 81.0836 9.13264ZM79.8166 16.3289C81.0334 16.3289 83.2917 14.6563 86.2312 14.6563C91.291 14.6563 93.2815 18.2567 93.2815 18.2567C93.2815 18.2567 89.3884 20.2472 89.3884 25.077C89.3884 30.5254 94.2382 32.4031 94.2382 32.4031C94.2382 32.4031 90.848 41.9452 86.2688 41.9452C84.1656 41.9452 82.5305 40.5279 80.3145 40.5279C78.0562 40.5279 75.8152 41.9981 74.3555 41.9981C70.1741 41.9982 64.8914 32.9465 64.8914 25.6705C64.8914 18.5119 69.3628 14.7566 73.5568 14.7566C76.2833 14.7566 78.3991 16.3289 79.8166 16.3289Z" fill="#C5CAE9"/>
</svg>
