<svg width="160" height="48" viewBox="0 0 160 48" fill="none" xmlns="http://www.w3.org/2000/svg">
<g clip-path="url(#clip0)">
<path d="M81.3823 23.9675C80.5261 23.9675 79.9089 24.2483 79.2831 24.5343V31.0066C79.8825 31.0637 80.2261 31.0637 80.7949 31.0637C82.8499 31.0637 83.1316 30.1225 83.1316 28.8085V25.7173C83.1316 24.7469 82.8096 23.9675 81.3823 23.9675ZM67.7342 23.6143C66.3084 23.6143 65.983 24.3971 65.983 25.3665V25.9112H69.4836V25.3665C69.4836 24.3971 69.1582 23.6143 67.7342 23.6143ZM41.2953 30.351C41.2953 31.1179 41.6572 31.5162 42.4558 31.5162C43.3124 31.5162 43.8197 31.2369 44.445 30.9499V29.4147H42.5719C41.685 29.4147 41.2953 29.5797 41.2953 30.351ZM94.6584 23.9675C93.2301 23.9675 92.7353 24.7469 92.7353 25.7173V29.2587C92.7353 30.2315 93.2301 31.0133 94.6584 31.0133C96.0828 31.0133 96.5814 30.2315 96.5814 29.2587V25.7173C96.581 24.7469 96.0823 23.9675 94.6584 23.9675ZM34.2961 34.3219H30.0977V24.16H28V20.6585H30.0982V18.5554C30.0982 15.6984 31.2822 14 34.6474 14H37.4492V17.5025H35.698C34.3878 17.5025 34.3014 17.992 34.3014 18.9053L34.2961 20.658H37.4684L37.0974 24.1595H34.2961V34.3219ZM48.6444 34.3483H45.1452L44.9941 33.4633C43.3964 34.3483 41.9705 34.4918 41.0299 34.4918C38.4638 34.4918 37.0979 32.7775 37.0979 30.4067C37.0979 27.6097 38.6917 26.6114 41.5429 26.6114H44.445V26.0067C44.445 24.5789 44.2814 24.16 42.0857 24.16H38.4959L38.8467 20.6585H42.7706C47.588 20.6585 48.6444 22.1803 48.6444 26.035V34.3483ZM60.5431 24.4167C58.3657 24.0434 57.7403 23.9613 56.6927 23.9613C54.8109 23.9613 54.2422 24.3764 54.2422 25.9746V28.9976C54.2422 30.5957 54.8109 31.0128 56.6927 31.0128C57.7403 31.0128 58.3657 30.9293 60.5431 30.5545V33.9701C58.6359 34.3977 57.3933 34.51 56.3433 34.51C51.8358 34.51 50.0443 32.1397 50.0443 28.7154V26.2625C50.0443 22.8354 51.8358 20.4607 56.3433 20.4607C57.3933 20.4607 58.6359 20.5735 60.5431 21.003V24.4167ZM73.6814 28.7154H65.9825V28.9976C65.9825 30.5957 66.5517 31.0128 68.433 31.0128C70.1243 31.0128 71.1566 30.9293 73.3301 30.5545V33.9701C71.2338 34.3977 70.1415 34.51 68.0851 34.51C63.5771 34.51 61.7846 32.1397 61.7846 28.7154V25.9107C61.7846 22.9146 63.1145 20.4607 67.7338 20.4607C72.353 20.4607 73.6814 22.8863 73.6814 25.9107V28.7154ZM87.329 28.7802C87.329 32.0897 86.3831 34.5038 80.6528 34.5038C78.5834 34.5038 77.3696 34.3219 75.0857 33.9706V15.052L79.2826 14.3518V20.9694C80.1897 20.6325 81.3636 20.4612 82.4319 20.4612C86.6293 20.4612 87.3285 22.343 87.3285 25.367V28.7802H87.329ZM100.783 28.8522C100.783 31.7073 99.604 34.4764 94.6723 34.4764C89.7382 34.4764 88.5374 31.7073 88.5374 28.8522V26.0955C88.5374 23.239 89.7382 20.4694 94.6723 20.4694C99.604 20.4694 100.783 23.239 100.783 26.0955V28.8522ZM114.227 28.8522C114.227 31.7073 113.047 34.4764 108.116 34.4764C103.182 34.4764 101.982 31.7073 101.982 28.8522V26.0955C101.982 23.239 103.182 20.4694 108.116 20.4694C113.047 20.4694 114.227 23.239 114.227 26.0955V28.8522ZM128.025 34.3219H123.475L119.628 27.8991V34.3219H115.429V15.0515L119.628 14.3513V26.7568L123.475 20.6585H128.025L123.824 27.3136L128.025 34.3219ZM108.102 23.9675C106.676 23.9675 106.181 24.7469 106.181 25.7173V29.2587C106.181 30.2315 106.676 31.0133 108.102 31.0133C109.526 31.0133 110.03 30.2315 110.03 29.2587V25.7173C110.03 24.7469 109.526 23.9675 108.102 23.9675ZM130.421 31.9251C131.128 31.9251 131.691 32.5015 131.691 33.2214C131.691 33.9523 131.127 34.5225 130.415 34.5225C129.707 34.5225 129.133 33.9523 129.133 33.2214C129.133 32.5015 129.707 31.9251 130.415 31.9251H130.421ZM130.415 32.1267C129.846 32.1267 129.38 32.6167 129.38 33.2214C129.38 33.8371 129.846 34.3209 130.421 34.3209C130.996 34.3267 131.455 33.8371 131.455 33.2272C131.455 32.6172 130.996 32.1267 130.421 32.1267H130.415ZM130.174 33.9758H129.944V32.5294C130.065 32.5126 130.18 32.4958 130.353 32.4958C130.571 32.4958 130.714 32.5418 130.802 32.6047C130.887 32.6685 130.933 32.766 130.933 32.9037C130.933 33.0947 130.807 33.2094 130.652 33.256V33.267C130.778 33.2905 130.864 33.4047 130.894 33.6173C130.927 33.8424 130.962 33.9283 130.985 33.9754H130.743C130.709 33.9283 130.674 33.7964 130.645 33.6058C130.612 33.422 130.519 33.3529 130.334 33.3529H130.175V33.9758H130.174ZM130.174 33.1753H130.341C130.53 33.1753 130.691 33.1057 130.691 32.9267C130.691 32.8 130.6 32.6738 130.341 32.6738C130.266 32.6738 130.213 32.6796 130.174 32.6849V33.1753Z" fill="#C5CAE9"/>
</g>
<defs>
<clipPath id="clip0">
<rect width="160" height="48" fill="white"/>
</clipPath>
</defs>
</svg>
