<svg width="160" height="48" viewBox="0 0 160 48" fill="none" xmlns="http://www.w3.org/2000/svg">
<path d="M53.1877 27.1754C53.6308 26.6954 54.0369 26.2892 54.3692 25.9569L55.2554 25.0708C55.5138 24.8123 55.7723 24.5908 55.9938 24.4061C56.2154 24.2215 56.4369 24 56.6954 23.8154C57.2123 23.3723 57.6185 23.0769 57.9508 22.8923C58.2831 22.7077 58.6154 22.6338 58.9108 22.6338C59.3538 22.6338 59.7231 22.7815 60.0923 23.1138C60.4246 23.4461 60.6092 23.8154 60.6092 24.2215C60.6092 24.5169 60.5354 24.8492 60.3508 25.1446C60.1662 25.4769 59.8708 25.92 59.4646 26.4738C57.4708 29.0954 56.4738 30.7569 56.4738 31.5323C56.4738 31.8646 56.6215 32.0492 56.9908 32.0492C57.2492 32.0492 57.5446 31.9385 57.84 31.7169C58.1354 31.4954 58.5415 31.1261 59.0215 30.5723C59.28 30.2769 59.5754 29.9077 59.9446 29.4277C60.3138 28.9477 60.6462 28.5046 60.9415 28.0985C61.2369 27.6923 61.4585 27.3969 61.6431 27.2492C61.8277 27.1015 62.0492 27.0277 62.3077 27.0277C62.5662 27.0277 62.7877 27.1015 62.9723 27.2861C63.1569 27.4708 63.2308 27.6923 63.2308 27.9508C63.2308 28.4308 63.0092 29.0954 62.5662 29.9077C62.1231 30.72 61.5323 31.5323 60.8308 32.3815C59.9446 33.4523 59.0215 34.3015 58.0985 34.8923C57.1754 35.4831 56.3262 35.7785 55.5508 35.7785C54.8492 35.7785 54.2585 35.5569 53.7785 35.0769C53.2985 34.5969 53.0769 34.0062 53.0769 33.2677C53.0769 32.8985 53.1138 32.5292 53.1877 32.16C53.2615 31.8277 53.3354 31.4585 53.4831 31.0892C53.5938 30.72 53.7785 30.3138 54.0369 29.9077C54.2954 29.5015 54.5538 29.0215 54.9231 28.5046C54.96 28.4677 54.9969 28.3569 55.1077 28.2092C54.4431 28.7261 53.7785 29.3538 53.1138 30.1661C52.4492 30.9415 51.7846 31.9385 51.12 33.1938C50.64 34.0061 50.2708 34.56 50.0123 34.8185C49.7538 35.0769 49.4215 35.2246 49.0523 35.2246C48.6462 35.2246 48.3138 35.0769 48.0185 34.7815C47.76 34.4861 47.6123 34.1169 47.6123 33.6738C47.6123 33.3785 47.6492 33.12 47.7231 32.8615C47.7969 32.6031 47.9077 32.2338 48.1292 31.7538C48.24 31.3846 48.4246 31.0154 48.6462 30.5723C48.8677 30.1661 49.0154 29.8338 49.2 29.5754L49.9385 28.32C49.9754 28.2831 50.0492 28.1354 50.16 27.9508C49.6431 28.3569 49.1631 28.8369 48.6462 29.3538C48.0923 29.76 47.6123 30.2769 47.1692 30.8677C46.7262 31.4215 46.32 32.0123 45.9877 32.5661C45.6554 33.1569 45.36 33.7108 45.1385 34.2277C44.8062 34.9292 44.5108 35.4092 44.2892 35.6677C44.0308 35.9262 43.7354 36.0369 43.3662 36.0369C42.9969 36.0369 42.6277 35.8892 42.3692 35.5569C42.1108 35.2615 42 34.8554 42 34.3754C42 33.4154 42.48 31.7169 43.4031 29.3538C43.9569 27.9877 44.5108 26.7323 45.1385 25.5877C45.7662 24.4431 46.3938 23.4461 46.9846 22.6338C47.3538 22.1908 47.6492 21.8584 47.9077 21.6369C48.1662 21.4523 48.4615 21.3415 48.7569 21.3415C49.0892 21.3415 49.3846 21.4523 49.6062 21.6738C49.8646 21.8954 49.9754 22.1908 49.9754 22.5231C49.9754 22.7815 49.9015 23.04 49.7908 23.3354C49.68 23.6308 49.3846 24.1108 48.9785 24.8123C48.9046 24.9231 48.7938 25.1446 48.6462 25.4031C48.4985 25.6615 48.3138 25.9938 48.0554 26.4369L47.6492 27.2861C48.4246 26.3631 49.0892 25.5877 49.68 24.96C50.2708 24.3323 50.7508 23.8154 51.1938 23.4092C51.6369 23.04 52.0062 22.7446 52.3754 22.56C52.7077 22.3754 53.04 22.3015 53.2985 22.3015C53.6677 22.3015 53.9631 22.4123 54.2215 22.6708C54.48 22.9292 54.5908 23.2246 54.5908 23.5569C54.5908 23.7784 54.5538 24.0369 54.4431 24.3323C54.3323 24.6277 54.1108 25.0338 53.7785 25.6246L52.9662 27.1015L52.7077 27.6554L53.1877 27.1754Z" fill="#C5CAE9"/>
<path d="M62.8246 34.4493C62.123 34.4493 61.4953 34.1539 61.0523 33.6C60.5723 33.0462 60.3507 32.3077 60.3507 31.4216C60.3507 30.4616 60.5723 29.3908 61.0523 28.2092C61.4953 27.0277 62.123 25.92 62.9353 24.8862C63.8215 23.6677 64.7446 22.7815 65.7046 22.1539C66.6646 21.5262 67.5876 21.2308 68.4738 21.2308C69.2861 21.2308 69.9507 21.4892 70.4676 22.0062C70.9846 22.5231 71.243 23.2246 71.243 24.0739C71.243 24.3692 71.2061 24.6646 71.1322 24.8862C71.0584 25.1446 70.9846 25.4031 70.8369 25.7354C71.0953 25.9569 71.243 26.1046 71.3538 26.2523C71.4276 26.3631 71.4646 26.5108 71.4646 26.6585C71.4646 26.7692 71.4276 26.9169 71.3907 27.0277C71.3538 27.1385 71.2061 27.3231 71.0215 27.5815C70.6522 28.0985 70.3199 28.5785 70.0984 29.0585C69.8769 29.5016 69.7661 29.9077 69.7661 30.1662C69.7661 30.5723 69.9876 30.7939 70.4307 30.7939C70.7999 30.7939 71.243 30.5723 71.7599 30.0923C72.2769 29.6492 72.8676 28.8739 73.6061 27.8769C74.0492 27.2492 74.4922 26.9539 74.8984 26.9539C75.1938 26.9539 75.4153 27.0277 75.563 27.2123C75.7107 27.3969 75.8215 27.6185 75.8215 27.9139C75.8215 28.3569 75.5999 28.9108 75.1938 29.6123C74.7876 30.3139 74.2338 31.0154 73.4953 31.7539C71.8338 33.4892 70.2461 34.3754 68.7323 34.3754C68.1784 34.3754 67.6984 34.1908 67.3292 33.7846C66.9599 33.3785 66.7384 32.8985 66.7384 32.3446V32.0123C65.483 33.6 64.1907 34.4493 62.8246 34.4493ZM66.48 29.0585C66.4061 28.8369 66.3692 28.6892 66.3692 28.6523C66.3692 28.5046 66.443 28.3569 66.5538 28.2462L67.1815 27.5815C67.4769 27.2862 67.7723 26.88 67.9938 26.4369C68.2523 25.9939 68.363 25.6246 68.363 25.3662C68.363 24.96 68.1415 24.7385 67.7353 24.7385C67.403 24.7385 66.9969 24.9231 66.5169 25.2923C66.0369 25.6615 65.5938 26.1415 65.1507 26.7692C64.7446 27.36 64.4123 27.9877 64.1169 28.6154C63.8584 29.2431 63.7107 29.76 63.7107 30.1292C63.7107 30.5723 63.8953 30.7939 64.3015 30.7939C64.5969 30.7939 64.8553 30.6831 65.1507 30.4985C65.4461 30.2769 65.7784 29.9077 66.2215 29.3908C66.2953 29.28 66.3692 29.1692 66.48 29.0585Z" fill="#C5CAE9"/>
<path d="M79.8461 27.7662C78.8861 28.4308 77.9631 29.2431 77.1138 30.1662C76.2646 31.0892 75.6 32.0492 75.1569 32.9723L74.3077 34.7446C74.0862 35.1508 73.9015 35.4462 73.6431 35.5939C73.4215 35.7416 73.1262 35.8523 72.7569 35.8523C72.3508 35.8523 72.0185 35.7415 71.76 35.4831C71.5015 35.2246 71.3908 34.9292 71.3908 34.4862C71.3908 34.1539 71.4646 33.6739 71.6492 33.0831C71.8339 32.4923 72.0554 31.8277 72.3139 31.0892C72.6092 30.3508 72.9046 29.6123 73.3108 28.8369C73.68 28.0615 74.0862 27.3231 74.4923 26.6215C74.8615 25.9939 75.2308 25.4031 75.6369 24.8492C76.0431 24.2585 76.3754 23.8154 76.7077 23.52C77.2246 22.9662 77.7415 22.7077 78.2954 22.7077C78.6646 22.7077 78.96 22.8185 79.2185 23.04C79.4769 23.2615 79.5877 23.5569 79.5877 23.8523C79.5877 24.1108 79.5138 24.3323 79.4031 24.5539C79.2923 24.7754 78.9969 25.1077 78.5908 25.6246C78.2215 26.0308 77.8892 26.4739 77.5938 26.9539C77.2985 27.4339 77.0031 27.9139 76.8554 28.2831L77.1138 27.9877C77.8154 27.2123 78.4431 26.5108 79.0708 25.9939C79.6985 25.44 80.3631 24.8862 81.1384 24.2954C81.84 23.7785 82.3938 23.4092 82.7631 23.2246C83.1323 23.0031 83.4277 22.9292 83.7231 22.9292C84.0184 22.9292 84.3138 23.04 84.5354 23.2985C84.7938 23.5569 84.9046 23.8523 84.9046 24.1477C84.9046 24.4431 84.8307 24.7385 84.6461 24.96C84.4615 25.2185 84.1292 25.4769 83.6861 25.7723C83.2431 26.1046 82.9108 26.4 82.6154 26.6954C82.3569 26.9908 82.2092 27.2123 82.2092 27.36C82.2092 27.5815 82.32 27.6554 82.5784 27.6554C82.7631 27.6554 83.0215 27.5446 83.3538 27.36C83.6861 27.1385 84.0923 26.88 84.5354 26.5108C84.9046 26.2154 85.1631 26.0308 85.3107 25.9569C85.4584 25.8831 85.6061 25.8092 85.7538 25.8092C86.0492 25.8092 86.2707 25.92 86.4554 26.1046C86.64 26.2892 86.7138 26.5477 86.7138 26.8062C86.7138 27.2123 86.5292 27.6554 86.1969 28.1354C85.8646 28.6154 85.3477 29.0585 84.72 29.5015C83.4646 30.3877 82.2831 30.7939 81.2123 30.7939C80.6584 30.7939 80.1785 30.6462 79.8092 30.3508C79.44 30.0554 79.2554 29.6862 79.2554 29.2062C79.3292 28.7631 79.5138 28.2831 79.8461 27.7662Z" fill="#C5CAE9"/>
<path d="M92.3262 29.76C91.2923 31.4584 90.2215 32.8246 89.0769 33.7846C87.9323 34.7446 86.8246 35.2615 85.8277 35.2615C85.1261 35.2615 84.4984 35.003 84.0554 34.4492C83.5754 33.8953 83.3538 33.2307 83.3538 32.3815C83.3538 31.7907 83.4646 31.1261 83.6861 30.3507C83.9077 29.6123 84.2031 28.8 84.6092 27.9138L85.9015 25.2184C86.1231 24.8492 86.2708 24.48 86.4554 24.1107L86.8984 23.0031C87.12 22.4492 87.3415 22.08 87.5631 21.8954C87.8215 21.6738 88.1169 21.6 88.4492 21.6C88.8185 21.6 89.1138 21.7107 89.3723 21.9692C89.6308 22.2277 89.7415 22.56 89.7415 22.9661C89.7415 23.3354 89.6677 23.7784 89.4831 24.3323C89.2985 24.8861 89.0769 25.44 88.8185 25.9569L87.8215 27.9138C87.5261 28.4677 87.2677 29.0584 87.0461 29.6123C86.8246 30.1661 86.7508 30.6092 86.7508 30.8677C86.7508 31.0154 86.7877 31.163 86.8984 31.2738C86.9723 31.3846 87.0831 31.4584 87.2308 31.4584C87.4892 31.4584 87.7846 31.3107 88.08 31.0154C88.4123 30.72 88.8184 30.24 89.3354 29.5384C89.7046 29.0954 90 28.6892 90.2215 28.32C90.4431 27.9507 90.6277 27.6554 90.7754 27.323C90.7385 27.0277 90.7015 26.8061 90.7015 26.6584V26.2154C90.7015 25.6615 90.7754 25.1446 90.9231 24.6277C91.0708 24.1107 91.2923 23.6307 91.5508 23.2615C91.8092 22.8554 92.1046 22.5231 92.4 22.2646C92.7323 22.0061 93.0646 21.8954 93.3969 21.8954C93.7662 21.8954 94.0246 22.08 94.2462 22.4123C94.4677 22.7446 94.5415 23.1507 94.5415 23.6677C94.5415 24.2215 94.4677 24.8123 94.32 25.44C94.1723 26.0677 93.9508 26.6215 93.6554 27.1015C93.7662 27.1384 93.9138 27.1384 94.0246 27.1384C94.4677 27.1384 94.9846 26.9169 95.5015 26.5107C95.76 26.2892 95.9446 26.1415 96.1292 26.0307C96.3139 25.92 96.3877 25.8092 96.4985 25.7723C96.5723 25.6984 96.6462 25.6615 96.72 25.6615C96.7939 25.6615 96.8677 25.6246 96.9785 25.6246C97.2 25.6246 97.4215 25.7354 97.6062 25.92C97.7908 26.1046 97.9015 26.3261 97.9015 26.5846C97.9015 26.9538 97.7908 27.36 97.5323 27.7661C97.2739 28.1723 96.9415 28.5415 96.5354 28.8738C96.1292 29.2061 95.6862 29.4646 95.2062 29.6861C94.7262 29.9077 94.2462 29.9815 93.8031 29.9815C93.5815 29.9815 93.36 29.9446 93.1385 29.9077C92.8431 29.9446 92.6215 29.8707 92.3262 29.76Z" fill="#C5CAE9"/>
<path d="M97.0523 30.0554C96.9415 30.24 96.8677 30.3877 96.8307 30.4984C96.7938 30.6092 96.7569 30.7569 96.7569 30.9046C96.7569 31.3477 96.9046 31.68 97.163 31.9015C97.4215 32.1231 97.7907 32.2338 98.2707 32.2338C98.9723 32.2338 99.7846 31.9384 100.708 31.3108C101.631 30.6831 102.443 29.9446 103.145 29.0215L103.957 27.9508C104.252 27.5815 104.585 27.36 104.917 27.36C105.212 27.36 105.434 27.4708 105.618 27.6554C105.803 27.8769 105.914 28.1354 105.914 28.4677C105.914 28.9108 105.729 29.4646 105.36 30.0923C104.991 30.72 104.474 31.3846 103.809 32.0861C102.849 33.12 101.778 33.8954 100.671 34.4861C99.5261 35.0769 98.4923 35.3354 97.4954 35.3354C96.3507 35.3354 95.4646 34.9661 94.763 34.2277C94.0615 33.4892 93.6923 32.5661 93.6923 31.4215C93.6923 30.3138 93.9507 29.2061 94.4307 28.0246C94.9107 26.88 95.5384 25.8092 96.3138 24.8861C97.0892 23.9261 97.9384 23.1508 98.8615 22.56C99.7846 21.9692 100.708 21.6738 101.594 21.6738C102.332 21.6738 102.923 21.9323 103.403 22.4123C103.846 22.8923 104.105 23.52 104.105 24.2954C104.105 25.0338 103.92 25.7723 103.588 26.4738C103.255 27.1754 102.812 27.84 102.258 28.3938C101.705 28.9477 101.077 29.4277 100.375 29.76C99.6738 30.0923 98.9354 30.2769 98.1969 30.2769C97.9754 30.2769 97.8277 30.24 97.68 30.2031C97.4584 30.1292 97.2738 30.0923 97.0523 30.0554ZM98.1969 27.3231C98.3077 27.36 98.3815 27.36 98.4554 27.3969C98.5292 27.3969 98.6031 27.4338 98.7138 27.4338C99.0092 27.4338 99.2677 27.36 99.5631 27.2492C99.8584 27.1384 100.117 26.9538 100.375 26.7323C100.634 26.5108 100.818 26.2892 100.966 26.0308C101.114 25.7723 101.188 25.5138 101.188 25.2554C101.188 24.96 101.077 24.8123 100.818 24.8123C100.523 24.8123 100.117 25.0708 99.6 25.5877C99.0831 26.0308 98.603 26.6215 98.1969 27.3231Z" fill="#C5CAE9"/>
<path d="M106.689 30.4246C106.652 30.4615 106.652 30.5354 106.652 30.6092V30.7569C106.652 31.0523 106.763 31.3108 106.985 31.5323C107.206 31.7538 107.465 31.8646 107.723 31.8646C108.609 31.8646 109.975 30.72 111.748 28.4308L112.412 27.6554C112.855 27.1015 113.299 26.8062 113.668 26.8062C113.926 26.8062 114.111 26.88 114.295 27.0646C114.443 27.2492 114.517 27.4708 114.517 27.7662C114.517 27.9877 114.443 28.2831 114.295 28.6154C114.148 28.9477 113.963 29.3538 113.705 29.76C113.446 30.1662 113.151 30.6092 112.819 31.0523C112.486 31.4954 112.117 31.9385 111.711 32.3446C109.828 34.3015 108.055 35.2985 106.468 35.2985C105.508 35.2985 104.732 34.9662 104.142 34.3385C103.551 33.7108 103.255 32.8246 103.255 31.7169C103.255 30.9046 103.366 30.0185 103.625 29.1323C103.883 28.2092 104.326 27.1015 104.917 25.7354C105.36 24.7385 105.877 23.7046 106.505 22.5969C107.132 21.5262 107.76 20.4554 108.425 19.4215C109.089 18.3877 109.754 17.4277 110.455 16.5415C111.12 15.6554 111.785 14.9169 112.338 14.3262C113.151 13.5138 113.889 12.9231 114.517 12.5538C115.145 12.1846 115.735 12 116.252 12C116.732 12 117.139 12.1846 117.397 12.5538C117.692 12.9231 117.803 13.4031 117.803 13.9569C117.803 14.5477 117.692 15.2123 117.508 15.9877C117.286 16.7631 117.028 17.5754 116.659 18.4246C116.289 19.2738 115.846 20.1231 115.329 21.0462C114.812 21.9323 114.259 22.8185 113.594 23.7046C112.634 24.9969 111.6 26.1785 110.492 27.2492C109.422 28.2831 108.166 29.3538 106.689 30.4246ZM107.834 26.6585C108.646 25.8831 109.385 25.1446 109.975 24.48C110.603 23.7785 111.194 23.0031 111.822 22.1169C112.228 21.5631 112.597 20.9723 112.966 20.3815C113.335 19.7908 113.631 19.2 113.889 18.6462C114.148 18.0923 114.369 17.6123 114.554 17.1692C114.702 16.7631 114.812 16.4308 114.812 16.1723C114.812 15.9508 114.739 15.84 114.554 15.84C114.295 15.84 113.926 16.1354 113.409 16.7631C112.892 17.3908 112.302 18.2769 111.6 19.4215C111.305 19.8646 111.046 20.3077 110.788 20.7508C110.529 21.1938 110.16 21.8954 109.717 22.7446C109.422 23.2615 109.2 23.7046 109.015 24.0738C108.831 24.4431 108.646 24.7754 108.498 25.0708C108.351 25.3662 108.24 25.6246 108.129 25.8831C108.055 26.1415 107.945 26.4 107.834 26.6585Z" fill="#C5CAE9"/>
</svg>
