<svg width="160" height="48" viewBox="0 0 160 48" fill="none" xmlns="http://www.w3.org/2000/svg">
<path fill-rule="evenodd" clip-rule="evenodd" d="M57.5499 28.0379C57.0019 28.0379 56.5729 28.4212 56.5729 28.9806C56.5729 29.5403 57.0041 29.9214 57.5499 29.9214C58.0952 29.9214 58.5268 29.5377 58.5268 28.9806C58.5268 28.4212 58.0974 28.0379 57.5499 28.0379ZM57.5499 29.6518C57.1592 29.6518 56.8694 29.3665 56.8694 28.9806C56.8694 28.595 57.157 28.3074 57.5499 28.3074C57.938 28.3074 58.23 28.5994 58.23 28.9806C58.23 29.3595 57.9354 29.6518 57.5499 29.6518ZM67.0557 24.7407H62.3L62.8406 16.4747L59.7523 24.7407H55.3361L62.3431 6.05707H67.0421L66.4997 14.4365L69.6466 6.05707H74.0632L67.0557 24.7407ZM67.6295 24.7407L74.6361 6.05707H79.0523L72.0456 24.7407H67.6295Z" fill="#C5CAE9"/>
<path fill-rule="evenodd" clip-rule="evenodd" d="M54.8268 18.3008C48.6556 25.5479 42.8342 35.1908 47.9762 39.6313C52.9588 43.9344 59.1867 41.3866 63.4331 39.688C67.6795 37.9893 114.615 17.607 114.615 17.607C115.068 17.3806 114.984 17.0974 114.417 17.2388C114.189 17.2959 63.32 31.0817 63.32 31.0817C56.865 32.8938 49.5048 28.9445 54.8268 18.3008Z" fill="#C5CAE9"/>
<path fill-rule="evenodd" clip-rule="evenodd" d="M57.7163 29.0468C57.8533 29.0402 57.9604 28.9695 57.9604 28.7799C57.9604 28.5354 57.8006 28.4739 57.5337 28.4739H57.15V29.4876H57.4059V29.056H57.449L57.6821 29.4876H57.9763L57.7163 29.0468ZM57.5521 28.8826H57.4063V28.6473H57.5292C57.6047 28.6473 57.6913 28.6561 57.6913 28.7545C57.6913 28.8598 57.6412 28.8826 57.5521 28.8826ZM101.943 6C101.395 6 100.966 6.3837 100.966 6.94267C100.966 7.50201 101.398 7.88313 101.943 7.88313C102.488 7.88313 102.92 7.49944 102.92 6.94267C102.92 6.3837 102.491 6 101.943 6ZM101.943 7.61432C101.552 7.61432 101.263 7.32895 101.263 6.94304C101.263 6.5575 101.55 6.26991 101.943 6.26991C102.331 6.26991 102.624 6.56192 102.624 6.94304C102.624 7.32195 102.329 7.61432 101.943 7.61432Z" fill="#C5CAE9"/>
<path fill-rule="evenodd" clip-rule="evenodd" d="M102.11 7.00894C102.247 7.00232 102.354 6.93162 102.354 6.74198C102.354 6.49747 102.194 6.43598 101.928 6.43598H101.544V7.44935H101.799V7.01815H101.843L102.076 7.44935H102.37L102.11 7.00894ZM101.945 6.84471H101.799V6.60941H101.923C101.998 6.60941 102.085 6.61862 102.085 6.71694C102.085 6.82188 102.034 6.84471 101.945 6.84471ZM99.0333 9.1712L100.22 6.05707H86.7451L82.1182 11.6623L84.2544 6.05707H79.7815L72.8307 24.7407H77.2469L80.2145 16.9276L80.4178 24.7407L93.9683 24.7113L95.2582 21.1173H90.1063L91.799 16.5881H96.0451L97.3516 13.1061H93.1055L94.5611 9.1712H99.0333ZM84.799 23.495L84.5158 13.7571L91.1929 6.42603L84.799 23.495Z" fill="#C5CAE9"/>
</svg>
