<svg width="160" height="48" viewBox="0 0 160 48" fill="none" xmlns="http://www.w3.org/2000/svg">
<path opacity="0.4" d="M79.579 42C98.6765 42 114.158 33.9411 114.158 24C114.158 14.0589 98.6765 6 79.579 6C60.4816 6 45 14.0589 45 24C45 33.9411 60.4816 42 79.579 42Z" fill="#E8EAF6"/>
<path fill-rule="evenodd" clip-rule="evenodd" d="M54.7105 34.6579L58.5001 15.4736H67.2629C71.0523 15.7105 72.9471 17.605 72.9471 20.9211C72.9471 26.6053 68.4473 29.9211 64.4207 29.6842H60.158L59.2106 34.6579H54.7105ZM61.1052 26.1317L62.2895 19.0263H65.3684C67.0263 19.0263 68.2104 19.7368 68.2104 21.1578C67.9737 25.1843 66.0789 25.8948 63.9474 26.1317H61.1055H61.1052ZM72.0667 29.6842L75.8561 10.5002H80.3562L79.4088 15.4736H83.6718C87.4614 15.7105 88.8824 17.605 88.4088 19.9737L86.7509 29.6842H82.0141L83.672 20.9211C83.9087 19.7368 83.9087 19.0263 82.2511 19.0263H78.6983L76.5669 29.6842H72.0667ZM86.4475 34.6579L90.2369 15.4736H99C102.79 15.7105 104.684 17.605 104.684 20.9211C104.684 26.6053 100.184 29.9211 96.158 29.6842H91.8948L90.9474 34.6579H86.4475ZM92.842 26.1317L94.0263 19.0263H97.1055C98.7634 19.0263 99.9474 19.7368 99.9474 21.1578C99.7108 25.1843 97.8159 25.8948 95.6845 26.1317H92.8422H92.842Z" fill="#C5CAE9"/>
</svg>
