<svg width="160" height="48" viewBox="0 0 160 48" fill="none" xmlns="http://www.w3.org/2000/svg">
<path d="M55.9774 24.0048C55.9774 20.8805 59.8784 17.9197 65.8593 16.0835C64.4791 9.96956 65.0925 5.10529 67.7954 3.54795C68.4184 3.18265 69.1468 3.00961 69.9424 3.00961V5.15335C69.5015 5.15335 69.1468 5.23987 68.8497 5.4033C67.5462 6.15312 66.9807 9.00824 67.4216 12.6805C67.527 13.5841 67.6995 14.5358 67.9104 15.5068C69.789 15.0453 71.8401 14.6896 73.9967 14.4589C75.2906 12.6805 76.6325 11.0655 77.9839 9.65232C74.8593 6.73953 71.9264 5.14374 69.9328 5.14374V3C72.5686 3 76.0191 4.88418 79.5079 8.15267C82.9967 4.90341 86.4472 3.03845 89.083 3.03845V5.18219C87.099 5.18219 84.1565 6.76837 81.0319 9.66194C82.3737 11.0751 83.7156 12.6805 84.9903 14.4589C87.1565 14.6896 89.2076 15.0453 91.0862 15.5164C91.3067 14.555 91.4696 13.6226 91.5846 12.7285C92.0351 9.0563 91.4792 6.20119 90.1853 5.44175C89.8977 5.26871 89.5239 5.19181 89.083 5.19181V3.04807C89.8881 3.04807 90.6166 3.2211 91.2492 3.5864C93.9425 5.14374 94.5463 9.9984 93.1565 16.0932C99.1182 17.9389 103 20.8901 103 24.0048C103 27.1291 99.099 30.0899 93.1182 31.9261C94.4984 38.0401 93.8849 42.9043 91.1821 44.4617C90.5591 44.827 89.8306 45 89.0255 45C86.3897 45 82.9392 43.1158 79.4504 39.8473C75.9616 43.0966 72.5111 44.9615 69.8753 44.9615C69.0702 44.9615 68.3417 44.7885 67.7091 44.4232C65.0158 42.8659 64.412 38.0112 65.8018 31.9165C59.8593 30.0803 55.9774 27.1195 55.9774 24.0048ZM68.4567 17.5928C68.8114 18.8329 69.2523 20.1115 69.7507 21.39C70.1436 20.621 70.5558 19.8519 71.0063 19.0829C71.4472 18.3138 71.9168 17.564 72.3865 16.8334C71.0254 17.0352 69.7123 17.2852 68.4567 17.5928ZM72.8465 27.8309C73.5941 29.1286 74.3609 30.3591 75.1564 31.5031C76.5846 31.6281 78.0318 31.6954 79.4887 31.6954C80.936 31.6954 82.3833 31.6281 83.8018 31.5127C84.5974 30.3687 85.3737 29.1479 86.1213 27.8597C86.8498 26.6004 87.5111 25.3218 88.115 24.0336C87.5207 22.7455 86.8498 21.4573 86.1309 20.198C85.3833 18.9002 84.6165 17.6697 83.821 16.5257C82.3929 16.4008 80.9456 16.3335 79.4887 16.3335C78.0414 16.3335 76.5941 16.4008 75.1756 16.5161C74.3801 17.6601 73.6037 18.881 72.8561 20.1691C72.1277 21.4285 71.4663 22.707 70.8625 23.9952C71.4663 25.2834 72.1277 26.5715 72.8465 27.8309ZM69.7507 26.5811C69.2331 27.8693 68.7922 29.1575 68.428 30.4072C69.6836 30.7148 71.0063 30.9744 72.3769 31.1762C71.9072 30.436 71.4376 29.6766 70.9967 28.8979C70.5558 28.1289 70.1436 27.3502 69.7507 26.5811ZM79.4696 36.8384C80.3609 35.9155 81.2523 34.8869 82.1341 33.7622C81.2715 33.8006 80.3897 33.8295 79.4983 33.8295C78.5973 33.8295 77.706 33.8103 76.8338 33.7622C77.6964 34.8869 78.5878 35.9155 79.4696 36.8384ZM86.6006 31.1762C87.9616 30.9744 89.2747 30.7244 90.5303 30.4168C90.1757 29.1767 89.7348 27.8981 89.2364 26.6196C88.8434 27.3886 88.4313 28.1577 87.9808 28.9268C87.5303 29.6958 87.0702 30.4456 86.6006 31.1762ZM79.5175 11.1712C78.6261 12.0941 77.7347 13.1227 76.8529 14.2474C77.7156 14.209 78.5973 14.1801 79.4887 14.1801C80.3897 14.1801 81.2811 14.1994 82.1533 14.2474C81.2906 13.1227 80.3993 12.0941 79.5175 11.1712ZM86.6102 16.8334C87.0798 17.5736 87.5495 18.333 87.9904 19.1117C88.4313 19.8808 88.8434 20.6498 89.2364 21.4189C89.7539 20.1307 90.1948 18.8425 90.5591 17.5928C89.3035 17.2948 87.9808 17.0352 86.6102 16.8334ZM95.2843 28.8691C98.6773 27.4175 100.872 25.5141 100.872 24.0048C100.872 22.4955 98.6773 20.5825 95.2843 19.1405C94.46 18.7848 93.5591 18.4676 92.6294 18.1696C92.083 20.0538 91.3642 22.0149 90.4728 24.024C91.3546 26.0236 92.0639 27.975 92.6006 29.8496C93.5495 29.5516 94.4504 29.2248 95.2843 28.8691ZM90.1277 42.6063C91.4313 41.8565 91.9968 39.0014 91.5559 35.3291C91.4504 34.4255 91.2779 33.4738 91.067 32.5029C89.1884 32.9643 87.1373 33.32 84.9808 33.5507C83.6868 35.3291 82.345 36.9441 80.9935 38.3573C84.1181 41.2701 87.0511 42.8659 89.0447 42.8659C89.476 42.8563 89.8402 42.7697 90.1277 42.6063ZM67.3928 35.2811C66.9423 38.9533 67.4983 41.8084 68.7922 42.5679C69.0797 42.7409 69.4535 42.8178 69.8944 42.8178C71.8785 42.8178 74.821 41.2316 77.9456 38.3381C76.6037 36.9249 75.2619 35.3195 73.9871 33.5411C71.821 33.3104 69.7698 32.9547 67.8912 32.4836C67.6708 33.4546 67.4983 34.387 67.3928 35.2811ZM63.7027 28.8691C64.527 29.2248 65.428 29.542 66.3577 29.84C66.904 27.9558 67.6229 25.9947 68.5142 23.9856C67.6324 21.986 66.9232 20.0346 66.3864 18.16C65.4375 18.458 64.5366 18.7848 63.6931 19.1405C60.3001 20.5921 58.1053 22.4955 58.1053 24.0048C58.1148 25.5141 60.3097 27.4271 63.7027 28.8691Z" fill="#C5CAE9"/>
<path d="M79.4983 28.398C77.0792 28.398 75.1181 26.4311 75.1181 24.0048C75.1181 21.5785 77.0792 19.6116 79.4983 19.6116C81.9174 19.6116 83.8785 21.5785 83.8785 24.0048C83.8785 26.4311 81.9174 28.398 79.4983 28.398Z" fill="#C5CAE9"/>
</svg>
