<svg width="160" height="48" viewBox="0 0 160 48" fill="none" xmlns="http://www.w3.org/2000/svg">
<path d="M92.705 45.0762V47.9943H93.6408V46.0514H97.0467V47.9943H97.9818V45.0813L92.705 45.0762ZM93.5365 44.1323H97.1348C97.6346 44.033 98.0063 43.5919 98.1111 43.1652H92.5604C92.6641 43.592 93.0413 44.033 93.5365 44.1323ZM89.8709 47.9961C90.3427 47.7961 90.5965 47.4501 90.6937 47.0453H86.4966L86.4992 43.1676L85.5584 43.1703V47.9961H89.8709ZM78.5618 44.1193H81.885C82.386 43.9737 82.8067 43.592 82.9092 43.1689H77.6303V46.0208H81.9509V47.0216L78.5618 47.0243C78.0307 47.1723 77.5804 47.529 77.3557 48L77.6303 47.9949H82.8792V45.0726H78.5618V44.1193ZM70.3581 44.1284H73.9552C74.4556 44.0287 74.8276 43.588 74.9318 43.1609H69.3814C69.485 43.588 69.8624 44.0287 70.3581 44.1284ZM70.3581 46.0357H73.9552C74.4556 45.937 74.8276 45.496 74.9318 45.0686H69.3814C69.485 45.4961 69.8624 45.937 70.3581 46.0357ZM70.3581 47.9956H73.9552C74.4556 47.8961 74.8276 47.4552 74.9318 47.0284H69.3814C69.485 47.4553 69.8624 47.8961 70.3581 47.9956ZM61 43.1727C61.1081 43.5944 61.4733 44.0255 61.9743 44.1335H63.4884L63.5657 44.164V47.9848H64.5112V44.164L64.5971 44.1335H66.1126C66.6192 44.003 66.9765 43.5944 67.0827 43.1727V43.1633H61V43.1727Z" fill="#C5CAE9"/>
<path d="M79.5574 33.6261L84.2818 7.05588C88.785 7.05588 90.2054 7.54968 90.4105 9.56523C90.4105 9.56523 93.4313 8.43887 94.9549 6.15125C89.0094 3.3962 83.0354 3.27195 83.0354 3.27195L79.5495 7.51772L79.5574 7.51719L76.0715 3.27129C76.0715 3.27129 70.0974 3.39567 64.1527 6.15072C65.675 8.43833 68.697 9.5647 68.697 9.5647C68.9033 7.54901 70.322 7.05522 74.7949 7.05202L79.5574 33.6261Z" fill="#C5CAE9"/>
<path d="M79.5556 2.04551C84.3617 2.00876 89.8629 2.78901 95.4944 5.24349C96.2471 3.88874 96.4406 3.29 96.4406 3.29C90.2845 0.854427 84.5194 0.0209079 79.5549 0C74.5907 0.0209079 68.8258 0.85456 62.6705 3.29C62.6705 3.29 62.9451 4.0275 63.616 5.24349C69.2465 2.78901 74.7486 2.00876 79.5549 2.04551H79.5556Z" fill="#C5CAE9"/>
</svg>
